<?xml version="1.0" standalone="no"?>
<!DOCTYPE svg PUBLIC "-//W3C//DTD SVG 1.1//EN" "http://www.w3.org/Graphics/SVG/1.1/DTD/svg11.dtd" >
<svg>
<metadata>
Created by FontForge 20090914 at Sat Aug 24 22:41:09 2013
 By www-data
Copyright 1990-1993 Bitstream Inc.  All rights reserved.
</metadata>
<defs>
<font id="LydianBT-BoldItalic" horiz-adv-x="1024" >
  <font-face 
    font-family="Lydian BT"
    font-weight="700"
    font-style="italic"
    font-stretch="normal"
    units-per-em="2048"
    panose-1="3 2 8 2 4 5 2 6 2 3"
    ascent="1638"
    descent="-410"
    x-height="952"
    cap-height="1450"
    bbox="-342 -502 2437 1972"
    underline-thickness="141"
    underline-position="-172"
    slope="-5"
    unicode-range="U+0020-U+F002"
  />
<missing-glyph horiz-adv-x="1229" 
d="M102 -362v1806h1024v-1806h-1024zM217 -248h795v1577h-795v-1577z" />
    <glyph glyph-name=".notdef" horiz-adv-x="1229" 
d="M102 -362v1806h1024v-1806h-1024zM217 -248h795v1577h-795v-1577z" />
    <glyph glyph-name="space" unicode=" " horiz-adv-x="559" 
 />
    <glyph glyph-name="exclam" unicode="!" horiz-adv-x="631" 
d="M283 285c24.667 -31.333 49.5 -61.001 74.5 -89.001s50.5 -55 76.5 -81l-86 -73l-88 -81c-26 34.667 -51.333 66.334 -76 95.001s-49 55 -73 79c29.333 21.333 58.333 44.5 87 69.5s57 51.833 85 80.5zM238 359.999c8 192 13.667 344.331 17 456.998s5 214.334 5 305.001
c0 50 -0.666992 99.833 -2 149.5s-3.33301 100.167 -6 151.5l233 27c-24 -167.333 -46.833 -337.666 -68.5 -510.999l-64.5 -542z" />
    <glyph glyph-name="quotedbl" unicode="&#x22;" horiz-adv-x="643" 
d="M395 1436h164v-557h-164v557zM86 1436h164v-557h-164v557z" />
    <glyph glyph-name="numbersign" unicode="#" horiz-adv-x="1575" 
d="M709 852l-91 -254h256l91 254h-256zM735 1460h191l-154 -436h250l156 436h190l-154 -436h291l-59 -172h-293l-90 -252h309l-61 -172h-307l-156 -434h-191l156 434h-252l-158 -434h-190l156 434h-299l61 172h297l90 252h-315l61 172h316z" />
    <glyph glyph-name="dollar" unicode="$" horiz-adv-x="1118" 
d="M541 903l25.999 305c-3.33301 0.666992 -7 1.16699 -11 1.5s-9.66699 0.5 -17 0.5c-23.333 0 -45.166 -3.16699 -65.499 -9.5s-39.5 -15.833 -57.5 -28.5c-3.33301 -11.333 -5.5 -20.5 -6.5 -27.5s-1.5 -13.833 -1.5 -20.5c0 -44 10.667 -83.667 32 -119
s55 -69.333 101 -102zM585.999 230c4 -1.33301 7.99902 -2.16504 11.999 -2.49805s10 -0.5 18 -0.5c28.667 0 54.334 4.5 77.001 13.5s42.667 22.167 60 39.5c2 10 3.33301 17.5 4 22.5s1 9.16699 1 12.5c0 39.333 -12 76.666 -36 111.999s-60.667 69.666 -110 102.999z
M450.998 -126.999l11.9971 151.998c-59.333 6.66699 -114.666 24.334 -165.999 53.001s-99 68.334 -143 119.001l172 168c20 -27.333 43 -50.5 69 -69.5s54.667 -34.167 86 -45.5l33 344c-106.667 75.333 -180.5 140.5 -221.5 195.5s-61.5 112.833 -61.5 173.5
c0 42.667 12.333 87.334 37 134.001s68.334 106.334 131.001 179.001c28 32 57.333 57.667 88 77s63 32.666 97 39.999l8 98l110 20l-13 -106c55.333 -3.33301 106.5 -16.166 153.5 -38.499s88.5 -53.833 124.5 -94.5l-172 -166c-20 20.667 -40.333 37.667 -61 51
s-42.667 23.666 -66 30.999l-29 -352c102.667 -74.667 174.834 -138.834 216.501 -192.501s62.5 -108.5 62.5 -164.5c0 -46.667 -14.333 -98.667 -43 -156s-69 -114.333 -121 -171c-35.333 -38.667 -68.333 -68 -99 -88s-59 -31 -85 -33l-1 -131z" />
    <glyph glyph-name="percent" unicode="%" horiz-adv-x="1716" 
d="M1421 121c21.333 50.667 37.666 102.167 48.999 154.5s17 103.166 17 152.499c0 104.667 -21.833 185.834 -65.5 243.501s-106.5 88.5 -188.5 92.5c-27.333 -54 -48.166 -110.167 -62.499 -168.5s-21.5 -116.833 -21.5 -175.5c0 -97.333 23 -171.5 69 -222.5
s112.333 -76.5 199 -76.5h4zM498 698c21.333 51.333 37.501 103.169 48.501 155.502s16.5 103.166 16.5 152.499c0 104 -21.667 184.5 -65 241.5s-106.333 87.5 -189 91.5c-26.667 -52.667 -47 -107.834 -61 -165.501s-21 -116.5 -21 -176.5
c0 -97.333 22.667 -171.5 68 -222.5s111.666 -76.5 198.999 -76.5h4zM1300 -32.9971c-5.33301 -2 -10.001 -3.5 -14.001 -4.5s-7.33301 -1.5 -10 -1.5c-74.667 0 -140.167 37 -196.5 111s-84.5 165.333 -84.5 274c0 69.333 10 137.333 30 204s51.667 137.334 95 212.001
c8 14 25.5 30.167 52.5 48.5s81.833 49.166 164.5 92.499c96 -7.33301 171.333 -44.666 226 -111.999s82 -157 82 -269c0 -144 -29.167 -262.833 -87.5 -356.5s-144.166 -159.834 -257.499 -198.501zM1323 1479l-831 -1518h-97l830 1518h98zM377 545.003
c-4 -2 -8.00098 -3.49805 -12.001 -4.49805s-8.33301 -1.5 -13 -1.5c-74 0 -138.833 36.667 -194.5 110s-83.5 164.333 -83.5 273c0 68.667 9.83301 136.667 29.5 204s50.834 137.666 93.501 210.999c8 14.667 24.667 30.667 50 48s81 48.666 167 93.999
c96 -7.33301 171.5 -44.5 226.5 -111.5s82.5 -156.167 82.5 -267.5c0 -143.333 -29.333 -262 -88 -356s-144.667 -160.333 -258 -199z" />
    <glyph glyph-name="ampersand" unicode="&#x26;" horiz-adv-x="1100" 
d="M426 426l104.006 137.006h496l-80 -131h-86c7.33301 -18.667 12.666 -37.334 15.999 -56.001s5 -37.667 5 -57c0 -98.667 -37.667 -183 -113 -253s-167.333 -105 -276 -105c-108 0 -200.667 38.5 -278 115.5s-116 168.833 -116 275.5c0 82.667 25 159.167 75 229.5
s123.333 131.833 220 184.5c-71.333 25.333 -124.666 58.333 -159.999 99s-53 89.667 -53 147c0 38 8.16699 76.167 24.5 114.5s40.166 75.166 71.499 110.499c52 59.333 115.167 108.333 189.5 147s140.5 58 198.5 58c38.667 0 77 -8.83301 115 -26.5s76 -44.5 114 -80.5
l-188 -192c-44 37.333 -88.333 66.166 -133 86.499s-87.334 30.5 -128.001 30.5c-6.66699 -0.666992 -12.667 -1.33398 -18 -2.00098s-11.666 -2.33398 -18.999 -5.00098c-10.667 -14.667 -18.334 -29 -23.001 -43s-7 -29 -7 -45c0 -70.667 40.333 -129.667 121 -177
s192.667 -76.333 336 -87l-123 -215l-108 18c-53.333 -2.66699 -100.833 -9.33398 -142.5 -20.001s-78.5 -25.667 -110.5 -45c-12.667 -21.333 -22.334 -44.666 -29.001 -69.999s-10 -52 -10 -80c0 -94 30.833 -168.333 92.5 -223s145.5 -82 251.5 -82
c19.333 0 37.166 1.16699 53.499 3.5s31.5 6.16602 45.5 11.499c-3.33301 56 -24.333 103.833 -63 143.5s-92.334 68.167 -161.001 85.5h-32c-20.667 0 -35.834 -0.166992 -45.501 -0.5s-18.5 -0.833008 -26.5 -1.5z" />
    <glyph glyph-name="quotesingle" unicode="'" horiz-adv-x="334" 
d="M86 1436h164v-557h-164v557z" />
    <glyph glyph-name="parenleft" unicode="(" horiz-adv-x="545" 
d="M289 -502c-64 142.667 -111.833 282.5 -143.5 419.5s-47.5 273.167 -47.5 408.5c0 210.667 34.333 413.667 103 609s169.667 376.666 303 543.999l96 -66c-107.333 -182 -187 -369.167 -239 -561.5s-78 -395.5 -78 -609.5c0 -121.333 10.5 -239.666 31.5 -354.999
s52.833 -229.333 95.5 -342z" />
    <glyph glyph-name="parenright" unicode=")" horiz-adv-x="545" 
d="M215 1479c64 -142.667 111.833 -282.166 143.5 -418.499s47.5 -272.166 47.5 -407.499c0 -212.667 -34.333 -416.834 -103 -612.501s-169 -376.5 -301 -542.5l-98 68c107.333 182 187 368.833 239 560.5s78 394.5 78 608.5c0 123.333 -10.333 242.666 -31 357.999
s-52 229 -94 341z" />
    <glyph glyph-name="asterisk" unicode="*" 
d="M504 1237l-21 242h115l-20 -242l196 135l57 -96l-217 -102l220 -107l-56 -96l-200 137l20 -242l-115 2l21 240l-197 -135l-57 96l215 105l-219 102l57 98z" />
    <glyph glyph-name="plus" unicode="+" horiz-adv-x="1706" 
d="M768 1221h170v-527h514v-166h-514v-528h-170v528h-514v166h514v527z" />
    <glyph glyph-name="comma" unicode="," horiz-adv-x="559" 
d="M84 160l172 138.999c36.667 -38 62.167 -70 76.5 -96s21.5 -52 21.5 -78c0 -44 -19.833 -91 -59.5 -141s-101.5 -106 -185.5 -168l-31 39c34 28 58.167 52.833 72.5 74.5s21.5 43.834 21.5 66.501s-7 47.167 -21 73.5s-36.333 56.5 -67 90.5z" />
    <glyph glyph-name="hyphen" unicode="-" horiz-adv-x="526" 
d="M14 379l86 194h369l-86 -194h-369z" />
    <glyph glyph-name="period" unicode="." horiz-adv-x="559" 
d="M244 287l74.999 -90.9971c25.333 -29.333 50.666 -57 75.999 -83l-79 -66c-28 -24 -59.667 -52.667 -95 -86c-27.333 36 -53.166 68.167 -77.499 96.5s-48.166 54.166 -71.499 77.499c27.333 19.333 54.833 41.166 82.5 65.499s57.5 53.166 89.5 86.499z" />
    <glyph glyph-name="slash" unicode="/" horiz-adv-x="758" 
d="M907 1479l-946 -1669h-111l949 1669h108z" />
    <glyph glyph-name="zero" unicode="0" horiz-adv-x="1118" 
d="M709 183c42 66.667 73.668 146 95.001 238s32 197.333 32 316c0 163.333 -37.167 295.833 -111.5 397.5s-169.833 152.834 -286.5 153.501c-53.333 -56.667 -95.333 -131.5 -126 -224.5s-46 -192.833 -46 -299.5c0 -177.333 37.333 -319 112 -425s172.667 -159 294 -159
c8.66699 0 15.667 0.166992 21 0.5s10.666 1.16602 15.999 2.49902zM838.001 172c-85.333 -68.667 -157.169 -120.667 -215.502 -156s-101.833 -53 -130.5 -53c-31.333 0 -67.333 7.5 -108 22.5s-78.667 34.833 -114 59.5c-74.667 52.667 -131.167 123.334 -169.5 212.001
s-57.5 192.667 -57.5 312c0 96 12.167 190.5 36.5 283.5s65.5 198.5 123.5 316.5c10.667 21.333 21.834 41 33.501 59s22.834 33.333 33.501 46c14 15.333 50.833 42 110.5 80s130.167 79 211.5 123c146 0 263.333 -54.833 352 -164.5s133 -255.834 133 -438.501
c0 -132.667 -20.333 -258.667 -61 -378s-100 -227.333 -178 -324z" />
    <glyph glyph-name="one" unicode="1" horiz-adv-x="1118" 
d="M365 -10c14.667 126 32.167 306.5 52.5 541.5s44.166 535.833 71.499 902.5l269 45c-25.333 -199.333 -49.166 -424 -71.499 -674s-42.833 -518.333 -61.5 -805z" />
    <glyph glyph-name="two" unicode="2" horiz-adv-x="1118" 
d="M25 0l63 208.998l179 66c5.33301 2 13 4.66699 23 8c80.667 30 130.667 53 150 69c81.333 69.333 144.666 149.5 189.999 240.5s68 183.5 68 277.5c0 117.333 -34.667 213.333 -104 288s-158 112 -266 112c-27.333 0 -55 -3.5 -83 -10.5s-57 -17.833 -87 -32.5l-29 35
l187 190c30 8.66699 59.833 15.334 89.5 20.001s57.5 7 83.5 7c130.667 0 237.167 -44.5 319.5 -133.5s123.5 -203.833 123.5 -344.5c0 -157.333 -45 -302.166 -135 -434.499s-220.333 -245.5 -391 -339.5h241c53.333 0 99.833 0.833008 139.5 2.5
s75.834 4.16699 108.501 7.5l-68 -237h-802z" />
    <glyph glyph-name="three" unicode="3" horiz-adv-x="1118" 
d="M102 164l200.997 163.998c42 -60 87.667 -105.5 137 -136.5s101.333 -46.5 156 -46.5h16c17.333 28 30.333 56.833 39 86.5s13 59.834 13 90.501c0 100.667 -31.833 180.334 -95.5 239.001s-149.5 88 -257.5 88c-9.33301 0 -20.166 -0.5 -32.499 -1.5l-41.5 -3.5l-12 18
l176 174h6c29.333 2.66699 50.666 4 63.999 4c20.667 0 40.834 -1.33301 60.501 -4s38.5 -6 56.5 -10c24.667 29.333 43.834 62.333 57.501 99s20.5 73.667 20.5 111c0 83.333 -21.333 145.5 -64 186.5s-107.334 61.5 -194.001 61.5c-18.667 0 -40.667 -2.33301 -66 -7
s-54.666 -12 -87.999 -22l-18 31l192 176c19.333 6 40 10.333 62 13s45.667 4 71 4c109.333 0 195.666 -28.5 258.999 -85.5s95 -134.5 95 -232.5c0 -92 -19.833 -167.167 -59.5 -225.5s-102.167 -103.833 -187.5 -136.5c83.333 -34.667 146.5 -85 189.5 -151
s64.5 -145.333 64.5 -238c0 -68.667 -14.167 -127.334 -42.5 -176.001s-75.166 -94.667 -140.499 -138s-123.833 -76.666 -175.5 -99.999s-93.5 -35 -125.5 -35c-61.333 0 -120.666 17.333 -177.999 52s-110 85 -158 151z" />
    <glyph glyph-name="four" unicode="4" horiz-adv-x="1118" 
d="M668 1268l-435 -650h373zM543 -10l27.5 269.001l21.5 208h-547l-18 27l117 172c240.667 352 411.667 608 513 768l265 45c-13.333 -102 -24.166 -191.833 -32.499 -269.5s-15.5 -148.5 -21.5 -212.5l-32 -379h204l-61 -155l-158 4
c-4 -46.667 -8.33301 -102.834 -13 -168.501s-11.334 -165.167 -20.001 -298.5z" />
    <glyph glyph-name="five" unicode="5" horiz-adv-x="1118" 
d="M115 70l172 199.999c36.667 -27.333 78 -48.166 124 -62.499s94.667 -21.5 146 -21.5c27.333 0 51.5 2.5 72.5 7.5s39.833 12.167 56.5 21.5c11.333 20 19.666 41.833 24.999 65.5s8 49.5 8 77.5c0 108 -31.667 190.667 -95 248s-154.666 86 -273.999 86
c-16.667 0 -36.667 -1 -60 -3s-49.666 -5 -78.999 -9c16 146 29.667 282.833 41 410.5s20.333 244.834 27 351.501h639l-97 -228h-422l-26 -306c16.667 1.33301 32.167 2.5 46.5 3.5s26.833 1.5 37.5 1.5c153.333 0 273.166 -34.333 359.499 -103
s129.5 -163.334 129.5 -284.001c0 -76.667 -21.667 -153.5 -65 -230.5s-106.333 -150.167 -189 -219.5c-44.667 -38 -89.5 -66.667 -134.5 -86s-88.833 -29 -131.5 -29c-54 0 -107.5 9.33301 -160.5 28s-103.167 45.667 -150.5 81z" />
    <glyph glyph-name="six" unicode="6" horiz-adv-x="1118" 
d="M362 729l186.998 178.004c10 2.66699 21.333 4.66699 34 6s27.334 2 44.001 2c119.333 0 212.666 -35.833 279.999 -107.5s101 -171.5 101 -299.5c0 -58.667 -7.83301 -114.167 -23.5 -166.5s-38.834 -100.5 -69.501 -144.5l-123 -92c-127.333 -96 -211 -144 -251 -144
c-137.333 0 -242.333 52.167 -315 156.5s-109 254.166 -109 449.499c0 69.333 5.66699 138.5 17 207.5s28 137.167 50 204.5c20.667 61.333 42.334 115.166 65.001 161.499s45.334 82.5 68.001 108.5c18 20.667 53 49.5 105 86.5s112.667 75.833 182 116.5
c16 9.33301 31.5 16.5 46.5 21.5s28.167 7.5 39.5 7.5c58 0 118.5 -19 181.5 -57s122.833 -91.333 179.5 -160l-209 -160c-49.333 55.333 -101.166 97.166 -155.499 125.499s-109.833 42.5 -166.5 42.5h-6c-34 -50.667 -63.667 -120.834 -89 -210.501
s-46.333 -200.5 -63 -332.5zM353.998 637.004l-0.000976562 -29c0 -132.667 26.5 -236.834 79.5 -312.501s125.5 -113.5 217.5 -113.5c22.667 0 44.334 3.16699 65.001 9.5s40.667 15.5 60 27.5c10.667 30.667 18.834 61 24.501 91s8.5 59 8.5 87c0 90 -23.333 162 -70 216
s-108 81 -184 81c-36.667 0 -71.334 -4.66699 -104.001 -14s-65 -23.666 -97 -42.999z" />
    <glyph glyph-name="seven" unicode="7" horiz-adv-x="1118" 
d="M299 -39l471 1253h-559l59 228h748l-541 -1442z" />
    <glyph glyph-name="eight" unicode="8" horiz-adv-x="1118" 
d="M446 647c-35.333 -31.333 -61.166 -63.168 -77.499 -95.501s-24.5 -68.166 -24.5 -107.499c0 -82 25.333 -149.5 76 -202.5s114.667 -79.5 192 -79.5c17.333 0 32.666 1.16699 45.999 3.5s25.333 5.83301 36 10.5c4.66699 20 8 39.333 10 58s3 37.667 3 57
c0 59.333 -19 115.5 -57 168.5s-106 115.5 -204 187.5zM625 824.998c42.667 36.667 74.5 75.1689 95.5 115.502s31.5 83.166 31.5 128.499c0 60.667 -22.5 111 -67.5 151s-102.5 60 -172.5 60c-14 0 -28.667 -1.33301 -44 -4s-32 -6.66699 -50 -12
c-4.66699 -13.333 -8.33398 -27.5 -11.001 -42.5s-4 -30.167 -4 -45.5c0 -66.667 18.333 -128.834 55 -186.501s92.334 -112.5 167.001 -164.5zM387 686c-64.667 53.333 -112.167 106.833 -142.5 160.5s-45.5 110.834 -45.5 171.501c0 53.333 10.333 104.833 31 154.5
s46.334 86.834 77.001 111.501l52 41c130.667 102.667 228.667 154 294 154c91.333 0 166.166 -27.5 224.499 -82.5s87.5 -125.833 87.5 -212.5c0 -98 -21.5 -177.667 -64.5 -239s-114.5 -114.333 -214.5 -159c88.667 -66.667 151.167 -126.167 187.5 -178.5
s54.5 -107.5 54.5 -165.5c0 -48 -7.16699 -92.833 -21.5 -134.5s-35.833 -79.834 -64.5 -114.501c-34 -24.667 -78.333 -58.667 -133 -102c-110.667 -86.667 -186 -130 -226 -130c-101.333 0 -185.333 33 -252 99s-100 149.667 -100 251c0 81.333 19.5 150.666 58.5 207.999
s104.833 113 197.5 167z" />
    <glyph glyph-name="nine" unicode="9" horiz-adv-x="1118" 
d="M786 805v21.999c0 138 -26.333 244.667 -79 320s-127.334 113 -224.001 113c-19.333 0 -39.166 -3.16699 -59.499 -9.5s-40.833 -15.5 -61.5 -27.5c-10.667 -29.333 -18.667 -59.166 -24 -89.499s-8 -60.166 -8 -89.499c0 -91.333 23.833 -163.5 71.5 -216.5
s112.5 -79.5 194.5 -79.5c32 0 64 4.66699 96 14s63.333 23.666 94 42.999zM778 712.999l-189.001 -178.998c-10 -2.66699 -21 -4.66699 -33 -6s-26 -2 -42 -2c-120 0 -213.5 36 -280.5 108s-100.5 172 -100.5 300c0 62 7.5 118.833 22.5 170.5s37.5 98.5 67.5 140.5l124 92
c126.667 96 210.334 144 251.001 144c135.333 0 239.833 -51.833 313.5 -155.5s110.5 -249.834 110.5 -438.501c0 -73.333 -5.66699 -145 -17 -215s-28.333 -139.667 -51 -209c-20.667 -63.333 -42 -117.833 -64 -163.5s-44.333 -81.167 -67 -106.5
c-16 -19.333 -50.167 -47.5 -102.5 -84.5s-114.166 -76.5 -185.499 -118.5c-15.333 -9.33301 -30.333 -16.5 -45 -21.5s-28.334 -7.5 -41.001 -7.5c-58 0 -118 18.667 -180 56s-121.667 91 -179 161l209 162c49.333 -56 101.333 -98.333 156 -127s110 -43 166 -43h6
c33.333 49.333 62.333 118.166 87 206.499s46 200.5 64 336.5z" />
    <glyph glyph-name="colon" unicode=":" horiz-adv-x="559" 
d="M244 287l74.999 -90.9971c25.333 -29.333 50.666 -57 75.999 -83l-79 -66c-28 -24 -59.667 -52.667 -95 -86c-27.333 36 -53.166 68.167 -77.499 96.5s-48.166 54.166 -71.499 77.499c27.333 19.333 54.833 41.166 82.5 65.499s57.5 53.166 89.5 86.499zM300.999 944.003
c24.667 -31.333 49.833 -61.498 75.5 -90.498l76.5 -83.5c-29.333 -22.667 -58.333 -46.334 -87 -71.001l-87 -78l-75 91c-24.667 28.667 -49.667 55.667 -75 81c27.333 18.667 54.833 40.167 82.5 64.5s57.5 53.166 89.5 86.499z" />
    <glyph glyph-name="semicolon" unicode=";" horiz-adv-x="559" 
d="M301 944c24.667 -31.333 49.833 -61.498 75.5 -90.498l76.5 -83.5c-29.333 -22.667 -58.333 -46.334 -87 -71.001l-87 -78l-75 91c-24.667 28.667 -49.667 55.667 -75 81c27.333 18.667 54.833 40.167 82.5 64.5s57.5 53.166 89.5 86.499zM83.999 160.002l172 138.999
c36.667 -38 62.167 -70 76.5 -96s21.5 -52 21.5 -78c0 -44 -19.833 -91 -59.5 -141s-101.5 -106 -185.5 -168l-31 39c34 28 58.167 52.833 72.5 74.5s21.5 43.834 21.5 66.501s-7 47.167 -21 73.5s-36.333 56.5 -67 90.5z" />
    <glyph glyph-name="less" unicode="&#x3c;" horiz-adv-x="1706" 
d="M1442 1176v-185l-934 -381l934 -381v-182l-1178 483v160z" />
    <glyph glyph-name="equal" unicode="=" horiz-adv-x="1706" 
d="M254 487h1198v-165h-1198v165zM254 901h1198v-168h-1198v168z" />
    <glyph glyph-name="greater" unicode="&#x3e;" horiz-adv-x="1706" 
d="M264 1176l1178 -486v-160l-1178 -483v182l934 381l-934 381v185z" />
    <glyph glyph-name="question" unicode="?" horiz-adv-x="868" 
d="M266 381c-2 12.667 -3.50293 23.834 -4.50293 33.501s-1.5 18.167 -1.5 25.5c0 66 49.667 160.667 149 284l3 3c70.667 88 119 157.167 145 207.5s39 97.166 39 140.499c0 60 -23.167 110.833 -69.5 152.5s-103.166 62.5 -170.499 62.5
c-36.667 0 -73.167 -7.33301 -109.5 -22s-74.166 -37.334 -113.499 -68.001l-33 29l168 205c28 14.667 58.833 25.834 92.5 33.501s69.834 11.5 108.501 11.5c111.333 0 203 -33.167 275 -99.5s108 -150.833 108 -253.5c0 -92.667 -72 -215.667 -216 -369l-73 -79
c-38.667 -42.667 -64 -77.667 -76 -105s-18 -58 -18 -92c0 -8.66699 0.166992 -15.667 0.5 -21s0.833008 -10.333 1.5 -15zM406.997 284c2.66699 -2 6.33105 -5.99902 10.998 -11.999c57.333 -68.667 104.333 -121.667 141 -159l-79 -66c-28 -24 -59.667 -52.667 -95 -86
c-27.333 36 -53.166 68.167 -77.499 96.5s-48.166 54.166 -71.499 77.499c29.333 21.333 58.333 44.5 87 69.5s56.667 51.5 84 79.5z" />
    <glyph glyph-name="at" unicode="@" horiz-adv-x="2048" 
d="M1174 283c-36.667 -58 -79.334 -100.502 -128.001 -127.502s-107.334 -40.5 -176.001 -40.5c-101.333 0 -178.833 28.833 -232.5 86.5s-80.5 140.834 -80.5 249.501c0 155.333 46 287 138 395s203 162 333 162c59.333 0 109 -11.5 149 -34.5s73 -58.833 99 -107.5l55 107
h154l-148 -586c-0.666992 -3.33301 -1.33398 -7.33301 -2.00098 -12c-4 -18.667 -6 -31 -6 -37c0 -25.333 8.83301 -45.666 26.5 -60.999s40.834 -23 69.501 -23c34 0 69.833 10.167 107.5 30.5s72.834 48.5 105.501 84.5c48 50.667 84.667 109.834 110 177.501
s38 139.5 38 215.5c0 168.667 -62.333 305.667 -187 411s-287.667 158 -489 158c-92 0 -177.333 -10.333 -256 -31s-150.334 -52 -215.001 -94c-120.667 -75.333 -213.667 -172.333 -279 -291s-98 -250.334 -98 -395.001c0 -208 69.833 -374.333 209.5 -499
s325.834 -187 558.501 -187c110.667 0 218.5 16.333 323.5 49s202.167 80 291.5 142l67 -99c-99.333 -75.333 -205.5 -132 -318.5 -170s-231.5 -57 -355.5 -57c-128 0 -245 16 -351 48s-199.667 79.333 -281 142c-103.333 78.667 -180.5 170.5 -231.5 275.5
s-76.5 224.167 -76.5 357.5c0 110 17.333 214.5 52 313.5s85.667 189.833 153 272.5c98 119.333 215.833 210 353.5 272s290.834 93 459.501 93c110.667 0 215.667 -15.167 315 -45.5s184.333 -72.833 255 -127.5c88 -68 154 -146.5 198 -235.5s66 -189.167 66 -300.5
c0 -108 -21.667 -208.667 -65 -302s-105 -172.333 -185 -237c-46 -36.667 -96 -64.5 -150 -83.5s-110 -28.5 -168 -28.5c-70.667 0 -123 13.5 -157 40.5s-51 68.833 -51 125.5v4zM1233 706.998c-9.33301 56 -29.832 99.332 -61.499 129.999s-72.5 46 -122.5 46
c-84.667 0 -157.167 -42.833 -217.5 -128.5s-90.5 -189.167 -90.5 -310.5c0 -65.333 15.167 -115.666 45.5 -150.999s73.166 -53 128.499 -53c60 0 114.5 22.167 163.5 66.5s82.167 101.833 99.5 172.5z" />
    <glyph glyph-name="A" unicode="A" horiz-adv-x="1233" 
d="M365 657h370l-162 560zM-74 -10l566 1388l-17 64l281 28l214.5 -744l225.5 -712l-260 -53c-8 32 -17.167 66.833 -27.5 104.5l-48.5 170.5l-76 260h-477l-90 -252l-51 -145c-12 -35.333 -22.333 -68.333 -31 -99z" />
    <glyph glyph-name="B" unicode="B" horiz-adv-x="1104" 
d="M324 154c60 -20 113.499 -35.332 160.499 -45.999s84.167 -16 111.5 -16c26.667 0 55.5 26.833 86.5 80.5s46.5 110.167 46.5 169.5c0 84 -33.167 151.833 -99.5 203.5s-155.166 78.167 -266.499 79.5c-6.66699 -70 -13.167 -142.333 -19.5 -217
s-12.833 -159.334 -19.5 -254.001zM370.999 698.001l118 111.001h21c18 0 37 -1.16699 57 -3.5s40.667 -5.83301 62 -10.5c44 38 77.833 78.333 101.5 121s35.5 84.667 35.5 126c0 80.667 -26.833 144.667 -80.5 192s-126.5 71 -218.5 71
c-10.667 0 -18.834 -0.166992 -24.501 -0.5s-11.167 -1.16602 -16.5 -2.49902c-12.667 -114.667 -23.667 -223.334 -33 -326.001s-16.666 -195.334 -21.999 -278.001zM52.999 0.00195312c16.667 138.667 35.667 331.333 57 578s44 534.667 68 864h78
c28.667 0 80.167 1.33301 154.5 4s134.166 4 179.499 4c134 0 240.5 -30.667 319.5 -92s118.5 -143.333 118.5 -246c0 -76 -27.333 -145 -82 -207s-131.667 -110.333 -231 -145c94.667 -38 166 -86 214 -144s72 -125.333 72 -202c0 -121.333 -50.167 -222.333 -150.5 -303
s-228.166 -121 -383.499 -121c-36.667 0 -94 1.66699 -172 5s-137.333 5 -178 5h-64z" />
    <glyph glyph-name="C" unicode="C" horiz-adv-x="1241" 
d="M1147 360l39.001 -40.999c-118 -119.333 -226 -208.833 -324 -268.5s-186.667 -89.5 -266 -89.5c-161.333 0 -290.5 58.833 -387.5 176.5s-145.5 275.167 -145.5 472.5c0 126 19.5 242.167 58.5 348.5s96.833 201.833 173.5 286.5
c87.333 77.333 175.166 135.666 263.499 174.999s175.166 59 260.499 59c92.667 0 173.334 -16 242.001 -48s126.667 -80.333 174 -145l-201 -188c-56 54.667 -115.333 95.667 -178 123s-129.667 41 -201 41c-47.333 0 -91.5 -5.16699 -132.5 -15.5
s-69.167 -22.5 -84.5 -36.5c-6.66699 -5.33301 -15.5 -18.5 -26.5 -39.5s-22.5 -46.5 -34.5 -76.5c-24.667 -64 -43.167 -128 -55.5 -192s-18.5 -127 -18.5 -189c0 -162 39.667 -287.167 119 -375.5s191.333 -132.5 336 -132.5c72 0 139.333 12.5 202 37.5
s125 64.167 187 117.5z" />
    <glyph glyph-name="D" unicode="D" horiz-adv-x="1366" 
d="M436 1282c-22.667 -240.667 -42.3291 -460.502 -58.9961 -659.502s-28.334 -346.5 -35.001 -442.5c23.333 -2.66699 49.666 -4.66699 78.999 -6s63 -2 101 -2c83.333 0 156.666 4.5 219.999 13.5s104 20.167 122 33.5c10 6.66699 23.667 24.334 41 53.001
s34.333 62.334 51 101.001c27.333 60.667 47.5 122.667 60.5 186s19.5 129 19.5 197c0 166.667 -44.333 296.667 -133 390s-212.334 140 -371.001 140c-15.333 0 -44.333 -1 -87 -3zM305.005 1442c12.667 0 59.502 1.33203 140.502 3.99902s155.833 4 224.5 4
c199.333 0 356.666 -57.333 471.999 -172s173 -271 173 -469c0 -113.333 -25.167 -220.833 -75.5 -322.5s-122.833 -192.167 -217.5 -271.5c-111.333 -80 -213.5 -137.5 -306.5 -172.5s-188.833 -52.5 -287.5 -52.5c-22 0 -65.333 1.66699 -130 5s-118.334 5 -161.001 5h-82
c16.667 138.667 35.667 331.334 57 578.001s44 534.667 68 864h125z" />
    <glyph glyph-name="E" unicode="E" horiz-adv-x="952" 
d="M53 0c16.667 138.667 35.666 331.334 56.999 578.001s44 534.667 68 864c40 0 105.333 0.333008 196 1c244.667 2 441.667 4.33301 591 7l-83 -170c-95.333 1.33301 -176.666 2.33301 -243.999 3s-133.333 1 -198 1c-9.33301 -70 -18 -144 -26 -222
s-15 -159.667 -21 -245l496 6l-90 -166h-422c-8 -90.667 -15.167 -177.334 -21.5 -260.001s-11.5 -159.667 -15.5 -231h299c62 0 109 0.333008 141 1s62 1.66699 90 3l-71 -180c-164.667 4 -280 6.66699 -346 8s-117.333 2 -154 2h-246z" />
    <glyph glyph-name="F" unicode="F" horiz-adv-x="944" 
d="M63 -10c18 156.667 37.667 358.832 59 606.499s43.333 529.5 66 845.5c40 0 104.333 0.333008 193 1c242.667 2 436.667 4.33301 582 7l-95 -170c-48 1.33301 -100.667 2.33301 -158 3s-144.333 1 -261 1c-10 -70 -19 -144 -27 -222s-15 -159.667 -21 -245l496 6
l-90 -166h-420c-11.333 -132 -21 -252.667 -29 -362s-14.667 -207.666 -20 -294.999z" />
    <glyph glyph-name="G" unicode="G" horiz-adv-x="1337" 
d="M705 643l184.002 170.005h366c-12 -110.667 -22.333 -217.5 -31 -320.5s-16 -202.833 -22 -299.5c-133.333 -88.667 -238.833 -149.5 -316.5 -182.5s-148.834 -49.5 -213.501 -49.5c-195.333 0 -346.666 55.667 -453.999 167s-161 268.666 -161 471.999
c0 152 26.667 288.167 80 408.5s129.333 216.166 228 287.499c82.667 61.333 169.667 107.166 261 137.499s187 45.5 287 45.5c91.333 0 174.166 -16.833 248.499 -50.5s135.833 -81.834 184.5 -144.501l-195 -182c-57.333 66 -122.833 115.5 -196.5 148.5
s-155.5 49.5 -245.5 49.5c-65.333 0 -125.833 -7.83301 -181.5 -23.5s-92.834 -34.167 -111.501 -55.5c-6.66699 -8 -15.167 -23.333 -25.5 -46s-21.833 -51 -34.5 -85c-23.333 -64.667 -41 -127.667 -53 -189s-18 -120 -18 -176c0 -158.667 45.833 -287.834 137.5 -387.501
s210.167 -149.5 355.5 -149.5c30.667 0 60 2.66699 88 8s54.667 13 80 23c8 80 15.167 155.333 21.5 226s11.5 136.667 15.5 198h-278z" />
    <glyph glyph-name="H" unicode="H" horiz-adv-x="1323" 
d="M55 -10c18 156.667 37.6699 358.833 59.0029 606.5s43.333 529.5 66 845.5l275 8c-11.333 -104.667 -22 -208.834 -32 -312.501l-30 -314.5h551c12 124 26.333 302.333 43 535l6 84l275 8c-25.333 -233.333 -48.333 -469.666 -69 -708.999s-39.334 -486.333 -56.001 -741
l-275 -10c11.333 100 22.166 204.667 32.499 314s20.166 222.333 29.499 339h-551c-10 -101.333 -19 -203.833 -27 -307.5s-15.333 -215.5 -22 -335.5z" />
    <glyph glyph-name="I" unicode="I" horiz-adv-x="559" 
d="M72 -10c19.333 170.667 39.834 380.832 61.501 630.499s43.5 523.5 65.5 821.5l288 8c-25.333 -233.333 -48.333 -469.666 -69 -708.999s-39.334 -486.333 -56.001 -741z" />
    <glyph glyph-name="J" unicode="J" horiz-adv-x="797" 
d="M-70 131l228.002 172.003c22 -44 46.333 -78.333 73 -103s52.667 -38 78 -40c19.333 15.333 57.666 396.333 114.999 1143l10 139l289 8c-23.333 -212 -45.833 -447.5 -67.5 -706.5s-36.834 -406.5 -45.501 -442.5c-8 -34.667 -23.667 -68.834 -47 -102.501
s-54 -65.834 -92 -96.501c-54 -42.667 -109.167 -76.834 -165.5 -102.501s-102.833 -38.5 -139.5 -38.5c-35.333 0 -73.5 14.667 -114.5 44s-81.5 71.333 -121.5 126z" />
    <glyph glyph-name="K" unicode="K" horiz-adv-x="1128" 
d="M53 -10c18 156.667 37.667 358.832 59 606.499s43.333 529.5 66 845.5l277 8c-14 -122 -26.5 -241.167 -37.5 -357.5s-21.167 -234.166 -30.5 -353.499l313 400l139.5 180l90.5 123l235 26l-577 -702l264 -369l128.5 -177l127.5 -171l-268 -88l-465 670
c-12 -135.333 -21.667 -254 -29 -356s-13.333 -193.333 -18 -274z" />
    <glyph glyph-name="L" unicode="L" horiz-adv-x="915" 
d="M74 0c16.667 138.667 35.666 331.333 56.999 578s44 534.667 68 864l288 8c-16 -142.667 -33.667 -322.667 -53 -540s-39.666 -465.333 -60.999 -744l516 4l-68 -170h-747z" />
    <glyph glyph-name="M" unicode="M" horiz-adv-x="1706" 
d="M55 -10l23.002 120.002c86.667 467.333 133.667 723.333 141 768l76 474l-21 90l256 28l51.5 -206l59.5 -226l197 -721l383 1049l-9 76l265 28c15.333 -370.667 29.666 -674.667 42.999 -912s27 -423.333 41 -558l-269 -10c0 85.333 -4.66699 226.666 -14 423.999
c-0.666992 21.333 -1.33398 37.666 -2.00098 48.999l-25 567l-346 -948l-16 -68l-215 -53l-74 284l-104 384l-111 401l-104 -694c-6.66699 -42.667 -13.5 -89.667 -20.5 -141s-15.167 -116.333 -24.5 -195z" />
    <glyph glyph-name="N" unicode="N" horiz-adv-x="1341" 
d="M76 -10c0 1.33301 8.16699 74.002 24.5 218.002l46.5 413l78 690l-84 131l283 20l598 -1069l57 660.5c12 145.667 21.667 275.167 29 388.5l170 8c-28.667 -272.667 -53.5 -529.334 -74.5 -770.001s-38.5 -467.334 -52.5 -680.001l-184 -18l-513 928l-104 186l-63 -660
c-8.66699 -88.667 -15.5 -167.5 -20.5 -236.5s-9.16699 -135.5 -12.5 -199.5z" />
    <glyph glyph-name="O" unicode="O" horiz-adv-x="1475" 
d="M403 1212c-44 -67.333 -77.499 -141.667 -100.499 -223s-34.5 -166 -34.5 -254c0 -172 48 -308.167 144 -408.5s225.667 -150.5 389 -150.5c50 0 99.167 5.83301 147.5 17.5s93.166 28.5 134.499 50.5c42.667 72 74.834 148.167 96.501 228.5s32.5 161.833 32.5 244.5
c0 164.667 -51 296.667 -153 396s-238 149 -408 149c-51.333 0 -98.333 -4.33301 -141 -13s-78.334 -21 -107.001 -37zM588.001 1434c38.667 15.333 80 27.002 124 35.002s90.667 12 140 12c176.667 0 316.334 -55 419.001 -165s154 -260 154 -450
c0 -144.667 -20 -273.834 -60 -387.501s-96.333 -200.834 -169 -261.501c-108.667 -90.667 -206.834 -156 -294.501 -196s-175.834 -60 -264.501 -60c-189.333 0 -335 53.667 -437 161s-153 260.666 -153 459.999c0 100 13.667 197.833 41 293.5s67 184.834 119 267.501
c26 42.667 68.333 86.5 127 131.5s143.334 98.167 254.001 159.5z" />
    <glyph glyph-name="P" unicode="P" horiz-adv-x="1096" 
d="M395 737c30 -6.66699 60.5 -11.668 91.5 -15.001s63.5 -5 97.5 -5c32 0 60.5 2.83301 85.5 8.5s41.5 12.167 49.5 19.5c24 26.667 43.333 62.334 58 107.001s22 91.667 22 141c0 98.667 -27.167 174.5 -81.5 227.5s-131.833 79.5 -232.5 79.5c-4 0 -10 -0.333008 -18 -1
s-14 -1 -18 -1c-4 -35.333 -11 -104 -21 -206s-21 -220.333 -33 -355zM63 -10.001c18 156.667 37.666 358.834 58.999 606.501s43.333 529.5 66 845.5h78c39.333 0 95.5 1.33301 168.5 4s126.167 4 159.5 4c140.667 0 250.834 -34.167 330.501 -102.5
s119.5 -162.5 119.5 -282.5c0 -68.667 -13.833 -130 -41.5 -184s-69.167 -100.667 -124.5 -140c-14.667 -10 -35.334 -25 -62.001 -45c-110 -82 -208 -123 -294 -123c-10 0 -26.167 0.5 -48.5 1.5s-53.166 2.5 -92.499 4.5c-7.33301 -78 -14.5 -165.333 -21.5 -262
s-14.167 -202.334 -21.5 -317.001z" />
    <glyph glyph-name="Q" unicode="Q" horiz-adv-x="1475" 
d="M901 184c-110.667 64 -186.833 104.667 -228.5 122s-76.167 26 -103.5 26c-18.667 0 -38 -3.5 -58 -10.5s-40.667 -17.833 -62 -32.5c48.667 -40 101.5 -69.833 158.5 -89.5s118.167 -29.5 183.5 -29.5c20 0 39.167 1.16699 57.5 3.5s35.833 5.83301 52.5 10.5z
M403.001 1212c-44 -67.333 -77.498 -142 -100.498 -224s-34.5 -167 -34.5 -255c0 -78.667 11.333 -151.5 34 -218.5s55.667 -126.5 99 -178.5c79.333 52 146.166 90.167 200.499 114.5s98.833 36.5 133.5 36.5c37.333 0 80.833 -10.167 130.5 -30.5
s135.167 -66.833 256.5 -139.5c30.667 71.333 53.334 139.666 68.001 204.999s22 129 22 191c0 166.667 -50.833 299.834 -152.5 399.501s-237.834 149.5 -408.501 149.5c-51.333 0 -98.333 -4.33301 -141 -13s-78.334 -21 -107.001 -37zM588.003 1434
c38.667 15.333 79.998 27 123.998 35s90.667 12 140 12c176.667 0 316.334 -55 419.001 -165s154 -260 154 -450c0 -130.667 -16.833 -249.667 -50.5 -357s-80.834 -193 -141.501 -257l209 -119l-199 -172l-207 137c-68 -46.667 -134.167 -81.167 -198.5 -103.5
s-131.166 -33.5 -200.499 -33.5c-189.333 0 -335 53.667 -437 161s-153 260.666 -153 459.999c0 100 13.667 197.833 41 293.5s67 184.834 119 267.501c26 42.667 68.333 86.5 127 131.5s143.334 98.167 254.001 159.5z" />
    <glyph glyph-name="R" unicode="R" horiz-adv-x="1096" 
d="M383 690l180 105.001c12.667 -10.667 24.667 -19 36 -25s22.666 -10 33.999 -12c44.667 40 78.334 84.333 101.001 133s34 99.667 34 153c0 81.333 -24.833 145.166 -74.5 191.499s-118.5 69.5 -206.5 69.5c-3.33301 0 -10.333 -0.333008 -21 -1s-20 -1 -28 -1
l-31 -322.5c-9.33301 -101.667 -17.333 -198.5 -24 -290.5zM53 -9.99902c19.333 170.667 39.999 380.833 61.999 630.5s43.667 523.5 65 821.5h76c46 0 104.333 1.33301 175 4s118 4 142 4c132 0 237.833 -32.667 317.5 -98s119.5 -150.666 119.5 -255.999
c0 -94.667 -30.5 -177.334 -91.5 -248.001s-153.5 -131.334 -277.5 -182.001l389 -611l-260 -94l-341 570l-54 90c-7.33301 -82 -14.666 -172.667 -21.999 -272s-15 -215.666 -23 -348.999z" />
    <glyph glyph-name="S" unicode="S" horiz-adv-x="985" 
d="M63 195l246.002 142.999c37.333 -64 78 -112 122 -144s93 -49.333 147 -52c21.333 22 37.5 48.167 48.5 78.5s16.5 64.166 16.5 101.499c0 60.667 -14 112 -42 154s-90.333 92.333 -187 151h-1c-174 106.667 -261 223.334 -261 350.001
c0 62.667 9.33301 119.334 28 170.001s44 89 76 115c101.333 80 181.666 136.167 240.999 168.5s111.333 48.5 156 48.5s94.5 -17.667 149.5 -53s103.5 -82 145.5 -140l-217 -143c-44.667 46.667 -89.167 81.834 -133.5 105.501s-87.833 35.5 -130.5 35.5
c-5.33301 0 -11 -0.333008 -17 -1l-26 -3c-17.333 -20.667 -30.5 -45.5 -39.5 -74.5s-13.5 -60.833 -13.5 -95.5c0 -52 14.833 -98 44.5 -138s93.167 -89.667 190.5 -149c106.667 -64 179.5 -121.667 218.5 -173s58.5 -110.333 58.5 -177c0 -56 -13.333 -112.167 -40 -168.5
s-64.667 -107.833 -114 -154.5c-58.667 -56.667 -120.834 -102.334 -186.501 -137.001s-119.5 -52 -161.5 -52c-54.667 0 -108.5 19.5 -161.5 58.5s-105.167 97.5 -156.5 175.5z" />
    <glyph glyph-name="T" unicode="T" horiz-adv-x="1071" 
d="M336 -10c18.667 171.333 37.5 367.001 56.5 587.001s37.833 457.667 56.5 713l-375 -10l108 170c53.333 -2.66699 110.5 -4.66699 171.5 -6s128.833 -2 203.5 -2c84 0 175.5 0.666992 274.5 2s203.5 3.33301 313.5 6l-117 -166l-309 6
c-28 -288.667 -51.333 -544.334 -70 -767.001s-31.667 -397 -39 -523z" />
    <glyph glyph-name="U" unicode="U" horiz-adv-x="1337" 
d="M868 -10l11.0029 150.997c-138 -74.667 -236.667 -123.334 -296 -146.001s-111 -34 -155 -34c-103.333 0 -183.5 28.333 -240.5 85s-85.5 136.334 -85.5 239.001c0 16.667 11.167 152.5 33.5 407.5s42.166 504.833 59.499 749.5l274 8
c-28.667 -270 -51.834 -511 -69.501 -723s-26.5 -345 -26.5 -399c0 -53.333 15.833 -92.666 47.5 -117.999s80.5 -38 146.5 -38c48 0 96.833 6.83301 146.5 20.5s102.5 34.834 158.5 63.501c18 64 35.667 179.167 53 345.5s40 446.5 68 840.5l275 8
c-25.333 -233.333 -48.333 -469.666 -69 -708.999s-39.334 -486.333 -56.001 -741z" />
    <glyph glyph-name="V" unicode="V" horiz-adv-x="1186" 
d="M463 -39c-28.667 121.333 -75.1689 294.166 -139.502 518.499l-286.5 962.5l278 26l92.5 -354l71.5 -262l123 -422l174 383l130 295l138 334l218 20l-374 -776c-88 -190 -160 -354.333 -216 -493c-7.33301 -26 -12.666 -49.167 -15.999 -69.5
s-5.66602 -40.166 -6.99902 -59.499z" />
    <glyph glyph-name="W" unicode="W" horiz-adv-x="1825" 
d="M444 -39c-34 168.667 -83.832 378.332 -149.499 628.999s-145.5 534.667 -239.5 852l273 28l44 -178c42 -170 69.667 -277.667 83 -323l155 -576l248 484l-84 290c0 0.666992 -0.333008 2 -1 4c-24 84 -51.667 174.333 -83 271l266 28l78 -305l142 277l184 18l-266 -469
l147 -598l311 667l69 147.5l110 234.5l198 22c-138 -258 -259 -494.833 -363 -710.5s-185.667 -399.167 -245 -550.5c-5.33301 -12 -9.33301 -25.167 -12 -39.5s-4 -30.5 -4 -48.5c0 -10.667 0.166992 -18.667 0.5 -24s0.833008 -10.333 1.5 -15l-209 -115l-34 154
c-12 56.667 -19 88.334 -21 95.001l-123 468c-57.333 -97.333 -107.333 -187.333 -150 -270s-77.334 -155.667 -104.001 -219c-4.66699 -16.667 -8.66699 -34.167 -12 -52.5s-6.33301 -38.5 -9 -60.5z" />
    <glyph glyph-name="X" unicode="X" horiz-adv-x="1157" 
d="M-53 -18l139 185.001l176 245l197 280l-158 352c-14.667 20.667 -35.667 60 -63 118s-68.333 151.333 -123 280l295 18l69 -184c42 -110.667 67.333 -176.334 76 -197.001l68 -157l182 282c34.667 52 63 96 85 132s42 71.333 60 106l238 10l-45 -60l-256 -345l-197 -273
l205 -450l19 -43l128 -281l-286 -39l-39.5 103.5l-67.5 168.5l-123 304l-200 -304c-38.667 -56 -69.667 -103 -93 -141s-43 -72 -59 -102z" />
    <glyph glyph-name="Y" unicode="Y" horiz-adv-x="1071" 
d="M328 -10l32.5 339.001c9.66699 103.333 18.5 202.666 26.5 297.999l-111 317c-12.667 38 -36.667 102.333 -72 193l-122 305l283 22l92 -278l30 -92l97 -287l172 317l48 89l124 229l219 18l-126.5 -196l-133.5 -222l-225 -385c-10.667 -61.333 -21 -142 -31 -242
s-21 -238.333 -33 -415z" />
    <glyph glyph-name="Z" unicode="Z" horiz-adv-x="1081" 
d="M-12 0c56.667 79.333 136.667 201.333 240 366l79 126l459 722l-641 -6l68 242c70 -2.66699 141 -4.66699 213 -6s145.667 -2 221 -2c78 0 156.833 0.666992 236.5 2s160.5 3.33301 242.5 6l-774 -1223h661l-59 -237c-94.667 3.33301 -198.5 5.83301 -311.5 7.5
s-244.167 2.5 -393.5 2.5h-241z" />
    <glyph glyph-name="bracketleft" unicode="[" horiz-adv-x="559" 
d="M74 -483c34 408.667 62.167 777.167 84.5 1105.5s38.5 607.5 48.5 837.5h383l-68 -104h-139l-127 -1735h203l-70 -104h-315z" />
    <glyph glyph-name="backslash" unicode="\" horiz-adv-x="758" 
d="M643 -190l-629 1669h101l628 -1669h-100z" />
    <glyph glyph-name="bracketright" unicode="]" horiz-adv-x="559" 
d="M455 1460c-33.333 -386 -61.167 -744.5 -83.5 -1075.5s-38.833 -620.167 -49.5 -867.5h-383l67 104h139l127 1735h-202l69 104h316z" />
    <glyph glyph-name="asciicircum" unicode="^" horiz-adv-x="2048" 
d="M915 1460h218l495 -561h-207l-397 397l-399 -397h-207z" />
    <glyph glyph-name="underscore" unicode="_" 
d="M0 -311h1024v-172h-1024v172z" />
    <glyph glyph-name="grave" unicode="`" 
d="M285 1442h213l207 -350h-119z" />
    <glyph glyph-name="a" unicode="a" horiz-adv-x="952" 
d="M602 766c-28.667 18 -57.168 31.666 -85.501 40.999s-56.5 14 -84.5 14c-22 0 -41.167 -2.5 -57.5 -7.5s-27.833 -11.833 -34.5 -20.5c-26 -35.333 -46.5 -86.166 -61.5 -152.499s-22.5 -139.833 -22.5 -220.5c0 -76 10.667 -136.667 32 -182s49 -68 83 -68
c21.333 0 52.5 32.167 93.5 96.5s75.833 141.5 104.5 231.5c12.667 36.667 23 114.667 31 234c0.666992 14.667 1.33398 26 2.00098 34zM528.999 -10.001c0.666992 8 2.33203 20.667 4.99902 38c12.667 94.667 22.334 170.667 29.001 228
c-76.667 -92 -147 -164.167 -211 -216.5s-113 -78.5 -147 -78.5c-47.333 0 -90.666 36.333 -129.999 109s-59 160 -59 262c0 86.667 15.667 173 47 259s69.666 151 114.999 195c8 8 29.833 23.333 65.5 46s77.5 47 125.5 73c44 24.667 84.667 43.5 122 56.5s69 19.5 95 19.5
c68.667 0 130.667 -13.833 186 -41.5s102.333 -68.5 141 -122.5l-63 -33c-14.667 -156 -27.5 -301.5 -38.5 -436.5l-27.5 -347.5z" />
    <glyph glyph-name="b" unicode="b" horiz-adv-x="1020" 
d="M324 178c44 -18.667 86.5 -32.832 127.5 -42.499s80.167 -14.5 117.5 -14.5c25.333 0 45 1.66699 59 5s23 8.33301 27 15c21.333 33.333 40 84.666 56 153.999s24 138.333 24 207c0 78 -14 146 -42 204s-56.333 87 -85 87c-12.667 0 -35.667 -13.833 -69 -41.5
s-63.333 -61.167 -90 -100.5c-40 -58 -70 -125 -90 -201s-31.667 -166.667 -35 -272zM2 55.002l50.998 82.002c35.333 390 60 672 74 846s25.667 327 35 459l274 8c-21.333 -202.667 -37.666 -365.834 -48.999 -489.501s-18.666 -219.834 -21.999 -288.501
c78 95.333 150.833 170.666 218.5 225.999s119.5 83 155.5 83c57.333 0 109 -34.5 155 -103.5s69 -151.833 69 -248.5c0 -99.333 -15 -193.666 -45 -282.999s-66.333 -154 -109 -194c-65.333 -62 -132.833 -109.333 -202.5 -142s-136.5 -49 -200.5 -49
c-53.333 0 -113.5 7.83301 -180.5 23.5s-141.5 39.167 -223.5 70.5z" />
    <glyph glyph-name="c" unicode="c" horiz-adv-x="883" 
d="M766 264l31 -25.999l-185 -215c-41.333 -20.667 -82.666 -36.167 -123.999 -46.5s-81.666 -15.5 -120.999 -15.5c-107.333 0 -193 35.333 -257 106s-96 165.667 -96 285c0 65.333 7.66699 129.666 23 192.999s37.666 123.333 66.999 180c76 90 149.333 155.167 220 195.5
s145.667 60.5 225 60.5c78.667 0 144.5 -19.5 197.5 -58.5s86.833 -92.5 101.5 -160.5l-221 -133c-25.333 60.667 -60 107.834 -104 141.501s-93.333 50.5 -148 50.5c-10.667 0 -21.667 -0.666992 -33 -2s-23 -3.33301 -35 -6
c-20.667 -40.667 -36.334 -87.834 -47.001 -141.501s-16 -112.167 -16 -175.5c0 -110 24.667 -194.5 74 -253.5s119.333 -88.5 210 -88.5c44 0 85.667 9 125 27s77 45.667 113 83z" />
    <glyph glyph-name="d" unicode="d" horiz-adv-x="1006" 
d="M678 786c-34.667 18 -69.668 31.5039 -105.001 40.5039s-71.333 13.5 -108 13.5c-18 0 -34.833 -1.33301 -50.5 -4s-29.5 -6.33398 -41.5 -11.001c-34.667 -46 -61.5 -104.667 -80.5 -176s-28.5 -149 -28.5 -233c0 -81.333 13.333 -146.833 40 -196.5
s61.334 -74.5 104.001 -74.5c22 0 50.333 21.167 85 63.5s73 103.166 115 182.499c16 29.333 29.167 72.666 39.5 129.999s20.5 145.666 30.5 264.999zM597.999 -9.99609c0.666992 3.33301 1.33398 8.66406 2.00098 15.9971c10 84.667 18 160.334 24 227.001
c-74 -80.667 -146.167 -146.167 -216.5 -196.5s-122.166 -75.5 -155.499 -75.5c-64 0 -120 34.167 -168 102.5s-72 151.5 -72 249.5c0 101.333 18.833 200.833 56.5 298.5s81.834 166.834 132.501 207.501c9.33301 8 26.5 18.5 51.5 31.5s71.833 35.5 140.5 67.5
c46 21.333 86.667 37.166 122 47.499s66.333 15.5 93 15.5c13.333 0 26.666 -1 39.999 -3s26.666 -5 39.999 -9c2 26.667 7.33301 92.834 16 198.501s15.667 197.167 21 274.5l260 8c-25.333 -233.333 -48.333 -469.666 -69 -708.999s-39.334 -486.333 -56.001 -741z" />
    <glyph glyph-name="e" unicode="e" horiz-adv-x="895" 
d="M240 516c38.667 -3.33301 67.5 -5.50098 86.5 -6.50098s36.5 -1.5 52.5 -1.5c38.667 0 77.667 1.83301 117 5.5s80 9.16699 122 16.5c2 7.33301 3.33301 15.333 4 24s1 22 1 40c0 65.333 -20.833 118.833 -62.5 160.5s-95.5 62.5 -161.5 62.5
c-18 0 -36.333 -1.83301 -55 -5.5s-38.334 -9.16699 -59.001 -16.5c-15.333 -39.333 -26.666 -82.166 -33.999 -128.499s-11 -96.5 -11 -150.5zM799 275.999l26 -30.002l-161 -199c-45.333 -28 -94.333 -49.333 -147 -64s-107 -22 -163 -22
c-104.667 0 -187.834 34.333 -249.501 103s-92.5 161.334 -92.5 278.001c0 87.333 11.833 171.5 35.5 252.5s50.167 135.5 79.5 163.5c5.33301 4.66699 13 12 23 22c140 134 270.333 201 391 201c85.333 0 158.5 -26.5 219.5 -79.5s91.5 -115.833 91.5 -188.5
c0 -20.667 -3.16699 -41.167 -9.5 -61.5s-15.5 -40.166 -27.5 -59.499c-46 -39.333 -90 -74.833 -132 -106.5s-81.333 -59.167 -118 -82.5c-30.667 -5.33301 -64.167 -9.33301 -100.5 -12s-77.833 -4 -124.5 -4c-26 0 -45.5 0.166992 -58.5 0.5s-24.833 0.833008 -35.5 1.5
c6 -69.333 33.167 -123.833 81.5 -163.5s111.833 -59.5 190.5 -59.5c50.667 0 99.334 9.16699 146.001 27.5s91.667 45.833 135 82.5z" />
    <glyph glyph-name="f" unicode="f" horiz-adv-x="616" 
d="M-31 -436c72 32.667 127.669 314.667 167.002 846c12.667 172.667 23.334 309 32.001 409h-158l84 125h86c1.33301 63.333 8.16602 113.333 20.499 150s34.166 73.334 65.499 110.001c75.333 86.667 141.666 154.167 198.999 202.5s99.666 72.5 126.999 72.5
c22 0 46.5 -6.66699 73.5 -20s57.167 -33.333 90.5 -60l-148 -205c-26 34.667 -49.667 61.5 -71 80.5s-38.666 28.5 -51.999 28.5c-9.33301 0 -18.333 -31.333 -27 -94s-16 -151 -22 -265h203l-98 -125h-113c-5.33301 -64.667 -12.333 -155.667 -21 -273
c-29.333 -396 -63.333 -637.333 -102 -724c-22 -50.667 -56.333 -100.334 -103 -149.001s-110 -100.667 -190 -156z" />
    <glyph glyph-name="g" unicode="g" horiz-adv-x="981" 
d="M631 766c-28.667 18.667 -58.498 32.501 -89.498 41.501s-63.5 13.5 -97.5 13.5c-22.667 0 -42.5 -2.5 -59.5 -7.5s-29.167 -12.167 -36.5 -21.5c-25.333 -34.667 -45.666 -85.167 -60.999 -151.5s-23 -139.833 -23 -220.5c0 -76 10.5 -136.667 31.5 -182
s48.167 -68 81.5 -68c17.333 0 48.666 28.167 93.999 84.5s83.666 121.166 114.999 194.499c10 24 18.167 56.667 24.5 98s13.166 114.333 20.499 219zM20.002 -374.999l195.002 187.001c42 -43.333 81.667 -75 119 -95s74.666 -30 111.999 -30h21
c32 44.667 58.167 113.667 78.5 207s35.833 217.333 46.5 372c-104 -110 -185.167 -188.333 -243.5 -235s-102.833 -70 -133.5 -70c-48 0 -91.667 36.5 -131 109.5s-59 160.167 -59 261.5c0 88 15.667 175 47 261s69.333 150.333 114 193c7.33301 8 29.5 23.333 66.5 46
s80.5 47.667 130.5 75c44.667 24.667 85.834 43.5 123.501 56.5s70.167 19.5 97.5 19.5c72.667 0 137.667 -14 195 -42s105 -69.333 143 -124l-63 -33c-8 -82.667 -18 -195.334 -30 -338.001c-27.333 -336.667 -58.333 -539.334 -93 -608.001
c-14 -26.667 -37.833 -55.5 -71.5 -86.5s-82.834 -68.167 -147.501 -111.5c-60.667 -41.333 -116.667 -72.166 -168 -92.499s-98 -30.5 -140 -30.5c-38.667 0 -75.334 9 -110.001 27s-67.667 45 -99 81z" />
    <glyph glyph-name="h" unicode="h" horiz-adv-x="985" 
d="M23 -10c18.667 170.667 38.9971 380.834 60.9971 630.501s44 523.5 66 821.5l256 8c-21.333 -189.333 -38.666 -353.5 -51.999 -492.5s-20.666 -226.167 -21.999 -261.5c90 95.333 169.5 166.666 238.5 213.999s128.167 71 177.5 71c48 0 84.167 -15.5 108.5 -46.5
s36.5 -76.833 36.5 -137.5c0 -34.667 -8 -140.667 -24 -318s-28.667 -337 -38 -479l-256 -10c16.667 150.667 29.834 283.167 39.501 397.5s14.5 193.5 14.5 237.5c0 51.333 -7.83301 90.333 -23.5 117s-38.5 40 -68.5 40c-53.333 0 -108 -76.833 -164 -230.5
s-87.333 -337.5 -94 -551.5z" />
    <glyph glyph-name="i" unicode="i" horiz-adv-x="473" 
d="M109 1094l122 282l254 66l-163 -281zM39 -10c11.333 101.333 23.666 229.166 36.999 383.499s28.333 344.5 45 570.5l272 8c-12 -97.333 -24.667 -221.666 -38 -372.999s-28.666 -344.333 -45.999 -579z" />
    <glyph glyph-name="j" unicode="j" horiz-adv-x="479" 
d="M113 1094l123 282l253 66l-163 -281zM-70 -465c73.333 138.667 135.335 567 186.002 1285l9 124l272 8c-14.667 -134.667 -31.667 -311 -51 -529c-27.333 -301.333 -51.333 -485.333 -72 -552c-16.667 -55.333 -46.834 -109.833 -90.501 -163.5
s-110.834 -117.167 -201.501 -190.5z" />
    <glyph glyph-name="k" unicode="k" horiz-adv-x="952" 
d="M328 420l121.003 86c23.333 -10.667 44.666 -18.5 63.999 -23.5s36.666 -7.5 51.999 -7.5c3.33301 0 7.83301 0.333008 13.5 1l25.5 3c9.33301 20 16.166 39.667 20.499 59s6.5 38.666 6.5 57.999c0 47.333 -10.5 86.5 -31.5 117.5s-47.5 46.5 -79.5 46.5h-8
c-59.333 -54 -104.833 -110.167 -136.5 -168.5s-47.5 -114.166 -47.5 -167.499v-4zM23.0029 -10c17.333 160 36.666 363.669 57.999 611.002s43.333 527.666 66 840.999l275 8c-17.333 -160.667 -32.333 -309 -45 -445s-21 -239 -25 -309c80 95.333 147.5 167 202.5 215
s97.5 72 127.5 72c42.667 0 83.667 -23.833 123 -71.5s59 -100.834 59 -159.501c0 -61.333 -19 -119.833 -57 -175.5s-98.667 -113.5 -182 -173.5l104 -122c35.333 -43.333 87.333 -102 156 -176c2.66699 -3.33301 4.33398 -5.33301 5.00098 -6l-228 -138l-141 182l-19 25
l-176 225c-6 -57.333 -11.333 -119 -16 -185s-9 -135.333 -13 -208z" />
    <glyph glyph-name="l" unicode="l" horiz-adv-x="473" 
d="M37 -10c19.333 170.667 39.834 380.833 61.501 630.5s43.5 523.5 65.5 821.5l274 8c-26.667 -254 -50.334 -502.167 -71.001 -744.5s-38.667 -477.5 -54 -705.5z" />
    <glyph glyph-name="m" unicode="m" horiz-adv-x="1442" 
d="M23 -10c12.667 117.333 26.1641 256.495 40.4971 417.495s28.5 339.833 42.5 536.5l254 8l-32 -262c80.667 92.667 150.5 164.334 209.5 215.001s101.833 76 128.5 76c43.333 0 81.333 -23.5 114 -70.5s49 -105.5 49 -175.5c0 -8.66699 -1 -21.667 -3 -39
c0 -2.66699 -0.333008 -4.66699 -1 -6c86 94.667 159 166.834 219 216.501s104.667 74.5 134 74.5c43.333 0 82.166 -22.333 116.499 -67s51.5 -99.334 51.5 -164.001c0 -26 -7.66699 -122.167 -23 -288.5s-27.666 -320.166 -36.999 -461.499l-239 -10
c16.667 151.333 30 286 40 404s15 199.667 15 245c0 38.667 -5.66699 67.834 -17 87.501s-28.333 29.5 -51 29.5c-15.333 0 -38.666 -21.5 -69.999 -64.5s-64.666 -99.5 -99.999 -169.5c-24 -48 -42.5 -107.167 -55.5 -177.5s-23.833 -185.166 -32.5 -344.499l-241 -10
c18.667 174.667 31.834 309.667 39.501 405s11.5 173.333 11.5 234c0 44 -6 76.5 -18 97.5s-30.667 31.5 -56 31.5c-16 0 -38.167 -20.667 -66.5 -62s-60.166 -100 -95.499 -176c-23.333 -49.333 -41.333 -109.166 -54 -179.499s-23.334 -183.833 -32.001 -340.5z" />
    <glyph glyph-name="n" unicode="n" horiz-adv-x="985" 
d="M23 -10c12.667 117.333 26.166 256.5 40.499 417.5s28.5 339.833 42.5 536.5l254 8l-34 -264c78.667 92 155.5 163.833 230.5 215.5s138.833 77.5 191.5 77.5c48 0 84.167 -15.5 108.5 -46.5s36.5 -76.833 36.5 -137.5c0 -34.667 -8 -140.667 -24 -318
s-28.667 -337 -38 -479l-256 -10c16.667 150.667 29.834 283.167 39.501 397.5s14.5 193.5 14.5 237.5c0 51.333 -7.83301 90.333 -23.5 117s-38.5 40 -68.5 40c-53.333 0 -108 -76.833 -164 -230.5s-87.333 -337.5 -94 -551.5z" />
    <glyph glyph-name="o" unicode="o" horiz-adv-x="995" 
d="M672 172c16.667 36.667 29.332 75.5 37.999 116.5s13 82.833 13 125.5c0 123.333 -27.833 219.333 -83.5 288s-133.5 103 -233.5 103c-15.333 0 -30.333 -1.5 -45 -4.5s-30 -7.83301 -46 -14.5c-27.333 -43.333 -48.166 -89.5 -62.499 -138.5
s-21.5 -100.167 -21.5 -153.5c0 -110.667 26 -197.167 78 -259.5s123.667 -93.5 215 -93.5c28 0 54.333 2.66699 79 8s47.667 13 69 23zM816.998 188c-30.667 -29.333 -70.332 -60.3311 -118.999 -92.998s-106 -66.334 -172 -101.001
c-19.333 -11.333 -40.833 -19.666 -64.5 -24.999s-53.167 -8 -88.5 -8c-116.667 0 -206 32.5 -268 97.5s-93 158.833 -93 281.5c0 153.333 34.167 277 102.5 371s186.166 179 353.499 255c15.333 5.33301 32.833 9.16602 52.5 11.499s41.5 3.5 65.5 3.5
c111.333 0 197.833 -35.333 259.5 -106s92.5 -169.667 92.5 -297c0 -76.667 -10.167 -147.834 -30.5 -213.501s-50.5 -124.5 -90.5 -176.5z" />
    <glyph glyph-name="p" unicode="p" horiz-adv-x="1020" 
d="M305 154c22 -12 46.499 -20.832 73.499 -26.499s56.5 -8.5 88.5 -8.5c31.333 0 59.333 2.33301 84 7s48 11.667 70 21c30.667 57.333 54.334 117.166 71.001 179.499s25 123.5 25 183.5c0 78.667 -13.167 145.167 -39.5 199.5s-54.833 81.5 -85.5 81.5
c-22 0 -56.5 -23.5 -103.5 -70.5s-85.5 -101.5 -115.5 -163.5c-32.667 -68 -55 -196 -67 -384c0 -8 -0.333008 -14.333 -1 -19zM124.999 944.001l259.999 8.00098l-37 -264c100 100 183 173.833 249 221.5s118.333 71.5 157 71.5c53.333 0 100 -35 140 -105
s60 -156.667 60 -260c0 -98 -18.167 -190 -54.5 -276s-84.166 -151.667 -143.499 -197c-72 -54 -142.833 -97.833 -212.5 -131.5s-121.834 -50.5 -156.501 -50.5c-12 0 -25.667 0.833008 -41 2.5s-33 4.16699 -53 7.5c-6.66699 -66 -12.667 -135.333 -18 -208
s-10.333 -151.334 -15 -236.001l-258 -10l15 156c16.667 166 28.667 292 36 378c-13.333 8.66699 -26.666 19 -39.999 31s-26 25 -38 39l93 92c8.66699 98.667 17.5 206.167 26.5 322.5z" />
    <glyph glyph-name="q" unicode="q" horiz-adv-x="1006" 
d="M662 786c-44 16 -83.499 27.5 -118.499 34.5s-68.167 10.5 -99.5 10.5c-26.667 0 -50.834 -3 -72.501 -9s-35.5 -13 -41.5 -21c-22.667 -32 -42 -81.333 -58 -148s-24 -135.667 -24 -207c0 -84.667 15 -155.667 45 -213s64.667 -86 104 -86c20 0 50 21.167 90 63.5
s75.667 93.833 107 154.5c38 71.333 60.333 210 67 416zM541.001 -483c8.66699 96 20.001 206.5 34.001 331.5s30 260.833 48 407.5c-73.333 -88.667 -144 -160 -212 -214s-118.333 -81 -151 -81c-66 0 -124.167 35.167 -174.5 105.5s-75.5 156.833 -75.5 259.5
c0 88 14 175.833 42 263.5s60.667 151.167 98 190.5c11.333 12 32.166 27.5 62.499 46.5s67.5 39.833 111.5 62.5c56.667 29.333 109.334 52 158.001 68s88.667 24 120 24c61.333 0 124.666 -13.5 189.999 -40.5s132.333 -67.5 201 -121.5l-94 -96
c-28.667 -316 -51.167 -573 -67.5 -771s-26.5 -339.667 -30.5 -425z" />
    <glyph glyph-name="r" unicode="r" horiz-adv-x="721" 
d="M39 -10c11.333 101.333 23.667 229.167 37 383.5s28.333 344.5 45 570.5l254 8c-6.66699 -48.667 -12.667 -98 -18 -148s-11.666 -115.333 -18.999 -196l37 79c92 196 158 294 198 294c18 0 42 -7.5 72 -22.5s62.667 -36.167 98 -63.5l-141 -268
c-22.667 16.667 -45.667 30 -69 40s-43.333 15 -60 15c-36.667 0 -74.834 -66.667 -114.501 -200s-61.5 -294 -65.5 -482z" />
    <glyph glyph-name="s" unicode="s" horiz-adv-x="786" 
d="M6 76l186.999 184.003c42 -41.333 82.833 -71.833 122.5 -91.5s79.834 -29.5 120.501 -29.5c17.333 0 32.666 1.66699 45.999 5s25.333 8.66602 36 15.999v14c0 60 -62 118 -186 174c-8.66699 4 -14.667 6.66699 -18 8c-2.66699 1.33301 -5.66699 2.66602 -9 3.99902
c-166.667 74 -250 148.667 -250 224c0 40 11 83 33 129s54 93 96 141c38.667 43.333 79 75.333 121 96s87.667 31 137 31s97.833 -9.16699 145.5 -27.5s92.834 -45.5 135.501 -81.5l-186 -180c-44 33.333 -87 58.5 -129 75.5s-83 25.5 -123 25.5
c-12.667 0 -24.5 -1.16699 -35.5 -3.5s-21.167 -5.5 -30.5 -9.5c0 -2 -0.333008 -4.66699 -1 -8s-1 -6 -1 -8c0 -29.333 11.667 -55.333 35 -78s72.333 -51.334 147 -86.001l53 -25c154.667 -73.333 232 -149 232 -227c0 -40 -11.667 -83.833 -35 -131.5
s-56 -93.834 -98 -138.501c-35.333 -37.333 -75 -66.166 -119 -86.499s-89 -30.5 -135 -30.5c-50.667 0 -99.667 9.33301 -147 28s-95.333 47.667 -144 87z" />
    <glyph glyph-name="t" unicode="t" horiz-adv-x="649" 
d="M571 217l29.001 -39c-79.333 -64 -155.833 -116.167 -229.5 -156.5s-124.834 -60.5 -153.501 -60.5c-45.333 0 -78.166 12.333 -98.499 37s-30.5 65 -30.5 121c0 48 5.33301 137 16 267s25 274.333 43 433h-102l135 133l29 164l266 154
c-12.667 -59.333 -23.834 -115.833 -33.501 -169.5s-17.5 -105.5 -23.5 -155.5l254 7l-144 -137l-125 4c-17.333 -114 -30.833 -216.667 -40.5 -308s-14.5 -160 -14.5 -206c0 -52.667 6 -89.667 18 -111s32.667 -32 62 -32c16.667 0 37.5 4.66699 62.5 14s51.833 23 80.5 41
z" />
    <glyph glyph-name="u" unicode="u" horiz-adv-x="985" 
d="M582 -10l31.999 266c-79.333 -92.667 -156.166 -165 -230.499 -217s-137.166 -78 -188.499 -78c-49.333 0 -86 15.833 -110 47.5s-36 80.167 -36 145.5c0 30 7.83301 133.333 23.5 310s28.5 336.667 38.5 480l256 8c-16.667 -148 -29.834 -279.333 -39.501 -394
s-14.5 -195 -14.5 -241c0 -51.333 7.66699 -90 23 -116s37.666 -39 66.999 -39c53.333 0 108.333 76.833 165 230.5s88.667 337.5 96 551.5l256 8c-13.333 -112.667 -27.166 -249.5 -41.499 -410.5s-28.5 -341.5 -42.5 -541.5z" />
    <glyph glyph-name="v" unicode="v" horiz-adv-x="952" 
d="M109 944l262.002 8.00195c-22.667 -134.667 -40.667 -256 -54 -364s-20 -184.667 -20 -230c0 -76 17.167 -134.5 51.5 -175.5s83.5 -61.5 147.5 -61.5c8 0 17.167 0.666992 27.5 2s25.5 4 45.5 8c20.667 54 36.167 110.333 46.5 169s15.5 119 15.5 181
c0 86.667 -10 157.667 -30 213s-50.333 95.666 -91 120.999l233 166c42 -39.333 73 -84.5 93 -135.5s30 -108.833 30 -173.5c0 -84 -9.5 -169.5 -28.5 -256.5s-44.167 -162.833 -75.5 -227.5c-6 -12.667 -32.833 -36.5 -80.5 -71.5s-117.834 -82.833 -210.501 -143.5
c-16.667 -4 -34.334 -7 -53.001 -9s-38.667 -3 -60 -3c-101.333 0 -178.833 29.667 -232.5 89s-80.5 145 -80.5 257c0 37.333 5 105.666 15 204.999s26.333 243.333 49 432z" />
    <glyph glyph-name="w" unicode="w" horiz-adv-x="1380" 
d="M109 944l261.998 8.00195c-24 -136 -42.333 -257.667 -55 -365s-19 -191 -19 -251c0 -69.333 15.167 -121.5 45.5 -156.5s75.833 -52.5 136.5 -52.5c7.33301 0 15.833 1.16699 25.5 3.5s24.5 7.16602 44.5 14.499c-8.66699 22.667 -15 47.5 -19 74.5s-6 56.167 -6 87.5
c0 52.667 20 253.334 60 602.001l4 35l260 8c-23.333 -137.333 -41.5 -260 -54.5 -368s-19.5 -191.333 -19.5 -250c0 -70 15 -122 45 -156s75 -51 135 -51c6 0 12.667 0.333008 20 1l33 3c20.667 54 36.167 110.333 46.5 169s15.5 119 15.5 181
c0 86.667 -10 157.667 -30 213s-50.333 95.666 -91 120.999l234 166c41.333 -39.333 72.166 -84.5 92.499 -135.5s30.5 -108.833 30.5 -173.5c0 -84 -9.5 -169.5 -28.5 -256.5s-44.5 -162.833 -76.5 -227.5c-6 -12.667 -32.667 -36.5 -80 -71.5
s-117.666 -82.833 -210.999 -143.5c-15.333 -4 -30.666 -7 -45.999 -9s-30.666 -3 -45.999 -3c-50 0 -95.167 10.333 -135.5 31s-75.833 52 -106.5 94l-142 -114c-22 -4 -40.667 -6.83301 -56 -8.5s-28.333 -2.5 -39 -2.5c-90.667 0 -162.167 30.833 -214.5 92.5
s-78.5 146.167 -78.5 253.5c0 37.333 5 105.666 15 204.999s26.333 243.333 49 432z" />
    <glyph glyph-name="x" unicode="x" horiz-adv-x="948" 
d="M-39 45l141.003 231c21.333 -16 42.833 -28.5 64.5 -37.5s41.834 -13.5 60.501 -13.5c19.333 0 37.333 6.5 54 19.5s31 31.833 43 56.5l34 70l-321 538l244 66l198 -346l35 76c52 110 95.667 183.5 131 220.5s75.666 55.5 120.999 55.5c22.667 0 46.5 -6.66699 71.5 -20
s50.167 -32.666 75.5 -57.999l-157 -247c-13.333 16.667 -28 29.334 -44 38.001s-33.667 13 -53 13s-37.5 -7.83301 -54.5 -23.5s-34.167 -40.167 -51.5 -73.5l-27 -49l172 -282c25.333 -41.333 49.5 -71.833 72.5 -91.5s46.167 -29.5 69.5 -29.5
c3.33301 0 9.66602 1 18.999 3c2 0 3.66699 0.333008 5 1l15 -35l-254 -166c-14.667 9.33301 -32.167 27.5 -52.5 54.5s-42.5 61.5 -66.5 103.5l-100 176l-72 -139c-34.667 -68.667 -67.834 -118.334 -99.501 -149.001s-64.834 -46 -99.501 -46
c-24.667 0 -51.667 7.16699 -81 21.5s-60.333 35.166 -93 62.499z" />
    <glyph glyph-name="y" unicode="y" horiz-adv-x="958" 
d="M31 -375l186 187.001c40 -42.667 78.5 -74.5 115.5 -95.5s73.5 -31.5 109.5 -31.5c2 0 5.5 0.333008 10.5 1s8.5 1 10.5 1c34 42 60.667 107.667 80 197s32.333 208 39 356c-79.333 -94 -151 -164 -215 -210s-121.333 -69 -172 -69
c-48.667 0 -84.834 15.833 -108.501 47.5s-35.5 80.167 -35.5 145.5c0 30 7.83301 133.333 23.5 310s28.5 336.667 38.5 480l256 8c-16.667 -152 -30.167 -287.333 -40.5 -406s-15.5 -197 -15.5 -235c0 -44.667 7.33301 -78 22 -100s36.667 -33 66 -33
c22 0 48.667 23.333 80 70s66.333 115 105 205c9.33301 55.333 17.833 122.666 25.5 201.999s14.834 175.666 21.501 288.999l256 8c-15.333 -137.333 -31.666 -316.333 -48.999 -537c-26 -321.333 -55.333 -513.666 -88 -576.999c-13.333 -26 -36 -53.667 -68 -83
s-81.667 -67 -149 -113c-64.667 -43.333 -121.334 -75 -170.001 -95s-92.667 -30 -132 -30c-37.333 0 -72.833 9 -106.5 27s-65.5 45 -95.5 81z" />
    <glyph glyph-name="z" unicode="z" horiz-adv-x="807" 
d="M-12 0l142 213.5l77 116.5l278 420l-413 -2l102 204l259 -5.5c76 -1.66699 129 -2.5 159 -2.5h186l-116.5 -163l-139.5 -206l-241 -364l487 -2l-145 -219c-107.333 4 -190 6.66699 -248 8s-106 2 -144 2h-243z" />
    <glyph glyph-name="braceleft" unicode="{" 
d="M874 1477l0.00390625 -178.998c-5.33301 0 -13.333 0.333008 -24 1s-18.334 1 -23.001 1c-72.667 0 -121.834 -13.833 -147.501 -41.5s-38.5 -85.5 -38.5 -173.5v-241c0 -103.333 -14.667 -176.833 -44 -220.5s-82.333 -74.834 -159 -93.501
c76 -18 128.833 -48.833 158.5 -92.5s44.5 -117.167 44.5 -220.5v-240c0 -88 13.167 -146.167 39.5 -174.5s75.833 -42.5 148.5 -42.5c4.66699 0 12 0.333008 22 1s17.667 1 23 1v-176h-63c-68 0 -123.167 4 -165.5 12s-77.833 20.333 -106.5 37
c-38 22.667 -64.667 54.667 -80 96s-23 109 -23 203v248c0 96 -17.5 163.667 -52.5 203s-94.5 59 -178.5 59c-4.66699 0 -11.834 -0.333008 -21.501 -1s-16.834 -1 -21.501 -1v179c4.66699 0 11.834 -0.5 21.501 -1.5s16.834 -1.5 21.501 -1.5c84 0 143.5 19.667 178.5 59
s52.5 106.666 52.5 201.999v247c0 96.667 7.66699 165.5 23 206.5s42 72.5 80 94.5c29.333 18 65.666 30.833 108.999 38.5s103.666 11.5 180.999 11.5h45z" />
    <glyph glyph-name="bar" unicode="|" 
d="M424 1565h178v-2048h-178v2048z" />
    <glyph glyph-name="braceright" unicode="}" 
d="M152 1477h45.001c76.667 0 136.5 -3.83301 179.5 -11.5s79.167 -20.5 108.5 -38.5c38 -22 64.667 -53.667 80 -95s23 -110 23 -206v-247c0 -96 17.333 -163.5 52 -202.5s94.334 -58.5 179.001 -58.5c4 0 11 0.5 21 1.5s17.333 1.5 22 1.5v-179
c-4.66699 0 -11.834 0.333008 -21.501 1s-16.834 1 -21.501 1c-84 0 -143.5 -19.667 -178.5 -59s-52.5 -107 -52.5 -203v-248c0 -95.333 -7.66699 -163.333 -23 -204s-42 -72.334 -80 -95.001c-28.667 -17.333 -64.667 -29.833 -108 -37.5s-103.333 -11.5 -180 -11.5h-45
v176c5.33301 0 13 -0.333008 23 -1s17.333 -1 22 -1c72.667 0 121.834 14 147.501 42s38.5 86.333 38.5 175v240c0 102 15 175 45 219s83.333 75.333 160 94c-76.667 18.667 -130 49.834 -160 93.501s-45 117.167 -45 220.5v241c0 88 -12.667 145.833 -38 173.5
s-74 41.5 -146 41.5c-4.66699 0 -12.334 -0.333008 -23.001 -1s-18.667 -1 -24 -1v179z" />
    <glyph glyph-name="asciitilde" unicode="~" horiz-adv-x="1706" 
d="M1530 784l-0.000976562 -184.002c-68.667 -47.333 -134.5 -82.666 -197.5 -105.999s-124.167 -35 -183.5 -35c-29.333 0 -60.166 2.83301 -92.499 8.5s-65.166 14.5 -98.499 26.5c-16.667 5.33301 -42 14 -76 26c-141.333 49.333 -247.666 74 -318.999 74
c-54.667 0 -112.667 -12.667 -174 -38s-131.666 -66 -210.999 -122v187c70.667 48 138 83.833 202 107.5s125.667 35.5 185 35.5c41.333 0 83.166 -4 125.499 -12s98.5 -24 168.5 -48c8.66699 -2.66699 22.667 -7.66699 42 -15c109.333 -38.667 192.666 -58 249.999 -58
c56.667 0 115.667 12.333 177 37s128.666 63.334 201.999 116.001z" />
    <glyph glyph-name="nonbreakingspace" unicode="&#xa0;" horiz-adv-x="1118" 
 />
    <glyph glyph-name="exclamdown" unicode="&#xa1;" horiz-adv-x="631" 
d="M393 1051c-7.33301 -149.333 -12.833 -286.501 -16.5 -411.501s-5.5 -241.167 -5.5 -348.5c0 -47.333 0.666992 -95.833 2 -145.5s3.33301 -101.5 6 -155.5l-234 -29c24 164.667 47 333.834 69 507.501s43.667 356.167 65 547.5zM346 1126
c-34 42.667 -62.167 76.832 -84.5 102.499s-43.833 48.834 -64.5 69.501l92 77.5l82 74.5c18 -24.667 38.333 -50.167 61 -76.5s52 -58.166 88 -95.499c-36.667 -27.333 -69.167 -53.333 -97.5 -78s-53.833 -49.334 -76.5 -74.001z" />
    <glyph glyph-name="cent" unicode="&#xa2;" horiz-adv-x="1118" 
d="M563 471l53 623.002c-3.33301 0.666992 -8 1.66699 -14 3c-41.333 10 -69.333 15 -84 15s-25 -1.33301 -31 -4s-10.667 -7.33398 -14 -14.001c-26 -52.667 -45.833 -107.334 -59.5 -164.001s-20.5 -114 -20.5 -172c0 -74 14.333 -135.167 43 -183.5
s71 -82.833 127 -103.5zM512 -38.998c8.66699 66 16.002 128.996 22.002 188.996c0 2.66699 0.333008 4.66699 1 6l8 86c-122.667 16 -217.167 60.833 -283.5 134.5s-99.5 170.167 -99.5 289.5c0 78 13.667 157.833 41 239.5s62.666 149.834 105.999 204.501
c10 12 70.333 40.667 181 86l92 37c5.33301 1.33301 11.5 2.33301 18.5 3s17.833 1 32.5 1c4 36 7 70.667 9 104s3 64.333 3 93l106 16c-2 -14.667 -4 -30.167 -6 -46.5s-4.66699 -40.5 -8 -72.5l-8 -98c51.333 -5.33301 100 -19 146 -41s90.333 -53.333 133 -94l-156 -144
c-21.333 22.667 -43.333 42.334 -66 59.001s-47 31.334 -73 44.001l-56 -619c17.333 -4 34.333 -7 51 -9s32.667 -3 48 -3c24 0 49.5 2.83301 76.5 8.5s56.167 14.5 87.5 26.5l22 -41l-229 -178c-5.33301 -3.33301 -11.333 -5.66602 -18 -6.99902s-15 -2 -25 -2
c-2.66699 0 -7.33398 0.5 -14.001 1.5s-11.667 1.5 -15 1.5l-10 -113c-0.666992 -3.33301 -1 -8 -1 -14c-3.33301 -44 -5 -81.667 -5 -113z" />
    <glyph glyph-name="sterling" unicode="&#xa3;" horiz-adv-x="1118" 
d="M319 633h-195.999l8 102h199c10 103.333 24.5 192.333 43.5 267s41.833 135.334 68.5 182.001l97 87c154.667 140 256.334 210 305.001 210c55.333 0 113.5 -16.667 174.5 -50s118.167 -80.333 171.5 -141l-195 -176c-51.333 61.333 -99.333 106.666 -144 135.999
s-87.334 44 -128.001 44h-16c-38 -27.333 -67.5 -84.5 -88.5 -171.5s-36.167 -216.167 -45.5 -387.5h222l-9 -102h-221c-10 -80 -19 -138.333 -27 -175s-17.333 -63 -28 -79c-12.667 -20.667 -36.834 -44 -72.501 -70s-80.5 -53.333 -134.5 -82h428
c50.667 0 94.5 0.833008 131.5 2.5s70.833 4.16699 101.5 7.5l-63 -237h-864l63 209c77.333 18 130.833 51.5 160.5 100.5s49.167 156.833 58.5 323.5z" />
    <glyph glyph-name="currency" unicode="&#xa4;" horiz-adv-x="1241" 
d="M623 1176c-80 0 -148.499 -28.667 -205.499 -86s-85.5 -125.666 -85.5 -204.999c0 -80 28.167 -148.167 84.5 -204.5s125.166 -84.5 206.499 -84.5c80.667 0 149.167 28.167 205.5 84.5s84.5 124.5 84.5 204.5c0 79.333 -28.5 147.666 -85.5 204.999
s-125.167 86 -204.5 86zM168.001 1430l203.002 -203c36.667 27.333 75.667 47.833 117 61.5s85.666 20.5 132.999 20.5s92 -6.83301 134 -20.5s81 -34.167 117 -61.5l203 203l94 -93l-204 -204c26 -36 45.667 -74.833 59 -116.5s20 -85.5 20 -131.5
c0 -46.667 -6.66699 -90.834 -20 -132.501s-33 -80.167 -59 -115.5l204 -205l-94 -92l-203 205c-38 -28 -77.333 -48.667 -118 -62s-84.334 -20 -131.001 -20c-48 0 -93 6.83301 -135 20.5s-81 34.167 -117 61.5l-203 -205l-92 92l203 205
c-26.667 35.333 -46.667 73.833 -60 115.5s-20 85.834 -20 132.501c0 46 6.66699 89.833 20 131.5s33.333 80.5 60 116.5l-203 204z" />
    <glyph glyph-name="yen" unicode="&#xa5;" horiz-adv-x="1118" 
d="M596 676l86 192h-141zM365 -10l27.999 284.5l27 300.5h-363l9 97h344l-70 192h-256l8 97h215l-83 220l-105 269l272 29c10.667 -48.667 31.667 -133 63 -253l33 -132l37 -133h195l78 163l81 179l64 147l207 20l-31 -49l-229 -379l-49 -81h237l-8 -97h-281l-112 -192h377
l-9 -97h-393c-9.33301 -80 -18.166 -167.333 -26.499 -262s-16.5 -199 -24.5 -313z" />
    <glyph glyph-name="brokenbar" unicode="&#xa6;" 
d="M424 408h178v-758h-178v758zM424 1432h178v-758h-178v758z" />
    <glyph glyph-name="section" unicode="&#xa7;" 
d="M309 891c-28 -13.333 -49.667 -30.833 -65 -52.5s-23 -46.5 -23 -74.5c0 -50.667 78.667 -123 236 -217c100 -59.333 180.333 -110 241 -152c28 13.333 49.667 31 65 53s23 46.667 23 74c0 50.667 -85.333 127.667 -256 231zM74 63l166.004 82.0039
c23.333 -70.667 57.166 -122.667 101.499 -156s101.833 -50 172.5 -50c14.667 0 29.667 1.5 45 4.5s31.666 7.5 48.999 13.5c15.333 15.333 26.666 32.666 33.999 51.999s11 41 11 65c0 48 -19 93.667 -57 137s-108.333 96 -211 158c-26 16 -62.333 37 -109 63
c-150 85.333 -225 168.666 -225 249.999c0 49.333 16.667 94.666 50 135.999s85.666 82 156.999 122c-22 27.333 -38.333 55 -49 83s-16 57.667 -16 89c0 44 10.5 85.667 31.5 125s54.167 78.333 99.5 117c53.333 46.667 100.333 79.167 141 97.5s84.334 27.5 131.001 27.5
c76.667 0 139.5 -22.167 188.5 -66.5s79.833 -106.833 92.5 -187.5l-166 -80c-12.667 67.333 -38.834 117.666 -78.501 150.999s-93.5 50 -161.5 50c-10 0 -20.667 -1.16699 -32 -3.5s-24 -5.5 -38 -9.5c-16 -17.333 -28.167 -35.833 -36.5 -55.5
s-12.5 -40.834 -12.5 -63.501c0 -47.333 17.333 -91.5 52 -132.5s98 -89.5 190 -145.5l156.5 -89.5c56.333 -31 87.833 -48.833 94.5 -53.5c40 -28.667 67.833 -56.667 83.5 -84s23.5 -60.333 23.5 -99c0 -50.667 -15 -96.167 -45 -136.5s-85.333 -84.166 -166 -131.499
c22 -22.667 38.833 -48.5 50.5 -77.5s17.5 -58.5 17.5 -88.5c0 -48 -9.33301 -90.5 -28 -127.5s-51 -75.167 -97 -114.5c-54.667 -47.333 -102.667 -80.333 -144 -99s-86 -28 -134 -28c-92 0 -164.833 20.833 -218.5 62.5s-91.5 106.167 -113.5 193.5z" />
    <glyph glyph-name="dieresis" unicode="&#xa8;" 
d="M801 1407c18 -25.333 38.166 -51.166 60.499 -77.499s48.5 -55.166 78.5 -86.499c-32.667 -24.667 -62.5 -48.334 -89.5 -71.001s-52.5 -45.334 -76.5 -68.001c-22 31.333 -44.5 60.5 -67.5 87.5s-46.167 52.5 -69.5 76.5c32.667 23.333 62.334 46.333 89.001 69
s51.667 46 75 70zM394.999 1407c16.667 -22.667 35.668 -46.665 57.001 -71.998s49.666 -56 84.999 -92c-33.333 -24.667 -63.5 -48.334 -90.5 -71.001s-52.167 -45.334 -75.5 -68.001c-20.667 28.667 -42.667 56.667 -66 84s-48 54 -74 80
c32.667 23.333 62.5 46.333 89.5 69s51.833 46 74.5 70z" />
    <glyph glyph-name="copyright" unicode="&#xa9;" horiz-adv-x="1706" 
d="M1206 903h-166.001c-6.66699 49.333 -26.667 87.333 -60 114s-76.666 40 -129.999 40c-66 0 -117.667 -28.833 -155 -86.5s-56 -137.5 -56 -239.5c0 -101.333 19.167 -179.5 57.5 -234.5s92.833 -82.5 163.5 -82.5c53.333 0 96.333 14.5 129 43.5s52.667 70.5 60 124.5
h165c-4.66699 -90 -40.167 -162.333 -106.5 -217s-150.833 -82 -253.5 -82c-122 0 -218.667 39.667 -290 119s-107 187 -107 323c0 138.667 36.5 249.167 109.5 331.5s170.167 123.5 291.5 123.5c98 0 179 -25.667 243 -77s99 -118 105 -200zM853.999 1362
c-86.667 0 -167.667 -15.5 -243 -46.5s-142.333 -76.167 -201 -135.5c-60 -61.333 -106.167 -130.666 -138.5 -207.999s-48.5 -157.666 -48.5 -240.999c0 -84 16 -164 48 -240s78.333 -144 139 -204c60 -60.667 128.167 -107 204.5 -139s156.166 -48 239.499 -48
s163.333 16.167 240 48.5s146.334 79.166 209.001 140.499c59.333 58.667 104.5 125.5 135.5 200.5s46.5 155.5 46.5 241.5s-15.667 167.167 -47 243.5s-76.333 144.166 -135 203.499c-60.667 60 -129 105.667 -205 137s-157.333 47 -244 47zM851.999 1470
c101.333 0 196.664 -18.335 285.997 -55.002s169.333 -90.667 240 -162c70 -70 123.333 -149.5 160 -238.5s55 -183.5 55 -283.5c0 -102 -18.167 -197.333 -54.5 -286s-89.166 -166.667 -158.499 -234c-72 -71.333 -153.5 -126 -244.5 -164s-185.5 -57 -283.5 -57
c-97.333 0 -190.666 18.833 -279.999 56.5s-169.333 91.834 -240 162.501c-71.333 70.667 -125.666 150.834 -162.999 240.501s-56 183.5 -56 281.5c0 96.667 19 190.167 57 280.5s92.667 171.5 164 243.5c70 71.333 148.5 125 235.5 161s181.167 54 282.5 54z" />
    <glyph glyph-name="ordfeminine" unicode="&#xaa;" horiz-adv-x="715" 
d="M453 1300c-23.333 13.333 -45.668 23.167 -67.001 29.5s-42 9.5 -62 9.5c-17.333 0 -32 -1.83301 -44 -5.5s-20 -8.5 -24 -14.5c-19.333 -24 -34.666 -59.167 -45.999 -105.5s-17 -97.833 -17 -154.5c0 -53.333 7.83301 -96 23.5 -128s36.5 -48 62.5 -48
c15.333 0 38.5 22.5 69.5 67.5s57.5 98.833 79.5 161.5c9.33301 28 17.333 88 24 180zM397.998 758.001c1.33301 14 4.83301 41.668 10.5 83.001s10.167 75.666 13.5 102.999c-57.333 -64.667 -109.833 -115.334 -157.5 -152.001s-84.5 -55 -110.5 -55
c-36 0 -68.667 25.333 -98 76s-44 111.334 -44 182.001c0 61.333 11.667 122.166 35 182.499s52 106.166 86 137.499c9.33301 6.66699 27.333 17.834 54 33.501s56.334 31.834 89.001 48.501c32 17.333 62 30.5 90 39.5s52.667 13.5 74 13.5
c51.333 0 97.666 -9.66699 138.999 -29s77 -48 107 -86l-49 -22l-31 -340c-8 -90 -14 -159.667 -18 -209z" />
    <glyph glyph-name="guillemotleft" unicode="&#xab;" horiz-adv-x="948" 
d="M872 791l-268 -291l219 -291l-164 -96l-253 336l393 382zM494 791l-269 -291l219 -291l-163 -96l-254 336l391 382z" />
    <glyph glyph-name="logicalnot" unicode="&#xac;" horiz-adv-x="1706" 
d="M254 862h1198v-502h-166v336h-1032v166z" />
    <glyph glyph-name="sfthyphen" unicode="&#xad;" horiz-adv-x="526" 
d="M14 379l86 194h369l-86 -194h-369z" />
    <glyph glyph-name="registered" unicode="&#xae;" horiz-adv-x="1706" 
d="M729 1047l-0.000976562 -261h117c66.667 0 115.334 10.167 146.001 30.5s46 52.5 46 96.5c0 46 -16 79.833 -48 101.5s-82.667 32.5 -152 32.5h-109zM550.999 1159l319.001 0.00195312c115.333 0 202.666 -19 261.999 -57s89 -94 89 -168
c0 -60.667 -16 -110.834 -48 -150.501s-77.667 -65.834 -137 -78.501l185 -375h-199l-164 346h-129v-346h-178v829zM854 1362c-86 0 -166.001 -15.168 -240.001 -45.501s-140.667 -75.166 -200 -134.499c-61.333 -62.667 -108.5 -132.667 -141.5 -210
s-49.5 -157.666 -49.5 -240.999s15.667 -162.833 47 -238.5s76.666 -143.5 135.999 -203.5c60 -60.667 128 -107.334 204 -140.001s154 -49 234 -49c86.667 0 168.834 15.667 246.501 47s147.5 77.333 209.5 138c59.333 57.333 105 123.5 137 198.5s48 154.167 48 237.5
c0 88.667 -15.167 171.167 -45.5 247.5s-75.166 144.833 -134.499 205.5c-62 61.333 -131.167 108 -207.5 140s-157.5 48 -243.5 48zM851.999 1470c102 0 198.167 -18.6689 288.5 -56.002s170.833 -92.333 241.5 -165c68.667 -69.333 121 -148.166 157 -236.499
s54 -182.166 54 -281.499c0 -102 -18.5 -197.667 -55.5 -287s-90.833 -168.333 -161.5 -237c-72 -70 -153 -123.667 -243 -161s-183.667 -56 -281 -56c-98 0 -192.167 19.167 -282.5 57.5s-170.833 93.5 -241.5 165.5c-70 70.667 -123.333 150.334 -160 239.001
s-55 181.667 -55 279c0 98 19.167 192.667 57.5 284s93.5 173 165.5 245c69.333 69.333 147.5 121.666 234.5 156.999s180.833 53 281.5 53z" />
    <glyph glyph-name="macron" unicode="&#xaf;" 
d="M326 1329h553l-31 -147h-553z" />
    <glyph glyph-name="degree" unicode="&#xb0;" horiz-adv-x="674" 
d="M338 1350c-51.333 0 -95.166 -17.998 -131.499 -53.998s-54.5 -79.667 -54.5 -131c0 -50.667 18.167 -94.334 54.5 -131.001s80.166 -55 131.499 -55s94.833 18.167 130.5 54.5s53.5 80.166 53.5 131.499s-17.833 95 -53.5 131s-79.167 54 -130.5 54zM338 1460
c80.667 0 150 -28.999 208 -86.999s87 -128 87 -210c0 -80.667 -29 -150 -87 -208s-128 -87 -210 -87s-151.333 28.5 -208 85.5s-85 126.833 -85 209.5c0 83.333 28.667 153.666 86 210.999s127 86 209 86z" />
    <glyph glyph-name="plusminus" unicode="&#xb1;" horiz-adv-x="1706" 
d="M254 182h1198v-168h-1198v168zM768 1206h170v-334h514v-165h-514v-334h-170v334h-514v165h514v334z" />
    <glyph glyph-name="twosuperior" unicode="&#xb2;" horiz-adv-x="737" 
d="M16 578l41 124.001l119 39c4.66699 2 10.334 4 17.001 6c52 18 84.667 31.667 98 41c54 42 95.833 90.333 125.5 145s44.5 110.334 44.5 167.001c0 70 -22.833 127.333 -68.5 172s-104.167 67 -175.5 67c-18.667 0 -37.334 -2.16699 -56.001 -6.5
s-37.667 -10.833 -57 -19.5l-18 22l123 113c19.333 5.33301 38.666 9.33301 57.999 12s38.333 4 57 4c86 0 155.833 -26.5 209.5 -79.5s80.5 -121.833 80.5 -206.5c0 -94.667 -29.667 -181.834 -89 -261.501s-145 -146.834 -257 -201.501h160c47.333 0 81.833 0.5 103.5 1.5
s40.834 2.5 57.501 4.5l-42 -143h-531z" />
    <glyph glyph-name="threesuperior" unicode="&#xb3;" horiz-adv-x="737" 
d="M68 676l133 97.999c27.333 -36 57.166 -63 89.499 -81s66.5 -27 102.5 -27h10c12 14.667 20.833 31 26.5 49s8.5 36.333 8.5 55c0 60.667 -20.833 108.667 -62.5 144s-98.5 53 -170.5 53c-11.333 0 -20.333 -0.333008 -27 -1s-13.334 -1.66699 -20.001 -3l-8 12l114 104
c6 0 14.167 0.333008 24.5 1s17.833 1 22.5 1c14.667 0 28.334 -0.666992 41.001 -2s24.334 -3.33301 35.001 -6c17.333 18 30.5 38 39.5 60s13.5 44.333 13.5 67c0 49.333 -14.333 86.333 -43 111s-71.667 37 -129 37c-11.333 0 -25.333 -1.5 -42 -4.5
s-36 -7.16699 -58 -12.5l-12 19l127 104c12 3.33301 25 5.83301 39 7.5s30.333 2.5 49 2.5c72 0 128.833 -17 170.5 -51s62.5 -80.333 62.5 -139c0 -55.333 -13.167 -100.5 -39.5 -135.5s-67.833 -62.167 -124.5 -81.5c55.333 -20.667 97.166 -50.834 125.499 -90.501
s42.5 -87.5 42.5 -143.5c0 -41.333 -9.5 -76.666 -28.5 -105.999s-49.833 -56.666 -92.5 -81.999c-42 -26 -80.167 -45.833 -114.5 -59.5s-62.166 -20.5 -83.499 -20.5c-40.667 0 -80 10.333 -118 31s-72.333 50.667 -103 90z" />
    <glyph glyph-name="acute" unicode="&#xb4;" 
d="M633 1442h213l-303 -350h-131z" />
    <glyph glyph-name="mu" unicode="&#xb5;" horiz-adv-x="1208" 
d="M205 1081h228.999l-125 -635c-4 -19.333 -7 -37.666 -9 -54.999s-3 -33.666 -3 -48.999c0 -64 15.5 -112.833 46.5 -146.5s76.167 -50.5 135.5 -50.5c81.333 0 145.833 29.5 193.5 88.5s84.834 156.5 111.501 292.5l109 555h225l-145 -739
c-6.66699 -32.667 -11.5 -59.834 -14.5 -81.501s-4.5 -38.834 -4.5 -51.501c0 -24 5.16699 -41 15.5 -51s27.833 -15 52.5 -15c8.66699 0 15.5 0.166992 20.5 0.5s9.5 0.833008 13.5 1.5l-32 -159c-21.333 -6 -44.166 -10.333 -68.499 -13s-51.5 -4 -81.5 -4
c-49.333 0 -86.5 10.5 -111.5 31.5s-37.5 52.167 -37.5 93.5v15c-27.333 -44.667 -63.333 -79.5 -108 -104.5s-93.334 -37.5 -146.001 -37.5c-54 0 -99.833 8.66699 -137.5 26s-70.167 45 -97.5 83l-99 -506h-229z" />
    <glyph glyph-name="paragraph" unicode="&#xb6;" 
d="M969 1479v-99h-117v-1380h-129v1380h-168v-1380h-131v784c-112 4 -201.5 37.667 -268.5 101s-100.5 145 -100.5 245c0 105.333 35.667 189.833 107 253.5s166 95.5 284 95.5h523z" />
    <glyph glyph-name="periodcentered" unicode="&#xb7;" horiz-adv-x="559" 
d="M166 735c0 31.333 11.167 57.999 33.5 79.999s49.5 33 81.5 33c31.333 0 57.833 -10.833 79.5 -32.5s32.5 -48.5 32.5 -80.5c0 -31.333 -11 -58.166 -33 -80.499s-48.333 -33.5 -79 -33.5s-57.5 11.5 -80.5 34.5s-34.5 49.5 -34.5 79.5z" />
    <glyph glyph-name="cedilla" unicode="&#xb8;" 
d="M428 0l90 0.000976562l-33 -94h9c74 0 130.333 -14.5 169 -43.5s58 -71.167 58 -126.5c0 -68 -22 -120.833 -66 -158.5s-105.333 -56.5 -184 -56.5c-35.333 0 -76.166 4.16699 -122.499 12.5s-103.833 21.833 -172.5 40.5l43 111c44.667 -15.333 86 -27 124 -35
s71 -12 99 -12c36.667 0 65.667 8 87 24s32 38 32 66c0 27.333 -11.833 46.666 -35.5 57.999s-65.834 17 -126.501 17h-39z" />
    <glyph glyph-name="onesuperior" unicode="&#xb9;" horiz-adv-x="739" 
d="M240 571c8.66699 67.333 19.1689 165 31.502 293s29.833 319.333 52.5 574l176 26c-16.667 -114 -32.334 -246 -47.001 -396s-28.334 -313.333 -41.001 -490z" />
    <glyph glyph-name="ordmasculine" unicode="&#xba;" horiz-adv-x="748" 
d="M504 885c12.667 24.667 22.333 51.5 29 80.5s10 58.167 10 87.5c0 86.667 -20.833 154 -62.5 202s-100.167 72 -175.5 72c-12 0 -23.333 -1 -34 -3s-22 -5.33301 -34 -10c-20.667 -30 -36.334 -62 -47.001 -96s-16 -70 -16 -108c0 -78 19.333 -138.833 58 -182.5
s92.334 -65.5 161.001 -65.5c19.333 0 38.5 2 57.5 6s36.833 9.66699 53.5 17zM611.999 895c-22 -20.667 -51.665 -42.499 -88.998 -65.499s-80 -46.167 -128 -69.5c-14.667 -8 -30.834 -13.833 -48.501 -17.5s-39.5 -5.5 -65.5 -5.5c-88 0 -155.167 22.667 -201.5 68
s-69.5 110.666 -69.5 195.999c0 108 25.5 194.833 76.5 260.5s139.833 125.167 266.5 178.5c9.33301 3.33301 21 5.83301 35 7.5s31.333 2.5 52 2.5c84 0 149.167 -24.833 195.5 -74.5s69.5 -119.167 69.5 -208.5c0 -52.667 -7.83301 -102.167 -23.5 -148.5
s-38.834 -87.5 -69.501 -123.5z" />
    <glyph glyph-name="guillemotright" unicode="&#xbb;" horiz-adv-x="948" 
d="M414 154l268 288l-221 293l166 96l254 -335l-394 -383zM35 154l268 288l-221 293l166 96l252 -335l-391 -383z" />
    <glyph glyph-name="onequarter" unicode="&#xbc;" horiz-adv-x="1751" 
d="M1466 711l-272 -365h233zM1389 -6l17.501 152.499l12.5 115.5h-344l-12 14l108 142c135.333 176 231.666 304.333 288.999 385l168 24c-8.66699 -59.333 -15.667 -110.166 -21 -152.499s-10 -80.833 -14 -115.5l-20 -213h129l-39 -86l-98 2
c-4 -29.333 -7.5 -64.333 -10.5 -105s-6.5 -93 -10.5 -157zM362.001 -39.001l930 1518h94l-929 -1518h-95zM229.001 628.999c10 78.667 21.668 187.167 35.001 325.5s27.666 299.5 42.999 483.5l170 24c-14.667 -104 -29 -225.5 -43 -364.5s-27.667 -293.167 -41 -462.5z
" />
    <glyph glyph-name="onehalf" unicode="&#xbd;" horiz-adv-x="1751" 
d="M1063 0l39.001 117l112 37c36 11.333 61.167 19.833 75.5 25.5s25.5 11.5 33.5 17.5c51.333 38 91.5 82.667 120.5 134s43.5 103.333 43.5 156c0 66 -21.833 119.833 -65.5 161.5s-99.834 62.5 -168.501 62.5c-17.333 0 -34.666 -2.16699 -51.999 -6.5
s-35.333 -10.5 -54 -18.5l-19 21l117 106c17.333 4.66699 35.166 8.16699 53.499 10.5s37.5 3.5 57.5 3.5c82 0 148.833 -24.667 200.5 -74s77.5 -113.333 77.5 -192c0 -88.667 -28.333 -170 -85 -244s-138.667 -137.333 -246 -190h151c28 0 55 0.5 81 1.5
s50.667 2.5 74 4.5l-40 -133h-506zM362.001 -39l930 1518h94l-929 -1518h-95zM229.001 629c10 78.667 21.668 187.167 35.001 325.5s27.666 299.5 42.999 483.5l170 24c-14.667 -104 -29 -225.5 -43 -364.5s-27.667 -293.167 -41 -462.5z" />
    <glyph glyph-name="threequarters" unicode="&#xbe;" horiz-adv-x="1751" 
d="M1466 711l-272 -365h233zM1389 -6l17.501 152.499l12.5 115.5h-344l-12 14l108 142c135.333 176 231.666 304.333 288.999 385l168 24c-8.66699 -59.333 -15.667 -110.166 -21 -152.499s-10 -80.833 -14 -115.5l-20 -213h129l-39 -86l-98 2
c-4 -29.333 -7.5 -64.333 -10.5 -105s-6.5 -93 -10.5 -157zM362.001 -39.001l930 1518h94l-929 -1518h-95zM66.001 726.999l123.999 92.001c26.667 -33.333 55.667 -58.666 87 -75.999s64 -26 98 -26h10c10.667 14.667 18.834 30.334 24.501 47.001s8.5 33.667 8.5 51
c0 56.667 -20 101.5 -60 134.5s-93.667 49.5 -161 49.5c-6.66699 0 -17.334 -0.666992 -32.001 -2c-6.66699 -0.666992 -11.667 -1.33398 -15 -2.00098l-9 11l111 96c1.33301 0 3.33301 0.333008 6 1c18 2 31 3 39 3s17.167 -0.5 27.5 -1.5s25.833 -3.16699 46.5 -6.5
c15.333 15.333 27.333 33.166 36 53.499s13 41.166 13 62.499c0 47.333 -13.5 82.5 -40.5 105.5s-68.167 34.5 -123.5 34.5c-10.667 0 -23.5 -1.33301 -38.5 -4s-34.167 -7 -57.5 -13l-13 19l123 98c12 2.66699 25 4.66699 39 6s29 2 45 2
c68.667 0 123.167 -15.833 163.5 -47.5s60.5 -74.5 60.5 -128.5c0 -52 -12.833 -94.5 -38.5 -127.5s-65.5 -58.833 -119.5 -77.5c52.667 -19.333 92.834 -47.333 120.501 -84s41.5 -81 41.5 -133c0 -38 -9 -70.5 -27 -97.5s-48 -53.167 -90 -78.5
c-42.667 -24.667 -80 -43.5 -112 -56.5s-57.667 -19.5 -77 -19.5c-38.667 0 -76.167 10 -112.5 30s-68.833 48.333 -97.5 85z" />
    <glyph glyph-name="questiondown" unicode="&#xbf;" horiz-adv-x="868" 
d="M602 1059c1.33301 -8 2.33008 -16.1689 2.99707 -24.502s1 -20.166 1 -35.499c0 -36.667 -9 -73.834 -27 -111.501s-58.667 -95.834 -122 -174.501c-72 -89.333 -120.833 -158.666 -146.5 -207.999s-38.5 -95.333 -38.5 -138c0 -60 23.333 -111.167 70 -153.5
s103.334 -63.5 170.001 -63.5c36.667 0 73.334 7.33301 110.001 22s74.334 37.334 113.001 68.001l33 -27l-170 -205c-29.333 -15.333 -60.5 -27 -93.5 -35s-68.167 -12 -105.5 -12c-110.667 0 -202.167 33 -274.5 99s-108.5 149 -108.5 249c0 50 10.667 97.667 32 143
s58 96 110 152l74 79c112.667 117.333 169 209 169 275c0 8 -1 19.333 -3 34c0 2.66699 -0.333008 4.33398 -1 5.00098zM460.997 1155l-72.5 83l-81.5 89c24.667 19.333 51 41.166 79 65.499l95 86.5c18 -24.667 38.5 -50.167 61.5 -76.5s52.5 -58.166 88.5 -95.499
c-29.333 -20.667 -58 -43.5 -86 -68.5s-56 -52.833 -84 -83.5z" />
    <glyph glyph-name="Agrave" unicode="&#xc0;" horiz-adv-x="1233" 
d="M365 657h370l-162 560zM-74 -10l566 1388l-17 64l281 28l214.5 -744l225.5 -712l-260 -53c-8 32 -17.167 66.833 -27.5 104.5l-48.5 170.5l-76 260h-477l-90 -252l-51 -145c-12 -35.333 -22.333 -68.333 -31 -99zM377 1940h213l207 -350h-119z" />
    <glyph glyph-name="Aacute" unicode="&#xc1;" horiz-adv-x="1233" 
d="M365 657h370l-162 560zM-74 -10l566 1388l-17 64l281 28l214.5 -744l225.5 -712l-260 -53c-8 32 -17.167 66.833 -27.5 104.5l-48.5 170.5l-76 260h-477l-90 -252l-51 -145c-12 -35.333 -22.333 -68.333 -31 -99zM725 1940h213l-303 -350h-131z" />
    <glyph glyph-name="Acircumflex" unicode="&#xc2;" horiz-adv-x="1233" 
d="M365 657h370l-162 560zM-74 -10l566 1388l-17 64l281 28l214.5 -744l225.5 -712l-260 -53c-8 32 -17.167 66.833 -27.5 104.5l-48.5 170.5l-76 260h-477l-90 -252l-51 -145c-12 -35.333 -22.333 -68.333 -31 -99zM749 1936l189 -312l-162 -34l-111 204l-167 -204l-162 34
l264 312h149z" />
    <glyph glyph-name="Atilde" unicode="&#xc3;" horiz-adv-x="1233" 
d="M365 657h370l-162 560zM-74 -10l566 1388l-17 64l281 28l214.5 -744l225.5 -712l-260 -53c-8 32 -17.167 66.833 -27.5 104.5l-48.5 170.5l-76 260h-477l-90 -252l-51 -145c-12 -35.333 -22.333 -68.333 -31 -99zM874 1884h106.999
c-20 -73.333 -47.167 -127.5 -81.5 -162.5s-77.5 -52.5 -129.5 -52.5c-13.333 0 -26.666 1.16699 -39.999 3.5s-26.666 5.5 -39.999 9.5l-57 18c-14 4 -25.333 6.66699 -34 8s-16.667 2 -24 2c-21.333 0 -40 -6.5 -56 -19.5s-28 -32.167 -36 -57.5h-106
c18.667 72 45.5 125.833 80.5 161.5s79.167 53.5 132.5 53.5c12 0 25.167 -1.16699 39.5 -3.5s29.166 -5.5 44.499 -9.5l57 -16l17 -5c16.667 -4.66699 28 -7 34 -7c22 0 40.833 6.66699 56.5 20s27.5 32.333 35.5 57z" />
    <glyph glyph-name="Adieresis" unicode="&#xc4;" horiz-adv-x="1233" 
d="M365 657h370l-162 560zM-74 -10l566 1388l-17 64l281 28l214.5 -744l225.5 -712l-260 -53c-8 32 -17.167 66.833 -27.5 104.5l-48.5 170.5l-76 260h-477l-90 -252l-51 -145c-12 -35.333 -22.333 -68.333 -31 -99zM893 1905c18 -25.333 38.166 -51.166 60.499 -77.499
s48.5 -55.166 78.5 -86.499c-32.667 -24.667 -62.5 -48.334 -89.5 -71.001s-52.5 -45.334 -76.5 -68.001c-22 31.333 -44.5 60.5 -67.5 87.5s-46.167 52.5 -69.5 76.5c32.667 23.333 62.334 46.333 89.001 69s51.667 46 75 70zM486.999 1905
c16.667 -22.667 35.668 -46.665 57.001 -71.998s49.666 -56 84.999 -92c-33.333 -24.667 -63.5 -48.334 -90.5 -71.001s-52.167 -45.334 -75.5 -68.001c-20.667 28.667 -42.667 56.667 -66 84s-48 54 -74 80c32.667 23.333 62.5 46.333 89.5 69s51.833 46 74.5 70z" />
    <glyph glyph-name="Aring" unicode="&#xc5;" horiz-adv-x="1233" 
d="M629 1858c-36.667 0 -67.667 -12.333 -93 -37s-38 -54 -38 -88c0 -35.333 12.5 -65 37.5 -89s56.167 -36 93.5 -36c36.667 0 67.667 12 93 36s38 53.667 38 89c0 34.667 -12.667 64.167 -38 88.5s-56.333 36.5 -93 36.5zM629 1972c70 0 129.501 -23.3311 178.501 -69.998
s73.5 -103 73.5 -169c0 -66.667 -24.333 -123.334 -73 -170.001s-108.334 -70 -179.001 -70c-71.333 0 -131.166 23.167 -179.499 69.5s-72.5 103.166 -72.5 170.499c0 66.667 24.167 123.167 72.5 169.5s108.166 69.5 179.499 69.5zM365.001 649.002h370l-162 553z
M-73.999 -9.99805l566 1374l-13 37l279 43l206.5 -706l231.5 -726l-260 -51c-20 76 -35.333 132.667 -46 170l-30 102l-76 256h-477l-90 -247l-49.5 -142.5l-32.5 -99.5z" />
    <glyph glyph-name="AE" unicode="&#xc6;" horiz-adv-x="1612" 
d="M459 657h321l56 627zM717 0c12 102.667 22.499 197.5 31.499 284.5s16.167 168.833 21.5 245.5h-379l-311 -530l-230 -12l23 34l408 633l405 650l-90 137c163.333 0 328.333 0.666992 495 2s346.334 3.33301 539.001 6l-82 -170c-76.667 1.33301 -151.5 2.33301 -224.5 3
s-146.167 1 -219.5 1c-10 -70 -19 -144 -27 -222s-14.667 -159.667 -20 -245l495 6l-90 -164h-420l-2 -31c-19.333 -220.667 -31.333 -374.667 -36 -462h299c62.667 0 110.167 0.333008 142.5 1s62.5 1.66699 90.5 3l-72 -180c-160.667 4 -275.167 6.66699 -343.5 8
s-120.833 2 -157.5 2h-246z" />
    <glyph glyph-name="Ccedilla" unicode="&#xc7;" horiz-adv-x="1241" 
d="M1147 360l39.001 -40.999c-118 -119.333 -226 -208.833 -324 -268.5s-186.667 -89.5 -266 -89.5c-161.333 0 -290.5 58.833 -387.5 176.5s-145.5 275.167 -145.5 472.5c0 126 19.5 242.167 58.5 348.5s96.833 201.833 173.5 286.5
c87.333 77.333 175.166 135.666 263.499 174.999s175.166 59 260.499 59c92.667 0 173.334 -16 242.001 -48s126.667 -80.333 174 -145l-201 -188c-56 54.667 -115.333 95.667 -178 123s-129.667 41 -201 41c-47.333 0 -91.5 -5.16699 -132.5 -15.5
s-69.167 -22.5 -84.5 -36.5c-6.66699 -5.33301 -15.5 -18.5 -26.5 -39.5s-22.5 -46.5 -34.5 -76.5c-24.667 -64 -43.167 -128 -55.5 -192s-18.5 -127 -18.5 -189c0 -162 39.667 -287.167 119 -375.5s191.333 -132.5 336 -132.5c72 0 139.333 12.5 202 37.5
s125 64.167 187 117.5zM532.001 0.000976562l90 0.000976562l-33 -94h9c74 0 130.333 -14.5 169 -43.5s58 -71.167 58 -126.5c0 -68 -22 -120.833 -66 -158.5s-105.333 -56.5 -184 -56.5c-35.333 0 -76.166 4.16699 -122.499 12.5s-103.833 21.833 -172.5 40.5l43 111
c44.667 -15.333 86 -27 124 -35s71 -12 99 -12c36.667 0 65.667 8 87 24s32 38 32 66c0 27.333 -11.833 46.666 -35.5 57.999s-65.834 17 -126.501 17h-39z" />
    <glyph glyph-name="Egrave" unicode="&#xc8;" horiz-adv-x="952" 
d="M53 0c16.667 138.667 35.666 331.334 56.999 578.001s44 534.667 68 864c40 0 105.333 0.333008 196 1c244.667 2 441.667 4.33301 591 7l-83 -170c-95.333 1.33301 -176.666 2.33301 -243.999 3s-133.333 1 -198 1c-9.33301 -70 -18 -144 -26 -222
s-15 -159.667 -21 -245l496 6l-90 -166h-422c-8 -90.667 -15.167 -177.334 -21.5 -260.001s-11.5 -159.667 -15.5 -231h299c62 0 109 0.333008 141 1s62 1.66699 90 3l-71 -180c-164.667 4 -280 6.66699 -346 8s-117.333 2 -154 2h-246zM298.999 1940h213l207 -350h-119z
" />
    <glyph glyph-name="Eacute" unicode="&#xc9;" horiz-adv-x="952" 
d="M53 0c16.667 138.667 35.666 331.334 56.999 578.001s44 534.667 68 864c40 0 105.333 0.333008 196 1c244.667 2 441.667 4.33301 591 7l-83 -170c-95.333 1.33301 -176.666 2.33301 -243.999 3s-133.333 1 -198 1c-9.33301 -70 -18 -144 -26 -222
s-15 -159.667 -21 -245l496 6l-90 -166h-422c-8 -90.667 -15.167 -177.334 -21.5 -260.001s-11.5 -159.667 -15.5 -231h299c62 0 109 0.333008 141 1s62 1.66699 90 3l-71 -180c-164.667 4 -280 6.66699 -346 8s-117.333 2 -154 2h-246zM646.999 1940h213l-303 -350h-131z
" />
    <glyph glyph-name="Ecircumflex" unicode="&#xca;" horiz-adv-x="952" 
d="M53 0c16.667 138.667 35.666 331.334 56.999 578.001s44 534.667 68 864c40 0 105.333 0.333008 196 1c244.667 2 441.667 4.33301 591 7l-83 -170c-95.333 1.33301 -176.666 2.33301 -243.999 3s-133.333 1 -198 1c-9.33301 -70 -18 -144 -26 -222
s-15 -159.667 -21 -245l496 6l-90 -166h-422c-8 -90.667 -15.167 -177.334 -21.5 -260.001s-11.5 -159.667 -15.5 -231h299c62 0 109 0.333008 141 1s62 1.66699 90 3l-71 -180c-164.667 4 -280 6.66699 -346 8s-117.333 2 -154 2h-246zM670.999 1936l189 -312l-162 -34
l-111 204l-167 -204l-162 34l264 312h149z" />
    <glyph glyph-name="Edieresis" unicode="&#xcb;" horiz-adv-x="952" 
d="M53 0c16.667 138.667 35.666 331.334 56.999 578.001s44 534.667 68 864c40 0 105.333 0.333008 196 1c244.667 2 441.667 4.33301 591 7l-83 -170c-95.333 1.33301 -176.666 2.33301 -243.999 3s-133.333 1 -198 1c-9.33301 -70 -18 -144 -26 -222
s-15 -159.667 -21 -245l496 6l-90 -166h-422c-8 -90.667 -15.167 -177.334 -21.5 -260.001s-11.5 -159.667 -15.5 -231h299c62 0 109 0.333008 141 1s62 1.66699 90 3l-71 -180c-164.667 4 -280 6.66699 -346 8s-117.333 2 -154 2h-246zM814.999 1905
c18 -25.333 38.166 -51.166 60.499 -77.499s48.5 -55.166 78.5 -86.499c-32.667 -24.667 -62.5 -48.334 -89.5 -71.001s-52.5 -45.334 -76.5 -68.001c-22 31.333 -44.5 60.5 -67.5 87.5s-46.167 52.5 -69.5 76.5c32.667 23.333 62.334 46.333 89.001 69s51.667 46 75 70z
M408.998 1905c16.667 -22.667 35.668 -46.665 57.001 -71.998s49.666 -56 84.999 -92c-33.333 -24.667 -63.5 -48.334 -90.5 -71.001s-52.167 -45.334 -75.5 -68.001c-20.667 28.667 -42.667 56.667 -66 84s-48 54 -74 80c32.667 23.333 62.5 46.333 89.5 69
s51.833 46 74.5 70z" />
    <glyph glyph-name="Igrave" unicode="&#xcc;" horiz-adv-x="559" 
d="M72 -10c19.333 170.667 39.834 380.832 61.501 630.499s43.5 523.5 65.5 821.5l288 8c-25.333 -233.333 -48.333 -469.666 -69 -708.999s-39.334 -486.333 -56.001 -741zM54.001 1940h213l207 -350h-119z" />
    <glyph glyph-name="Iacute" unicode="&#xcd;" horiz-adv-x="559" 
d="M72 -10c19.333 170.667 39.834 380.832 61.501 630.499s43.5 523.5 65.5 821.5l288 8c-25.333 -233.333 -48.333 -469.666 -69 -708.999s-39.334 -486.333 -56.001 -741zM402.001 1940h213l-303 -350h-131z" />
    <glyph glyph-name="Icircumflex" unicode="&#xce;" horiz-adv-x="559" 
d="M72 -10c19.333 170.667 39.834 380.832 61.501 630.499s43.5 523.5 65.5 821.5l288 8c-25.333 -233.333 -48.333 -469.666 -69 -708.999s-39.334 -486.333 -56.001 -741zM426.001 1936l189 -312l-162 -34l-111 204l-167 -204l-162 34l264 312h149z" />
    <glyph glyph-name="Idieresis" unicode="&#xcf;" horiz-adv-x="559" 
d="M72 -10c19.333 170.667 39.834 380.832 61.501 630.499s43.5 523.5 65.5 821.5l288 8c-25.333 -233.333 -48.333 -469.666 -69 -708.999s-39.334 -486.333 -56.001 -741zM570.001 1905c18 -25.333 38.166 -51.166 60.499 -77.499s48.5 -55.166 78.5 -86.499
c-32.667 -24.667 -62.5 -48.334 -89.5 -71.001s-52.5 -45.334 -76.5 -68.001c-22 31.333 -44.5 60.5 -67.5 87.5s-46.167 52.5 -69.5 76.5c32.667 23.333 62.334 46.333 89.001 69s51.667 46 75 70zM164 1905c16.667 -22.667 35.668 -46.665 57.001 -71.998
s49.666 -56 84.999 -92c-33.333 -24.667 -63.5 -48.334 -90.5 -71.001s-52.167 -45.334 -75.5 -68.001c-20.667 28.667 -42.667 56.667 -66 84s-48 54 -74 80c32.667 23.333 62.5 46.333 89.5 69s51.833 46 74.5 70z" />
    <glyph glyph-name="Eth" unicode="&#xd0;" horiz-adv-x="1366" 
d="M436 1282l-20.9961 -217.502c-7.33301 -79 -15.333 -172.5 -24 -280.5h289l-10 -112h-289c-8 -87.333 -15.333 -172.333 -22 -255s-12.334 -161.334 -17.001 -236.001c23.333 -3.33301 49.666 -5.66602 78.999 -6.99902s63 -2 101 -2c83.333 0 156.666 4.5 219.999 13.5
s104 20.167 122 33.5c10 6.66699 23.667 24.334 41 53.001s34.333 62.334 51 101.001c27.333 60.667 47.5 122.667 60.5 186s19.5 129 19.5 197c0 166.667 -44.333 296.667 -133 390s-212.334 140 -371.001 140c-15.333 0 -44.333 -1 -87 -3zM305.004 1442
c12.667 0 59.5029 1.33398 140.503 4.00098s155.833 4 224.5 4c199.333 0 356.666 -57.333 471.999 -172s173 -271 173 -469c0 -113.333 -25.167 -220.833 -75.5 -322.5s-122.833 -192.167 -217.5 -271.5c-111.333 -80 -213.5 -137.5 -306.5 -172.5
s-188.833 -52.5 -287.5 -52.5c-22 0 -65.333 1.66699 -130 5s-118.334 5 -161.001 5h-82c12.667 102 24.167 208.667 34.5 320s20.166 228.666 29.499 351.999h-123l10 112h123l26 311c8.66699 107.333 17 223 25 347h125z" />
    <glyph glyph-name="Ntilde" unicode="&#xd1;" horiz-adv-x="1341" 
d="M76 -10c0 1.33301 8.16699 74.002 24.5 218.002l46.5 413l78 690l-84 131l283 20l598 -1069l57 660.5c12 145.667 21.667 275.167 29 388.5l170 8c-28.667 -272.667 -53.5 -529.334 -74.5 -770.001s-38.5 -467.334 -52.5 -680.001l-184 -18l-513 928l-104 186l-63 -660
c-8.66699 -88.667 -15.5 -167.5 -20.5 -236.5s-9.16699 -135.5 -12.5 -199.5zM985 1884h106.999c-20 -73.333 -47.167 -127.5 -81.5 -162.5s-77.5 -52.5 -129.5 -52.5c-13.333 0 -26.666 1.16699 -39.999 3.5s-26.666 5.5 -39.999 9.5l-57 18c-14 4 -25.333 6.66699 -34 8
s-16.667 2 -24 2c-21.333 0 -40 -6.5 -56 -19.5s-28 -32.167 -36 -57.5h-106c18.667 72 45.5 125.833 80.5 161.5s79.167 53.5 132.5 53.5c12 0 25.167 -1.16699 39.5 -3.5s29.166 -5.5 44.499 -9.5l57 -16l17 -5c16.667 -4.66699 28 -7 34 -7c22 0 40.833 6.66699 56.5 20
s27.5 32.333 35.5 57z" />
    <glyph glyph-name="Ograve" unicode="&#xd2;" horiz-adv-x="1475" 
d="M403 1212c-44 -67.333 -77.499 -141.667 -100.499 -223s-34.5 -166 -34.5 -254c0 -172 48 -308.167 144 -408.5s225.667 -150.5 389 -150.5c50 0 99.167 5.83301 147.5 17.5s93.166 28.5 134.499 50.5c42.667 72 74.834 148.167 96.501 228.5s32.5 161.833 32.5 244.5
c0 164.667 -51 296.667 -153 396s-238 149 -408 149c-51.333 0 -98.333 -4.33301 -141 -13s-78.334 -21 -107.001 -37zM588.001 1434c38.667 15.333 80 27.002 124 35.002s90.667 12 140 12c176.667 0 316.334 -55 419.001 -165s154 -260 154 -450
c0 -144.667 -20 -273.834 -60 -387.501s-96.333 -200.834 -169 -261.501c-108.667 -90.667 -206.834 -156 -294.501 -196s-175.834 -60 -264.501 -60c-189.333 0 -335 53.667 -437 161s-153 260.666 -153 459.999c0 100 13.667 197.833 41 293.5s67 184.834 119 267.501
c26 42.667 68.333 86.5 127 131.5s143.334 98.167 254.001 159.5zM566.001 1940h213l207 -350h-119z" />
    <glyph glyph-name="Oacute" unicode="&#xd3;" horiz-adv-x="1475" 
d="M403 1212c-44 -67.333 -77.499 -141.667 -100.499 -223s-34.5 -166 -34.5 -254c0 -172 48 -308.167 144 -408.5s225.667 -150.5 389 -150.5c50 0 99.167 5.83301 147.5 17.5s93.166 28.5 134.499 50.5c42.667 72 74.834 148.167 96.501 228.5s32.5 161.833 32.5 244.5
c0 164.667 -51 296.667 -153 396s-238 149 -408 149c-51.333 0 -98.333 -4.33301 -141 -13s-78.334 -21 -107.001 -37zM588.001 1434c38.667 15.333 80 27.002 124 35.002s90.667 12 140 12c176.667 0 316.334 -55 419.001 -165s154 -260 154 -450
c0 -144.667 -20 -273.834 -60 -387.501s-96.333 -200.834 -169 -261.501c-108.667 -90.667 -206.834 -156 -294.501 -196s-175.834 -60 -264.501 -60c-189.333 0 -335 53.667 -437 161s-153 260.666 -153 459.999c0 100 13.667 197.833 41 293.5s67 184.834 119 267.501
c26 42.667 68.333 86.5 127 131.5s143.334 98.167 254.001 159.5zM914.001 1940h213l-303 -350h-131z" />
    <glyph glyph-name="Ocircumflex" unicode="&#xd4;" horiz-adv-x="1475" 
d="M403 1212c-44 -67.333 -77.499 -141.667 -100.499 -223s-34.5 -166 -34.5 -254c0 -172 48 -308.167 144 -408.5s225.667 -150.5 389 -150.5c50 0 99.167 5.83301 147.5 17.5s93.166 28.5 134.499 50.5c42.667 72 74.834 148.167 96.501 228.5s32.5 161.833 32.5 244.5
c0 164.667 -51 296.667 -153 396s-238 149 -408 149c-51.333 0 -98.333 -4.33301 -141 -13s-78.334 -21 -107.001 -37zM588.001 1434c38.667 15.333 80 27.002 124 35.002s90.667 12 140 12c176.667 0 316.334 -55 419.001 -165s154 -260 154 -450
c0 -144.667 -20 -273.834 -60 -387.501s-96.333 -200.834 -169 -261.501c-108.667 -90.667 -206.834 -156 -294.501 -196s-175.834 -60 -264.501 -60c-189.333 0 -335 53.667 -437 161s-153 260.666 -153 459.999c0 100 13.667 197.833 41 293.5s67 184.834 119 267.501
c26 42.667 68.333 86.5 127 131.5s143.334 98.167 254.001 159.5zM938.001 1936l189 -312l-162 -34l-111 204l-167 -204l-162 34l264 312h149z" />
    <glyph glyph-name="Otilde" unicode="&#xd5;" horiz-adv-x="1475" 
d="M403 1212c-44 -67.333 -77.499 -141.667 -100.499 -223s-34.5 -166 -34.5 -254c0 -172 48 -308.167 144 -408.5s225.667 -150.5 389 -150.5c50 0 99.167 5.83301 147.5 17.5s93.166 28.5 134.499 50.5c42.667 72 74.834 148.167 96.501 228.5s32.5 161.833 32.5 244.5
c0 164.667 -51 296.667 -153 396s-238 149 -408 149c-51.333 0 -98.333 -4.33301 -141 -13s-78.334 -21 -107.001 -37zM588.001 1434c38.667 15.333 80 27.002 124 35.002s90.667 12 140 12c176.667 0 316.334 -55 419.001 -165s154 -260 154 -450
c0 -144.667 -20 -273.834 -60 -387.501s-96.333 -200.834 -169 -261.501c-108.667 -90.667 -206.834 -156 -294.501 -196s-175.834 -60 -264.501 -60c-189.333 0 -335 53.667 -437 161s-153 260.666 -153 459.999c0 100 13.667 197.833 41 293.5s67 184.834 119 267.501
c26 42.667 68.333 86.5 127 131.5s143.334 98.167 254.001 159.5zM1063 1884h106.999c-20 -73.333 -47.167 -127.5 -81.5 -162.5s-77.5 -52.5 -129.5 -52.5c-13.333 0 -26.666 1.16699 -39.999 3.5s-26.666 5.5 -39.999 9.5l-57 18c-14 4 -25.333 6.66699 -34 8
s-16.667 2 -24 2c-21.333 0 -40 -6.5 -56 -19.5s-28 -32.167 -36 -57.5h-106c18.667 72 45.5 125.833 80.5 161.5s79.167 53.5 132.5 53.5c12 0 25.167 -1.16699 39.5 -3.5s29.166 -5.5 44.499 -9.5l57 -16l17 -5c16.667 -4.66699 28 -7 34 -7c22 0 40.833 6.66699 56.5 20
s27.5 32.333 35.5 57z" />
    <glyph glyph-name="Odieresis" unicode="&#xd6;" horiz-adv-x="1475" 
d="M403 1212c-44 -67.333 -77.499 -141.667 -100.499 -223s-34.5 -166 -34.5 -254c0 -172 48 -308.167 144 -408.5s225.667 -150.5 389 -150.5c50 0 99.167 5.83301 147.5 17.5s93.166 28.5 134.499 50.5c42.667 72 74.834 148.167 96.501 228.5s32.5 161.833 32.5 244.5
c0 164.667 -51 296.667 -153 396s-238 149 -408 149c-51.333 0 -98.333 -4.33301 -141 -13s-78.334 -21 -107.001 -37zM588.001 1434c38.667 15.333 80 27.002 124 35.002s90.667 12 140 12c176.667 0 316.334 -55 419.001 -165s154 -260 154 -450
c0 -144.667 -20 -273.834 -60 -387.501s-96.333 -200.834 -169 -261.501c-108.667 -90.667 -206.834 -156 -294.501 -196s-175.834 -60 -264.501 -60c-189.333 0 -335 53.667 -437 161s-153 260.666 -153 459.999c0 100 13.667 197.833 41 293.5s67 184.834 119 267.501
c26 42.667 68.333 86.5 127 131.5s143.334 98.167 254.001 159.5zM1082 1905c18 -25.333 38.166 -51.166 60.499 -77.499s48.5 -55.166 78.5 -86.499c-32.667 -24.667 -62.5 -48.334 -89.5 -71.001s-52.5 -45.334 -76.5 -68.001c-22 31.333 -44.5 60.5 -67.5 87.5
s-46.167 52.5 -69.5 76.5c32.667 23.333 62.334 46.333 89.001 69s51.667 46 75 70zM676 1905c16.667 -22.667 35.668 -46.665 57.001 -71.998s49.666 -56 84.999 -92c-33.333 -24.667 -63.5 -48.334 -90.5 -71.001s-52.167 -45.334 -75.5 -68.001
c-20.667 28.667 -42.667 56.667 -66 84s-48 54 -74 80c32.667 23.333 62.5 46.333 89.5 69s51.833 46 74.5 70z" />
    <glyph glyph-name="multiply" unicode="&#xd7;" horiz-adv-x="1706" 
d="M403 1188l459 -459l461 459l117 -117l-459 -461l459 -458l-117 -119l-461 461l-459 -461l-116 119l458 458l-458 461z" />
    <glyph glyph-name="Oslash" unicode="&#xd8;" horiz-adv-x="1475" 
d="M459 283c52.667 -36 107.331 -62.832 163.998 -80.499s116 -26.5 178 -26.5c50.667 0 99.834 5.66699 147.501 17s92.5 28.333 134.5 51c42.667 71.333 74.834 147.166 96.501 227.499s32.5 162.833 32.5 247.5c0 72.667 -9.5 138 -28.5 196s-48.167 111.333 -87.5 160z
M390.997 350.001l635 789.003c-54.667 41.333 -113 72.166 -175 92.499s-128.667 30.5 -200 30.5c-51.333 0 -98.333 -4.33301 -141 -13s-78.334 -21 -107.001 -37c-43.333 -67.333 -76.666 -141.833 -99.999 -223.5s-35 -166.167 -35 -253.5
c0 -78.667 10.5 -150.834 31.5 -216.501s51.5 -121.834 91.5 -168.501zM-8.00293 -151.996l215 269.001c-51.333 44.667 -90.833 107.5 -118.5 188.5s-41.5 174.5 -41.5 280.5c0 96 13.667 191.833 41 287.5s67 185.5 119 269.5c26.667 42.667 70 87 130 133
s143.667 98.667 251 158c36.667 14.667 76.834 25.834 120.501 33.501s90.834 11.5 141.501 11.5c76 0 144 -9 204 -27s112 -45.333 156 -82l119 148h121l-170 -215c48 -54.667 84.167 -118.667 108.5 -192s36.5 -155 36.5 -245c0 -144.667 -20 -273.834 -60 -387.501
s-96.333 -200.834 -169 -261.501c-108.667 -90.667 -206.834 -156 -294.501 -196s-175.834 -60 -264.501 -60c-70 0 -134.167 7.66699 -192.5 23s-113.5 39 -165.5 71l-166 -207h-121z" />
    <glyph glyph-name="Ugrave" unicode="&#xd9;" horiz-adv-x="1337" 
d="M868 -10l11.0029 150.997c-138 -74.667 -236.667 -123.334 -296 -146.001s-111 -34 -155 -34c-103.333 0 -183.5 28.333 -240.5 85s-85.5 136.334 -85.5 239.001c0 16.667 11.167 152.5 33.5 407.5s42.166 504.833 59.499 749.5l274 8
c-28.667 -270 -51.834 -511 -69.501 -723s-26.5 -345 -26.5 -399c0 -53.333 15.833 -92.666 47.5 -117.999s80.5 -38 146.5 -38c48 0 96.833 6.83301 146.5 20.5s102.5 34.834 158.5 63.501c18 64 35.667 179.167 53 345.5s40 446.5 68 840.5l275 8
c-25.333 -233.333 -48.333 -469.666 -69 -708.999s-39.334 -486.333 -56.001 -741zM473.003 1940h213l207 -350h-119z" />
    <glyph glyph-name="Uacute" unicode="&#xda;" horiz-adv-x="1337" 
d="M868 -10l11.0029 150.997c-138 -74.667 -236.667 -123.334 -296 -146.001s-111 -34 -155 -34c-103.333 0 -183.5 28.333 -240.5 85s-85.5 136.334 -85.5 239.001c0 16.667 11.167 152.5 33.5 407.5s42.166 504.833 59.499 749.5l274 8
c-28.667 -270 -51.834 -511 -69.501 -723s-26.5 -345 -26.5 -399c0 -53.333 15.833 -92.666 47.5 -117.999s80.5 -38 146.5 -38c48 0 96.833 6.83301 146.5 20.5s102.5 34.834 158.5 63.501c18 64 35.667 179.167 53 345.5s40 446.5 68 840.5l275 8
c-25.333 -233.333 -48.333 -469.666 -69 -708.999s-39.334 -486.333 -56.001 -741zM821.003 1940h213l-303 -350h-131z" />
    <glyph glyph-name="Ucircumflex" unicode="&#xdb;" horiz-adv-x="1337" 
d="M868 -10l11.0029 150.997c-138 -74.667 -236.667 -123.334 -296 -146.001s-111 -34 -155 -34c-103.333 0 -183.5 28.333 -240.5 85s-85.5 136.334 -85.5 239.001c0 16.667 11.167 152.5 33.5 407.5s42.166 504.833 59.499 749.5l274 8
c-28.667 -270 -51.834 -511 -69.501 -723s-26.5 -345 -26.5 -399c0 -53.333 15.833 -92.666 47.5 -117.999s80.5 -38 146.5 -38c48 0 96.833 6.83301 146.5 20.5s102.5 34.834 158.5 63.501c18 64 35.667 179.167 53 345.5s40 446.5 68 840.5l275 8
c-25.333 -233.333 -48.333 -469.666 -69 -708.999s-39.334 -486.333 -56.001 -741zM845.003 1936l189 -312l-162 -34l-111 204l-167 -204l-162 34l264 312h149z" />
    <glyph glyph-name="Udieresis" unicode="&#xdc;" horiz-adv-x="1337" 
d="M868 -10l11.0029 150.997c-138 -74.667 -236.667 -123.334 -296 -146.001s-111 -34 -155 -34c-103.333 0 -183.5 28.333 -240.5 85s-85.5 136.334 -85.5 239.001c0 16.667 11.167 152.5 33.5 407.5s42.166 504.833 59.499 749.5l274 8
c-28.667 -270 -51.834 -511 -69.501 -723s-26.5 -345 -26.5 -399c0 -53.333 15.833 -92.666 47.5 -117.999s80.5 -38 146.5 -38c48 0 96.833 6.83301 146.5 20.5s102.5 34.834 158.5 63.501c18 64 35.667 179.167 53 345.5s40 446.5 68 840.5l275 8
c-25.333 -233.333 -48.333 -469.666 -69 -708.999s-39.334 -486.333 -56.001 -741zM989.003 1905c18 -25.333 38.166 -51.166 60.499 -77.499s48.5 -55.166 78.5 -86.499c-32.667 -24.667 -62.5 -48.334 -89.5 -71.001s-52.5 -45.334 -76.5 -68.001
c-22 31.333 -44.5 60.5 -67.5 87.5s-46.167 52.5 -69.5 76.5c32.667 23.333 62.334 46.333 89.001 69s51.667 46 75 70zM583.002 1905c16.667 -22.667 35.668 -46.665 57.001 -71.998s49.666 -56 84.999 -92c-33.333 -24.667 -63.5 -48.334 -90.5 -71.001
s-52.167 -45.334 -75.5 -68.001c-20.667 28.667 -42.667 56.667 -66 84s-48 54 -74 80c32.667 23.333 62.5 46.333 89.5 69s51.833 46 74.5 70z" />
    <glyph glyph-name="Yacute" unicode="&#xdd;" horiz-adv-x="1071" 
d="M328 -10l32.5 339.001c9.66699 103.333 18.5 202.666 26.5 297.999l-111 317c-12.667 38 -36.667 102.333 -72 193l-122 305l283 22l92 -278l30 -92l97 -287l172 317l48 89l124 229l219 18l-126.5 -196l-133.5 -222l-225 -385c-10.667 -61.333 -21 -142 -31 -242
s-21 -238.333 -33 -415zM658 1940h213l-303 -350h-131z" />
    <glyph glyph-name="Thorn" unicode="&#xde;" horiz-adv-x="1096" 
d="M63 -10c18 156.667 37.667 358.834 59 606.501s43.333 529.5 66 845.5l272 8c-4 -44 -8.16699 -87.5 -12.5 -130.5s-7.83301 -84.167 -10.5 -123.5c12 1.33301 25.667 2.33301 41 3s37 1 65 1c153.333 0 271.166 -33.167 353.499 -99.5s123.5 -161.5 123.5 -285.5
c0 -69.333 -14 -131.333 -42 -186s-69.333 -101.334 -124 -140.001c-14 -9.33301 -33.667 -23.333 -59 -42c-112.667 -82 -211.667 -123 -297 -123c-26 0 -49.667 0.333008 -71 1s-43.666 1.66699 -66.999 3c-4 -35.333 -7.66699 -77.833 -11 -127.5s-7 -116.5 -11 -200.5z
M371 487c29.333 -6.66699 59.5029 -11.668 90.5029 -15.001s63.5 -5 97.5 -5c32.667 0 61.167 2.5 85.5 7.5s40.166 11.5 47.499 19.5c24.667 26 44.5 61.833 59.5 107.5s22.5 92.834 22.5 141.501c0 98 -27.333 173.833 -82 227.5s-132.334 80.5 -233.001 80.5
c-4 0 -10.167 -0.333008 -18.5 -1s-14.5 -1 -18.5 -1c-2.66699 -26 -12.334 -130 -29.001 -312z" />
    <glyph glyph-name="germandbls" unicode="&#xdf;" horiz-adv-x="1063" 
d="M92 -10c14.667 132 28.165 266.834 40.498 404.501s24.166 279.167 35.499 424.5h-158l84 125h86l3 37c9.33301 113.333 27 186.333 53 219c21.333 28 47.5 55.833 78.5 83.5s66.833 55.167 107.5 82.5c50.667 36 96.667 63.833 138 83.5s73.666 29.5 96.999 29.5
c68 0 129.167 -29.833 183.5 -89.5s81.5 -131.5 81.5 -215.5c0 -55.333 -13.5 -107.333 -40.5 -156s-68.833 -97.334 -125.5 -146.001c76 -34.667 133.833 -81.834 173.5 -141.501s59.5 -129.167 59.5 -208.5c0 -74 -12.333 -145.667 -37 -215s-55.334 -121 -92.001 -155
c-61.333 -56.667 -127.666 -102.667 -198.999 -138s-132 -53 -182 -53c-4.66699 0 -10.667 0.333008 -18 1l-32 3l71 172c24.667 -5.33301 47.834 -9.33301 69.501 -12s40.834 -4 57.501 -4c21.333 0 38.833 1.83301 52.5 5.5s22.834 8.83398 27.501 15.501
c17.333 26.667 31.833 63.834 43.5 111.501s17.5 95.5 17.5 143.5c0 87.333 -23 159.166 -69 215.499s-112.333 93.833 -199 112.5l-11 96c52.667 14.667 99 32.167 139 52.5s73.667 43.833 101 70.5c6.66699 14.667 11.834 31 15.501 49s5.5 38 5.5 60
c0 76 -23.833 139.333 -71.5 190s-104.5 76 -170.5 76c-40.667 0 -81 -282.667 -121 -848c-14 -197.333 -25.667 -354.333 -35 -471z" />
    <glyph glyph-name="agrave" unicode="&#xe0;" horiz-adv-x="952" 
d="M602 766c-28.667 18 -57.168 31.666 -85.501 40.999s-56.5 14 -84.5 14c-22 0 -41.167 -2.5 -57.5 -7.5s-27.833 -11.833 -34.5 -20.5c-26 -35.333 -46.5 -86.166 -61.5 -152.499s-22.5 -139.833 -22.5 -220.5c0 -76 10.667 -136.667 32 -182s49 -68 83 -68
c21.333 0 52.5 32.167 93.5 96.5s75.833 141.5 104.5 231.5c12.667 36.667 23 114.667 31 234c0.666992 14.667 1.33398 26 2.00098 34zM528.999 -10.001c0.666992 8 2.33203 20.667 4.99902 38c12.667 94.667 22.334 170.667 29.001 228
c-76.667 -92 -147 -164.167 -211 -216.5s-113 -78.5 -147 -78.5c-47.333 0 -90.666 36.333 -129.999 109s-59 160 -59 262c0 86.667 15.667 173 47 259s69.666 151 114.999 195c8 8 29.833 23.333 65.5 46s77.5 47 125.5 73c44 24.667 84.667 43.5 122 56.5s69 19.5 95 19.5
c68.667 0 130.667 -13.833 186 -41.5s102.333 -68.5 141 -122.5l-63 -33c-14.667 -156 -27.5 -301.5 -38.5 -436.5l-27.5 -347.5zM307.997 1442h213l207 -350h-119z" />
    <glyph glyph-name="aacute" unicode="&#xe1;" horiz-adv-x="952" 
d="M602 766c-28.667 18 -57.168 31.666 -85.501 40.999s-56.5 14 -84.5 14c-22 0 -41.167 -2.5 -57.5 -7.5s-27.833 -11.833 -34.5 -20.5c-26 -35.333 -46.5 -86.166 -61.5 -152.499s-22.5 -139.833 -22.5 -220.5c0 -76 10.667 -136.667 32 -182s49 -68 83 -68
c21.333 0 52.5 32.167 93.5 96.5s75.833 141.5 104.5 231.5c12.667 36.667 23 114.667 31 234c0.666992 14.667 1.33398 26 2.00098 34zM528.999 -10.001c0.666992 8 2.33203 20.667 4.99902 38c12.667 94.667 22.334 170.667 29.001 228
c-76.667 -92 -147 -164.167 -211 -216.5s-113 -78.5 -147 -78.5c-47.333 0 -90.666 36.333 -129.999 109s-59 160 -59 262c0 86.667 15.667 173 47 259s69.666 151 114.999 195c8 8 29.833 23.333 65.5 46s77.5 47 125.5 73c44 24.667 84.667 43.5 122 56.5s69 19.5 95 19.5
c68.667 0 130.667 -13.833 186 -41.5s102.333 -68.5 141 -122.5l-63 -33c-14.667 -156 -27.5 -301.5 -38.5 -436.5l-27.5 -347.5zM655.997 1442h213l-303 -350h-131z" />
    <glyph glyph-name="acircumflex" unicode="&#xe2;" horiz-adv-x="952" 
d="M602 766c-28.667 18 -57.168 31.666 -85.501 40.999s-56.5 14 -84.5 14c-22 0 -41.167 -2.5 -57.5 -7.5s-27.833 -11.833 -34.5 -20.5c-26 -35.333 -46.5 -86.166 -61.5 -152.499s-22.5 -139.833 -22.5 -220.5c0 -76 10.667 -136.667 32 -182s49 -68 83 -68
c21.333 0 52.5 32.167 93.5 96.5s75.833 141.5 104.5 231.5c12.667 36.667 23 114.667 31 234c0.666992 14.667 1.33398 26 2.00098 34zM528.999 -10.001c0.666992 8 2.33203 20.667 4.99902 38c12.667 94.667 22.334 170.667 29.001 228
c-76.667 -92 -147 -164.167 -211 -216.5s-113 -78.5 -147 -78.5c-47.333 0 -90.666 36.333 -129.999 109s-59 160 -59 262c0 86.667 15.667 173 47 259s69.666 151 114.999 195c8 8 29.833 23.333 65.5 46s77.5 47 125.5 73c44 24.667 84.667 43.5 122 56.5s69 19.5 95 19.5
c68.667 0 130.667 -13.833 186 -41.5s102.333 -68.5 141 -122.5l-63 -33c-14.667 -156 -27.5 -301.5 -38.5 -436.5l-27.5 -347.5zM679.997 1438l189 -312l-162 -34l-111 204l-167 -204l-162 34l264 312h149z" />
    <glyph glyph-name="atilde" unicode="&#xe3;" horiz-adv-x="952" 
d="M602 766c-28.667 18 -57.168 31.666 -85.501 40.999s-56.5 14 -84.5 14c-22 0 -41.167 -2.5 -57.5 -7.5s-27.833 -11.833 -34.5 -20.5c-26 -35.333 -46.5 -86.166 -61.5 -152.499s-22.5 -139.833 -22.5 -220.5c0 -76 10.667 -136.667 32 -182s49 -68 83 -68
c21.333 0 52.5 32.167 93.5 96.5s75.833 141.5 104.5 231.5c12.667 36.667 23 114.667 31 234c0.666992 14.667 1.33398 26 2.00098 34zM528.999 -10.001c0.666992 8 2.33203 20.667 4.99902 38c12.667 94.667 22.334 170.667 29.001 228
c-76.667 -92 -147 -164.167 -211 -216.5s-113 -78.5 -147 -78.5c-47.333 0 -90.666 36.333 -129.999 109s-59 160 -59 262c0 86.667 15.667 173 47 259s69.666 151 114.999 195c8 8 29.833 23.333 65.5 46s77.5 47 125.5 73c44 24.667 84.667 43.5 122 56.5s69 19.5 95 19.5
c68.667 0 130.667 -13.833 186 -41.5s102.333 -68.5 141 -122.5l-63 -33c-14.667 -156 -27.5 -301.5 -38.5 -436.5l-27.5 -347.5zM804.997 1386h106.999c-20 -73.333 -47.167 -127.5 -81.5 -162.5s-77.5 -52.5 -129.5 -52.5c-13.333 0 -26.666 1.16699 -39.999 3.5
s-26.666 5.5 -39.999 9.5l-57 18c-14 4 -25.333 6.66699 -34 8s-16.667 2 -24 2c-21.333 0 -40 -6.5 -56 -19.5s-28 -32.167 -36 -57.5h-106c18.667 72 45.5 125.833 80.5 161.5s79.167 53.5 132.5 53.5c12 0 25.167 -1.16699 39.5 -3.5s29.166 -5.5 44.499 -9.5l57 -16
l17 -5c16.667 -4.66699 28 -7 34 -7c22 0 40.833 6.66699 56.5 20s27.5 32.333 35.5 57z" />
    <glyph glyph-name="adieresis" unicode="&#xe4;" horiz-adv-x="952" 
d="M602 766c-28.667 18 -57.168 31.666 -85.501 40.999s-56.5 14 -84.5 14c-22 0 -41.167 -2.5 -57.5 -7.5s-27.833 -11.833 -34.5 -20.5c-26 -35.333 -46.5 -86.166 -61.5 -152.499s-22.5 -139.833 -22.5 -220.5c0 -76 10.667 -136.667 32 -182s49 -68 83 -68
c21.333 0 52.5 32.167 93.5 96.5s75.833 141.5 104.5 231.5c12.667 36.667 23 114.667 31 234c0.666992 14.667 1.33398 26 2.00098 34zM528.999 -10.001c0.666992 8 2.33203 20.667 4.99902 38c12.667 94.667 22.334 170.667 29.001 228
c-76.667 -92 -147 -164.167 -211 -216.5s-113 -78.5 -147 -78.5c-47.333 0 -90.666 36.333 -129.999 109s-59 160 -59 262c0 86.667 15.667 173 47 259s69.666 151 114.999 195c8 8 29.833 23.333 65.5 46s77.5 47 125.5 73c44 24.667 84.667 43.5 122 56.5s69 19.5 95 19.5
c68.667 0 130.667 -13.833 186 -41.5s102.333 -68.5 141 -122.5l-63 -33c-14.667 -156 -27.5 -301.5 -38.5 -436.5l-27.5 -347.5zM823.997 1407c18 -25.333 38.166 -51.166 60.499 -77.499s48.5 -55.166 78.5 -86.499c-32.667 -24.667 -62.5 -48.334 -89.5 -71.001
s-52.5 -45.334 -76.5 -68.001c-22 31.333 -44.5 60.5 -67.5 87.5s-46.167 52.5 -69.5 76.5c32.667 23.333 62.334 46.333 89.001 69s51.667 46 75 70zM417.996 1407c16.667 -22.667 35.668 -46.665 57.001 -71.998s49.666 -56 84.999 -92
c-33.333 -24.667 -63.5 -48.334 -90.5 -71.001s-52.167 -45.334 -75.5 -68.001c-20.667 28.667 -42.667 56.667 -66 84s-48 54 -74 80c32.667 23.333 62.5 46.333 89.5 69s51.833 46 74.5 70z" />
    <glyph glyph-name="aring" unicode="&#xe5;" horiz-adv-x="952" 
d="M600 1440c-38.667 0 -70.833 -12.8311 -96.5 -38.498s-38.5 -57.834 -38.5 -96.501c0 -38 13 -70.167 39 -96.5s58 -39.5 96 -39.5s70 13.167 96 39.5s39 58.5 39 96.5c0 37.333 -13 69.166 -39 95.499s-58 39.5 -96 39.5zM600.001 1563
c72 0 133.002 -24.833 183.002 -74.5s75 -110.167 75 -181.5c0 -72.667 -24.833 -133.834 -74.5 -183.501s-110.834 -74.5 -183.501 -74.5s-133.834 24.833 -183.501 74.5s-74.5 110.834 -74.5 183.501c0 71.333 25 131.833 75 181.5s111 74.5 183 74.5zM602.003 766.002
c-28.667 18 -57.168 31.666 -85.501 40.999s-56.5 14 -84.5 14c-22 0 -41.167 -2.5 -57.5 -7.5s-27.833 -11.833 -34.5 -20.5c-26 -35.333 -46.5 -86.166 -61.5 -152.499s-22.5 -139.833 -22.5 -220.5c0 -76 10.667 -136.667 32 -182s49 -68 83 -68
c21.333 0 52.5 32.167 93.5 96.5s75.833 141.5 104.5 231.5c12.667 36.667 23 114.667 31 234c0.666992 14.667 1.33398 26 2.00098 34zM529.002 -9.99902c0.666992 8 2.33203 20.667 4.99902 38c12.667 94.667 22.334 170.667 29.001 228
c-76.667 -92 -147 -164.167 -211 -216.5s-113 -78.5 -147 -78.5c-47.333 0 -90.666 36.333 -129.999 109s-59 160 -59 262c0 86.667 15.667 173 47 259s69.666 151 114.999 195c8 8 29.833 23.333 65.5 46s77.5 47 125.5 73c44 24.667 84.667 43.5 122 56.5s69 19.5 95 19.5
c68.667 0 130.667 -13.833 186 -41.5s102.333 -68.5 141 -122.5l-63 -33c-14.667 -156 -27.5 -301.5 -38.5 -436.5l-27.5 -347.5z" />
    <glyph glyph-name="ae" unicode="&#xe6;" horiz-adv-x="1485" 
d="M602 766c-28.667 18 -57.168 31.666 -85.501 40.999s-56.5 14 -84.5 14c-22 0 -41.167 -2.5 -57.5 -7.5s-27.833 -11.833 -34.5 -20.5c-26 -35.333 -46.5 -86.166 -61.5 -152.499s-22.5 -139.833 -22.5 -220.5c0 -76 10.667 -136.667 32 -182s49 -68 83 -68
c21.333 0 52.5 32.167 93.5 96.5s75.833 141.5 104.5 231.5c12.667 36.667 23 114.667 31 234c0.666992 14.667 1.33398 26 2.00098 34zM825.999 515.999c22 -2 44.8311 -3.50098 68.498 -4.50098s47.834 -1.5 72.501 -1.5c42.667 0 83.834 1.66699 123.501 5
s78.167 8.33301 115.5 15c1.33301 7.33301 2.33301 15.333 3 24s1 22 1 40c0 65.333 -20.833 118.833 -62.5 160.5s-95.167 62.5 -160.5 62.5c-18 0 -36.5 -1.83301 -55.5 -5.5s-38.5 -9.16699 -58.5 -16.5c-16 -45.333 -28 -91.166 -36 -137.499s-11.667 -93.5 -11 -141.5z
M1386 275.998l26.9971 -30.001l-162 -199c-45.333 -28.667 -94.333 -50.167 -147 -64.5s-108 -21.5 -166 -21.5c-98.667 0 -177.834 27.333 -237.501 82s-97.167 134 -112.5 238c-90 -104 -167.667 -183.333 -233 -238s-115.333 -82 -150 -82
c-47.333 0 -90.666 36.333 -129.999 109s-59 160 -59 262c0 86.667 15.667 173 47 259s69.666 151 114.999 195c8 8 29.833 23.333 65.5 46s77.5 47 125.5 73c44 24.667 84.667 43.5 122 56.5s69 19.5 95 19.5c50 0 97.5 -8.16699 142.5 -24.5s87.5 -40.833 127.5 -73.5
c32.667 32.667 71.834 57.167 117.501 73.5s97.167 24.5 154.5 24.5c86 0 159.5 -26.5 220.5 -79.5s91.5 -115.833 91.5 -188.5c0 -20.667 -3.16699 -41.167 -9.5 -61.5s-15.5 -40.166 -27.5 -59.499c-46 -39.333 -90 -74.833 -132 -106.5s-81.333 -59.167 -118 -82.5
c-34.667 -5.33301 -71.667 -9.33301 -111 -12s-80.666 -4 -123.999 -4c-7.33301 0 -21.833 0.333008 -43.5 1s-39.5 1 -53.5 1c5.33301 -69.333 32.833 -123.833 82.5 -163.5s115.167 -59.5 196.5 -59.5c52.667 0 102.834 9.16699 150.501 27.5s92.834 45.833 135.501 82.5z
" />
    <glyph glyph-name="ccedilla" unicode="&#xe7;" horiz-adv-x="883" 
d="M766 264l31 -25.999l-185 -215c-41.333 -20.667 -82.666 -36.167 -123.999 -46.5s-81.666 -15.5 -120.999 -15.5c-107.333 0 -193 35.333 -257 106s-96 165.667 -96 285c0 65.333 7.66699 129.666 23 192.999s37.666 123.333 66.999 180c76 90 149.333 155.167 220 195.5
s145.667 60.5 225 60.5c78.667 0 144.5 -19.5 197.5 -58.5s86.833 -92.5 101.5 -160.5l-221 -133c-25.333 60.667 -60 107.834 -104 141.501s-93.333 50.5 -148 50.5c-10.667 0 -21.667 -0.666992 -33 -2s-23 -3.33301 -35 -6
c-20.667 -40.667 -36.334 -87.834 -47.001 -141.501s-16 -112.167 -16 -175.5c0 -110 24.667 -194.5 74 -253.5s119.333 -88.5 210 -88.5c44 0 85.667 9 125 27s77 45.667 113 83zM350 0.000976562l90 0.000976562l-33 -94h9c74 0 130.333 -14.5 169 -43.5
s58 -71.167 58 -126.5c0 -68 -22 -120.833 -66 -158.5s-105.333 -56.5 -184 -56.5c-35.333 0 -76.166 4.16699 -122.499 12.5s-103.833 21.833 -172.5 40.5l43 111c44.667 -15.333 86 -27 124 -35s71 -12 99 -12c36.667 0 65.667 8 87 24s32 38 32 66
c0 27.333 -11.833 46.666 -35.5 57.999s-65.834 17 -126.501 17h-39z" />
    <glyph glyph-name="egrave" unicode="&#xe8;" horiz-adv-x="895" 
d="M240 516c38.667 -3.33301 67.5 -5.50098 86.5 -6.50098s36.5 -1.5 52.5 -1.5c38.667 0 77.667 1.83301 117 5.5s80 9.16699 122 16.5c2 7.33301 3.33301 15.333 4 24s1 22 1 40c0 65.333 -20.833 118.833 -62.5 160.5s-95.5 62.5 -161.5 62.5
c-18 0 -36.333 -1.83301 -55 -5.5s-38.334 -9.16699 -59.001 -16.5c-15.333 -39.333 -26.666 -82.166 -33.999 -128.499s-11 -96.5 -11 -150.5zM799 275.999l26 -30.002l-161 -199c-45.333 -28 -94.333 -49.333 -147 -64s-107 -22 -163 -22
c-104.667 0 -187.834 34.333 -249.501 103s-92.5 161.334 -92.5 278.001c0 87.333 11.833 171.5 35.5 252.5s50.167 135.5 79.5 163.5c5.33301 4.66699 13 12 23 22c140 134 270.333 201 391 201c85.333 0 158.5 -26.5 219.5 -79.5s91.5 -115.833 91.5 -188.5
c0 -20.667 -3.16699 -41.167 -9.5 -61.5s-15.5 -40.166 -27.5 -59.499c-46 -39.333 -90 -74.833 -132 -106.5s-81.333 -59.167 -118 -82.5c-30.667 -5.33301 -64.167 -9.33301 -100.5 -12s-77.833 -4 -124.5 -4c-26 0 -45.5 0.166992 -58.5 0.5s-24.833 0.833008 -35.5 1.5
c6 -69.333 33.167 -123.833 81.5 -163.5s111.833 -59.5 190.5 -59.5c50.667 0 99.334 9.16699 146.001 27.5s91.667 45.833 135 82.5zM260 1442h213l207 -350h-119z" />
    <glyph glyph-name="eacute" unicode="&#xe9;" horiz-adv-x="895" 
d="M240 516c38.667 -3.33301 67.5 -5.50098 86.5 -6.50098s36.5 -1.5 52.5 -1.5c38.667 0 77.667 1.83301 117 5.5s80 9.16699 122 16.5c2 7.33301 3.33301 15.333 4 24s1 22 1 40c0 65.333 -20.833 118.833 -62.5 160.5s-95.5 62.5 -161.5 62.5
c-18 0 -36.333 -1.83301 -55 -5.5s-38.334 -9.16699 -59.001 -16.5c-15.333 -39.333 -26.666 -82.166 -33.999 -128.499s-11 -96.5 -11 -150.5zM799 275.999l26 -30.002l-161 -199c-45.333 -28 -94.333 -49.333 -147 -64s-107 -22 -163 -22
c-104.667 0 -187.834 34.333 -249.501 103s-92.5 161.334 -92.5 278.001c0 87.333 11.833 171.5 35.5 252.5s50.167 135.5 79.5 163.5c5.33301 4.66699 13 12 23 22c140 134 270.333 201 391 201c85.333 0 158.5 -26.5 219.5 -79.5s91.5 -115.833 91.5 -188.5
c0 -20.667 -3.16699 -41.167 -9.5 -61.5s-15.5 -40.166 -27.5 -59.499c-46 -39.333 -90 -74.833 -132 -106.5s-81.333 -59.167 -118 -82.5c-30.667 -5.33301 -64.167 -9.33301 -100.5 -12s-77.833 -4 -124.5 -4c-26 0 -45.5 0.166992 -58.5 0.5s-24.833 0.833008 -35.5 1.5
c6 -69.333 33.167 -123.833 81.5 -163.5s111.833 -59.5 190.5 -59.5c50.667 0 99.334 9.16699 146.001 27.5s91.667 45.833 135 82.5zM608 1442h213l-303 -350h-131z" />
    <glyph glyph-name="ecircumflex" unicode="&#xea;" horiz-adv-x="895" 
d="M240 516c38.667 -3.33301 67.5 -5.50098 86.5 -6.50098s36.5 -1.5 52.5 -1.5c38.667 0 77.667 1.83301 117 5.5s80 9.16699 122 16.5c2 7.33301 3.33301 15.333 4 24s1 22 1 40c0 65.333 -20.833 118.833 -62.5 160.5s-95.5 62.5 -161.5 62.5
c-18 0 -36.333 -1.83301 -55 -5.5s-38.334 -9.16699 -59.001 -16.5c-15.333 -39.333 -26.666 -82.166 -33.999 -128.499s-11 -96.5 -11 -150.5zM799 275.999l26 -30.002l-161 -199c-45.333 -28 -94.333 -49.333 -147 -64s-107 -22 -163 -22
c-104.667 0 -187.834 34.333 -249.501 103s-92.5 161.334 -92.5 278.001c0 87.333 11.833 171.5 35.5 252.5s50.167 135.5 79.5 163.5c5.33301 4.66699 13 12 23 22c140 134 270.333 201 391 201c85.333 0 158.5 -26.5 219.5 -79.5s91.5 -115.833 91.5 -188.5
c0 -20.667 -3.16699 -41.167 -9.5 -61.5s-15.5 -40.166 -27.5 -59.499c-46 -39.333 -90 -74.833 -132 -106.5s-81.333 -59.167 -118 -82.5c-30.667 -5.33301 -64.167 -9.33301 -100.5 -12s-77.833 -4 -124.5 -4c-26 0 -45.5 0.166992 -58.5 0.5s-24.833 0.833008 -35.5 1.5
c6 -69.333 33.167 -123.833 81.5 -163.5s111.833 -59.5 190.5 -59.5c50.667 0 99.334 9.16699 146.001 27.5s91.667 45.833 135 82.5zM632 1438l189 -312l-162 -34l-111 204l-167 -204l-162 34l264 312h149z" />
    <glyph glyph-name="edieresis" unicode="&#xeb;" horiz-adv-x="895" 
d="M240 516c38.667 -3.33301 67.5 -5.50098 86.5 -6.50098s36.5 -1.5 52.5 -1.5c38.667 0 77.667 1.83301 117 5.5s80 9.16699 122 16.5c2 7.33301 3.33301 15.333 4 24s1 22 1 40c0 65.333 -20.833 118.833 -62.5 160.5s-95.5 62.5 -161.5 62.5
c-18 0 -36.333 -1.83301 -55 -5.5s-38.334 -9.16699 -59.001 -16.5c-15.333 -39.333 -26.666 -82.166 -33.999 -128.499s-11 -96.5 -11 -150.5zM799 275.999l26 -30.002l-161 -199c-45.333 -28 -94.333 -49.333 -147 -64s-107 -22 -163 -22
c-104.667 0 -187.834 34.333 -249.501 103s-92.5 161.334 -92.5 278.001c0 87.333 11.833 171.5 35.5 252.5s50.167 135.5 79.5 163.5c5.33301 4.66699 13 12 23 22c140 134 270.333 201 391 201c85.333 0 158.5 -26.5 219.5 -79.5s91.5 -115.833 91.5 -188.5
c0 -20.667 -3.16699 -41.167 -9.5 -61.5s-15.5 -40.166 -27.5 -59.499c-46 -39.333 -90 -74.833 -132 -106.5s-81.333 -59.167 -118 -82.5c-30.667 -5.33301 -64.167 -9.33301 -100.5 -12s-77.833 -4 -124.5 -4c-26 0 -45.5 0.166992 -58.5 0.5s-24.833 0.833008 -35.5 1.5
c6 -69.333 33.167 -123.833 81.5 -163.5s111.833 -59.5 190.5 -59.5c50.667 0 99.334 9.16699 146.001 27.5s91.667 45.833 135 82.5zM776 1407c18 -25.333 38.166 -51.166 60.499 -77.499s48.5 -55.166 78.5 -86.499c-32.667 -24.667 -62.5 -48.334 -89.5 -71.001
s-52.5 -45.334 -76.5 -68.001c-22 31.333 -44.5 60.5 -67.5 87.5s-46.167 52.5 -69.5 76.5c32.667 23.333 62.334 46.333 89.001 69s51.667 46 75 70zM369.999 1407c16.667 -22.667 35.668 -46.665 57.001 -71.998s49.666 -56 84.999 -92
c-33.333 -24.667 -63.5 -48.334 -90.5 -71.001s-52.167 -45.334 -75.5 -68.001c-20.667 28.667 -42.667 56.667 -66 84s-48 54 -74 80c32.667 23.333 62.5 46.333 89.5 69s51.833 46 74.5 70z" />
    <glyph glyph-name="igrave" unicode="&#xec;" horiz-adv-x="473" 
d="M39 -10c11.333 101.333 23.666 229.166 36.999 383.499s28.333 344.5 45 570.5l272 8c-12 -97.333 -24.667 -221.666 -38 -372.999s-28.666 -344.333 -45.999 -579zM11 1442h213l207 -350h-119z" />
    <glyph glyph-name="iacute" unicode="&#xed;" horiz-adv-x="473" 
d="M39 -10c11.333 101.333 23.666 229.166 36.999 383.499s28.333 344.5 45 570.5l272 8c-12 -97.333 -24.667 -221.666 -38 -372.999s-28.666 -344.333 -45.999 -579zM359 1442h213l-303 -350h-131z" />
    <glyph glyph-name="icircumflex" unicode="&#xee;" horiz-adv-x="473" 
d="M39 -10c11.333 101.333 23.666 229.166 36.999 383.499s28.333 344.5 45 570.5l272 8c-12 -97.333 -24.667 -221.666 -38 -372.999s-28.666 -344.333 -45.999 -579zM383 1438l189 -312l-162 -34l-111 204l-167 -204l-162 34l264 312h149z" />
    <glyph glyph-name="idieresis" unicode="&#xef;" horiz-adv-x="473" 
d="M39 -10c11.333 101.333 23.666 229.166 36.999 383.499s28.333 344.5 45 570.5l272 8c-12 -97.333 -24.667 -221.666 -38 -372.999s-28.666 -344.333 -45.999 -579zM527 1407c18 -25.333 38.166 -51.166 60.499 -77.499s48.5 -55.166 78.5 -86.499
c-32.667 -24.667 -62.5 -48.334 -89.5 -71.001s-52.5 -45.334 -76.5 -68.001c-22 31.333 -44.5 60.5 -67.5 87.5s-46.167 52.5 -69.5 76.5c32.667 23.333 62.334 46.333 89.001 69s51.667 46 75 70zM120.999 1407c16.667 -22.667 35.668 -46.665 57.001 -71.998
s49.666 -56 84.999 -92c-33.333 -24.667 -63.5 -48.334 -90.5 -71.001s-52.167 -45.334 -75.5 -68.001c-20.667 28.667 -42.667 56.667 -66 84s-48 54 -74 80c32.667 23.333 62.5 46.333 89.5 69s51.833 46 74.5 70z" />
    <glyph glyph-name="eth" unicode="&#xf0;" horiz-adv-x="995" 
d="M526 -6c-19.333 -11.333 -40.833 -19.6689 -64.5 -25.002s-53.167 -8 -88.5 -8c-116.667 0 -206 32.5 -268 97.5s-93 158.833 -93 281.5c0 152.667 33.833 275.834 101.5 369.501s184.167 178.167 349.5 253.5c25.333 0 54.833 -4.83301 88.5 -14.5
s71.167 -24.167 112.5 -43.5c-31.333 46 -65.833 91 -103.5 135s-79.167 87 -124.5 129l-184 -118l-51 67l168 109l-78 64.5l-78 60.5l195 127c24 -17.333 48.833 -36.833 74.5 -58.5s51.834 -45.167 78.501 -70.5l174 112l51 -67l-165 -109
c108.667 -117.333 188.667 -234.666 240 -351.999s77 -241.666 77 -372.999c0 -67.333 -10.333 -132.833 -31 -196.5s-50.667 -122.5 -90 -176.5c-30.667 -29.333 -70.334 -60.333 -119.001 -93s-106 -66.334 -172 -101.001zM672 171.997
c16.667 36.667 29.332 75.5 37.999 116.5s13 82.833 13 125.5c0 123.333 -27.833 219.333 -83.5 288s-133.5 103 -233.5 103c-15.333 0 -30.333 -1.5 -45 -4.5s-30 -7.83301 -46 -14.5c-27.333 -43.333 -48.166 -89.5 -62.499 -138.5s-21.5 -100.167 -21.5 -153.5
c0 -110.667 26 -197.167 78 -259.5s123.667 -93.5 215 -93.5c28 0 54.333 2.66699 79 8s47.667 13 69 23z" />
    <glyph glyph-name="ntilde" unicode="&#xf1;" horiz-adv-x="985" 
d="M23 -10c12.667 117.333 26.166 256.5 40.499 417.5s28.5 339.833 42.5 536.5l254 8l-34 -264c78.667 92 155.5 163.833 230.5 215.5s138.833 77.5 191.5 77.5c48 0 84.167 -15.5 108.5 -46.5s36.5 -76.833 36.5 -137.5c0 -34.667 -8 -140.667 -24 -318
s-28.667 -337 -38 -479l-256 -10c16.667 150.667 29.834 283.167 39.501 397.5s14.5 193.5 14.5 237.5c0 51.333 -7.83301 90.333 -23.5 117s-38.5 40 -68.5 40c-53.333 0 -108 -76.833 -164 -230.5s-87.333 -337.5 -94 -551.5zM763.999 1386h106.999
c-20 -73.333 -47.167 -127.5 -81.5 -162.5s-77.5 -52.5 -129.5 -52.5c-13.333 0 -26.666 1.16699 -39.999 3.5s-26.666 5.5 -39.999 9.5l-57 18c-14 4 -25.333 6.66699 -34 8s-16.667 2 -24 2c-21.333 0 -40 -6.5 -56 -19.5s-28 -32.167 -36 -57.5h-106
c18.667 72 45.5 125.833 80.5 161.5s79.167 53.5 132.5 53.5c12 0 25.167 -1.16699 39.5 -3.5s29.166 -5.5 44.499 -9.5l57 -16l17 -5c16.667 -4.66699 28 -7 34 -7c22 0 40.833 6.66699 56.5 20s27.5 32.333 35.5 57z" />
    <glyph glyph-name="ograve" unicode="&#xf2;" horiz-adv-x="995" 
d="M672 172c16.667 36.667 29.332 75.5 37.999 116.5s13 82.833 13 125.5c0 123.333 -27.833 219.333 -83.5 288s-133.5 103 -233.5 103c-15.333 0 -30.333 -1.5 -45 -4.5s-30 -7.83301 -46 -14.5c-27.333 -43.333 -48.166 -89.5 -62.499 -138.5
s-21.5 -100.167 -21.5 -153.5c0 -110.667 26 -197.167 78 -259.5s123.667 -93.5 215 -93.5c28 0 54.333 2.66699 79 8s47.667 13 69 23zM816.998 188c-30.667 -29.333 -70.332 -60.3311 -118.999 -92.998s-106 -66.334 -172 -101.001
c-19.333 -11.333 -40.833 -19.666 -64.5 -24.999s-53.167 -8 -88.5 -8c-116.667 0 -206 32.5 -268 97.5s-93 158.833 -93 281.5c0 153.333 34.167 277 102.5 371s186.166 179 353.499 255c15.333 5.33301 32.833 9.16602 52.5 11.499s41.5 3.5 65.5 3.5
c111.333 0 197.833 -35.333 259.5 -106s92.5 -169.667 92.5 -297c0 -76.667 -10.167 -147.834 -30.5 -213.501s-50.5 -124.5 -90.5 -176.5zM277 1442h213l207 -350h-119z" />
    <glyph glyph-name="oacute" unicode="&#xf3;" horiz-adv-x="995" 
d="M672 172c16.667 36.667 29.332 75.5 37.999 116.5s13 82.833 13 125.5c0 123.333 -27.833 219.333 -83.5 288s-133.5 103 -233.5 103c-15.333 0 -30.333 -1.5 -45 -4.5s-30 -7.83301 -46 -14.5c-27.333 -43.333 -48.166 -89.5 -62.499 -138.5
s-21.5 -100.167 -21.5 -153.5c0 -110.667 26 -197.167 78 -259.5s123.667 -93.5 215 -93.5c28 0 54.333 2.66699 79 8s47.667 13 69 23zM816.998 188c-30.667 -29.333 -70.332 -60.3311 -118.999 -92.998s-106 -66.334 -172 -101.001
c-19.333 -11.333 -40.833 -19.666 -64.5 -24.999s-53.167 -8 -88.5 -8c-116.667 0 -206 32.5 -268 97.5s-93 158.833 -93 281.5c0 153.333 34.167 277 102.5 371s186.166 179 353.499 255c15.333 5.33301 32.833 9.16602 52.5 11.499s41.5 3.5 65.5 3.5
c111.333 0 197.833 -35.333 259.5 -106s92.5 -169.667 92.5 -297c0 -76.667 -10.167 -147.834 -30.5 -213.501s-50.5 -124.5 -90.5 -176.5zM625 1442h213l-303 -350h-131z" />
    <glyph glyph-name="ocircumflex" unicode="&#xf4;" horiz-adv-x="995" 
d="M672 172c16.667 36.667 29.332 75.5 37.999 116.5s13 82.833 13 125.5c0 123.333 -27.833 219.333 -83.5 288s-133.5 103 -233.5 103c-15.333 0 -30.333 -1.5 -45 -4.5s-30 -7.83301 -46 -14.5c-27.333 -43.333 -48.166 -89.5 -62.499 -138.5
s-21.5 -100.167 -21.5 -153.5c0 -110.667 26 -197.167 78 -259.5s123.667 -93.5 215 -93.5c28 0 54.333 2.66699 79 8s47.667 13 69 23zM816.998 188c-30.667 -29.333 -70.332 -60.3311 -118.999 -92.998s-106 -66.334 -172 -101.001
c-19.333 -11.333 -40.833 -19.666 -64.5 -24.999s-53.167 -8 -88.5 -8c-116.667 0 -206 32.5 -268 97.5s-93 158.833 -93 281.5c0 153.333 34.167 277 102.5 371s186.166 179 353.499 255c15.333 5.33301 32.833 9.16602 52.5 11.499s41.5 3.5 65.5 3.5
c111.333 0 197.833 -35.333 259.5 -106s92.5 -169.667 92.5 -297c0 -76.667 -10.167 -147.834 -30.5 -213.501s-50.5 -124.5 -90.5 -176.5zM649 1438l189 -312l-162 -34l-111 204l-167 -204l-162 34l264 312h149z" />
    <glyph glyph-name="otilde" unicode="&#xf5;" horiz-adv-x="995" 
d="M672 172c16.667 36.667 29.332 75.5 37.999 116.5s13 82.833 13 125.5c0 123.333 -27.833 219.333 -83.5 288s-133.5 103 -233.5 103c-15.333 0 -30.333 -1.5 -45 -4.5s-30 -7.83301 -46 -14.5c-27.333 -43.333 -48.166 -89.5 -62.499 -138.5
s-21.5 -100.167 -21.5 -153.5c0 -110.667 26 -197.167 78 -259.5s123.667 -93.5 215 -93.5c28 0 54.333 2.66699 79 8s47.667 13 69 23zM816.998 188c-30.667 -29.333 -70.332 -60.3311 -118.999 -92.998s-106 -66.334 -172 -101.001
c-19.333 -11.333 -40.833 -19.666 -64.5 -24.999s-53.167 -8 -88.5 -8c-116.667 0 -206 32.5 -268 97.5s-93 158.833 -93 281.5c0 153.333 34.167 277 102.5 371s186.166 179 353.499 255c15.333 5.33301 32.833 9.16602 52.5 11.499s41.5 3.5 65.5 3.5
c111.333 0 197.833 -35.333 259.5 -106s92.5 -169.667 92.5 -297c0 -76.667 -10.167 -147.834 -30.5 -213.501s-50.5 -124.5 -90.5 -176.5zM774 1386h106.999c-20 -73.333 -47.167 -127.5 -81.5 -162.5s-77.5 -52.5 -129.5 -52.5c-13.333 0 -26.666 1.16699 -39.999 3.5
s-26.666 5.5 -39.999 9.5l-57 18c-14 4 -25.333 6.66699 -34 8s-16.667 2 -24 2c-21.333 0 -40 -6.5 -56 -19.5s-28 -32.167 -36 -57.5h-106c18.667 72 45.5 125.833 80.5 161.5s79.167 53.5 132.5 53.5c12 0 25.167 -1.16699 39.5 -3.5s29.166 -5.5 44.499 -9.5l57 -16
l17 -5c16.667 -4.66699 28 -7 34 -7c22 0 40.833 6.66699 56.5 20s27.5 32.333 35.5 57z" />
    <glyph glyph-name="odieresis" unicode="&#xf6;" horiz-adv-x="995" 
d="M672 172c16.667 36.667 29.332 75.5 37.999 116.5s13 82.833 13 125.5c0 123.333 -27.833 219.333 -83.5 288s-133.5 103 -233.5 103c-15.333 0 -30.333 -1.5 -45 -4.5s-30 -7.83301 -46 -14.5c-27.333 -43.333 -48.166 -89.5 -62.499 -138.5
s-21.5 -100.167 -21.5 -153.5c0 -110.667 26 -197.167 78 -259.5s123.667 -93.5 215 -93.5c28 0 54.333 2.66699 79 8s47.667 13 69 23zM816.998 188c-30.667 -29.333 -70.332 -60.3311 -118.999 -92.998s-106 -66.334 -172 -101.001
c-19.333 -11.333 -40.833 -19.666 -64.5 -24.999s-53.167 -8 -88.5 -8c-116.667 0 -206 32.5 -268 97.5s-93 158.833 -93 281.5c0 153.333 34.167 277 102.5 371s186.166 179 353.499 255c15.333 5.33301 32.833 9.16602 52.5 11.499s41.5 3.5 65.5 3.5
c111.333 0 197.833 -35.333 259.5 -106s92.5 -169.667 92.5 -297c0 -76.667 -10.167 -147.834 -30.5 -213.501s-50.5 -124.5 -90.5 -176.5zM793 1407c18 -25.333 38.166 -51.166 60.499 -77.499s48.5 -55.166 78.5 -86.499c-32.667 -24.667 -62.5 -48.334 -89.5 -71.001
s-52.5 -45.334 -76.5 -68.001c-22 31.333 -44.5 60.5 -67.5 87.5s-46.167 52.5 -69.5 76.5c32.667 23.333 62.334 46.333 89.001 69s51.667 46 75 70zM386.999 1407c16.667 -22.667 35.668 -46.665 57.001 -71.998s49.666 -56 84.999 -92
c-33.333 -24.667 -63.5 -48.334 -90.5 -71.001s-52.167 -45.334 -75.5 -68.001c-20.667 28.667 -42.667 56.667 -66 84s-48 54 -74 80c32.667 23.333 62.5 46.333 89.5 69s51.833 46 74.5 70z" />
    <glyph glyph-name="divide" unicode="&#xf7;" horiz-adv-x="1706" 
d="M854 367c38 0 70.333 -13.501 97 -40.501s40 -59.5 40 -97.5c0 -37.333 -13.167 -69.166 -39.5 -95.499s-58.833 -39.5 -97.5 -39.5s-71.167 13 -97.5 39s-39.5 58 -39.5 96s13.5 70.5 40.5 97.5s59.167 40.5 96.5 40.5zM254 693.999h1198v-166h-1198v166zM854 1128
c38 0 70.333 -13.668 97 -41.001s40 -60 40 -98c0 -37.333 -13.167 -69.166 -39.5 -95.499s-58.833 -39.5 -97.5 -39.5s-71.167 13 -97.5 39s-39.5 58 -39.5 96s13.5 70.667 40.5 98s59.167 41 96.5 41z" />
    <glyph glyph-name="oslash" unicode="&#xf8;" horiz-adv-x="995" 
d="M324 219c24 -26 52.834 -45.5 86.501 -58.5s72.167 -19.5 115.5 -19.5c27.333 0 53.166 2.66699 77.499 8s47.166 13 68.499 23c16.667 36.667 29.334 75.5 38.001 116.5s13 82.833 13 125.5c0 43.333 -3.83301 83.5 -11.5 120.5s-19.5 71.833 -35.5 104.5zM633.001 707
c-27.333 32.667 -58.668 57.166 -94.001 73.499s-75.666 24.5 -120.999 24.5c-20 0 -38.5 -1.5 -55.5 -4.5s-32.833 -7.83301 -47.5 -14.5c-28 -43.333 -49 -89.666 -63 -138.999s-21 -102 -21 -158c0 -40 4 -77.333 12 -112s20 -66 36 -94zM-51.001 -104.001
l147.003 174.001c-28.667 32 -49.834 70 -63.501 114s-20.5 96 -20.5 156c0 153.333 34.167 277 102.5 371s186.166 179 353.499 255c15.333 5.33301 32.666 9.16602 51.999 11.499s41.333 3.5 66 3.5c46.667 0 87.167 -5.16699 121.5 -15.5s66.833 -27.166 97.5 -50.499
l100 119h101l-148 -176c27.333 -38 47.5 -79.5 60.5 -124.5s19.5 -95.5 19.5 -151.5c0 -77.333 -10.167 -149.333 -30.5 -216s-50.5 -126 -90.5 -178c-30.667 -29.333 -70.334 -60.333 -119.001 -93s-106 -66.334 -172 -101.001
c-19.333 -11.333 -40.833 -19.666 -64.5 -24.999s-53.167 -8 -88.5 -8c-46 0 -86.667 4.66699 -122 14s-67.666 23.666 -96.999 42.999l-105 -122h-100z" />
    <glyph glyph-name="ugrave" unicode="&#xf9;" horiz-adv-x="985" 
d="M582 -10l31.999 266c-79.333 -92.667 -156.166 -165 -230.499 -217s-137.166 -78 -188.499 -78c-49.333 0 -86 15.833 -110 47.5s-36 80.167 -36 145.5c0 30 7.83301 133.333 23.5 310s28.5 336.667 38.5 480l256 8c-16.667 -148 -29.834 -279.333 -39.501 -394
s-14.5 -195 -14.5 -241c0 -51.333 7.66699 -90 23 -116s37.666 -39 66.999 -39c53.333 0 108.333 76.833 165 230.5s88.667 337.5 96 551.5l256 8c-13.333 -112.667 -27.166 -249.5 -41.499 -410.5s-28.5 -341.5 -42.5 -541.5zM280.999 1442h213l207 -350h-119z" />
    <glyph glyph-name="uacute" unicode="&#xfa;" horiz-adv-x="985" 
d="M582 -10l31.999 266c-79.333 -92.667 -156.166 -165 -230.499 -217s-137.166 -78 -188.499 -78c-49.333 0 -86 15.833 -110 47.5s-36 80.167 -36 145.5c0 30 7.83301 133.333 23.5 310s28.5 336.667 38.5 480l256 8c-16.667 -148 -29.834 -279.333 -39.501 -394
s-14.5 -195 -14.5 -241c0 -51.333 7.66699 -90 23 -116s37.666 -39 66.999 -39c53.333 0 108.333 76.833 165 230.5s88.667 337.5 96 551.5l256 8c-13.333 -112.667 -27.166 -249.5 -41.499 -410.5s-28.5 -341.5 -42.5 -541.5zM628.999 1442h213l-303 -350h-131z" />
    <glyph glyph-name="ucircumflex" unicode="&#xfb;" horiz-adv-x="985" 
d="M582 -10l31.999 266c-79.333 -92.667 -156.166 -165 -230.499 -217s-137.166 -78 -188.499 -78c-49.333 0 -86 15.833 -110 47.5s-36 80.167 -36 145.5c0 30 7.83301 133.333 23.5 310s28.5 336.667 38.5 480l256 8c-16.667 -148 -29.834 -279.333 -39.501 -394
s-14.5 -195 -14.5 -241c0 -51.333 7.66699 -90 23 -116s37.666 -39 66.999 -39c53.333 0 108.333 76.833 165 230.5s88.667 337.5 96 551.5l256 8c-13.333 -112.667 -27.166 -249.5 -41.499 -410.5s-28.5 -341.5 -42.5 -541.5zM652.999 1438l189 -312l-162 -34l-111 204
l-167 -204l-162 34l264 312h149z" />
    <glyph glyph-name="udieresis" unicode="&#xfc;" horiz-adv-x="985" 
d="M582 -10l31.999 266c-79.333 -92.667 -156.166 -165 -230.499 -217s-137.166 -78 -188.499 -78c-49.333 0 -86 15.833 -110 47.5s-36 80.167 -36 145.5c0 30 7.83301 133.333 23.5 310s28.5 336.667 38.5 480l256 8c-16.667 -148 -29.834 -279.333 -39.501 -394
s-14.5 -195 -14.5 -241c0 -51.333 7.66699 -90 23 -116s37.666 -39 66.999 -39c53.333 0 108.333 76.833 165 230.5s88.667 337.5 96 551.5l256 8c-13.333 -112.667 -27.166 -249.5 -41.499 -410.5s-28.5 -341.5 -42.5 -541.5zM796.999 1407
c18 -25.333 38.166 -51.166 60.499 -77.499s48.5 -55.166 78.5 -86.499c-32.667 -24.667 -62.5 -48.334 -89.5 -71.001s-52.5 -45.334 -76.5 -68.001c-22 31.333 -44.5 60.5 -67.5 87.5s-46.167 52.5 -69.5 76.5c32.667 23.333 62.334 46.333 89.001 69s51.667 46 75 70z
M390.998 1407c16.667 -22.667 35.668 -46.665 57.001 -71.998s49.666 -56 84.999 -92c-33.333 -24.667 -63.5 -48.334 -90.5 -71.001s-52.167 -45.334 -75.5 -68.001c-20.667 28.667 -42.667 56.667 -66 84s-48 54 -74 80c32.667 23.333 62.5 46.333 89.5 69
s51.833 46 74.5 70z" />
    <glyph glyph-name="yacute" unicode="&#xfd;" horiz-adv-x="958" 
d="M31 -375l186 187.001c40 -42.667 78.5 -74.5 115.5 -95.5s73.5 -31.5 109.5 -31.5c2 0 5.5 0.333008 10.5 1s8.5 1 10.5 1c34 42 60.667 107.667 80 197s32.333 208 39 356c-79.333 -94 -151 -164 -215 -210s-121.333 -69 -172 -69
c-48.667 0 -84.834 15.833 -108.501 47.5s-35.5 80.167 -35.5 145.5c0 30 7.83301 133.333 23.5 310s28.5 336.667 38.5 480l256 8c-16.667 -152 -30.167 -287.333 -40.5 -406s-15.5 -197 -15.5 -235c0 -44.667 7.33301 -78 22 -100s36.667 -33 66 -33
c22 0 48.667 23.333 80 70s66.333 115 105 205c9.33301 55.333 17.833 122.666 25.5 201.999s14.834 175.666 21.501 288.999l256 8c-15.333 -137.333 -31.666 -316.333 -48.999 -537c-26 -321.333 -55.333 -513.666 -88 -576.999c-13.333 -26 -36 -53.667 -68 -83
s-81.667 -67 -149 -113c-64.667 -43.333 -121.334 -75 -170.001 -95s-92.667 -30 -132 -30c-37.333 0 -72.833 9 -106.5 27s-65.5 45 -95.5 81zM600 1442h213l-303 -350h-131z" />
    <glyph glyph-name="thorn" unicode="&#xfe;" horiz-adv-x="1020" 
d="M2 -483l15 156.001c16.667 166 28.667 292 36 378c-13.333 8.66699 -26.666 19 -39.999 31s-26 25 -38 39l93 92l45 558.5l51 670.5l258 8c-20.667 -191.333 -36.667 -347.333 -48 -468s-19 -217.667 -23 -291c100.667 100 183.167 173.333 247.5 220
s116.166 70 155.499 70c53.333 0 100 -35 140 -105s60 -156.667 60 -260c0 -98 -18.167 -190 -54.5 -276s-84.166 -151.667 -143.499 -197c-72 -54 -142.833 -97.833 -212.5 -131.5s-121.834 -50.5 -156.501 -50.5c-12 0 -25.667 0.833008 -41 2.5s-33 4.16699 -53 7.5
c-6.66699 -66 -12.667 -135.333 -18 -208s-10.333 -151.334 -15 -236.001zM305 154.001c22 -12 46.499 -20.832 73.499 -26.499s56.5 -8.5 88.5 -8.5c31.333 0 59.333 2.33301 84 7s48 11.667 70 21c30.667 57.333 54.334 117.166 71.001 179.499s25 123.5 25 183.5
c0 78.667 -13.167 145.167 -39.5 199.5s-54.833 81.5 -85.5 81.5c-22 0 -56.5 -23.5 -103.5 -70.5s-85.5 -101.5 -115.5 -163.5c-32.667 -68 -55 -196 -67 -384c0 -8 -0.333008 -14.333 -1 -19z" />
    <glyph glyph-name="ydieresis" unicode="&#xff;" horiz-adv-x="958" 
d="M31 -375l186 187.001c40 -42.667 78.5 -74.5 115.5 -95.5s73.5 -31.5 109.5 -31.5c2 0 5.5 0.333008 10.5 1s8.5 1 10.5 1c34 42 60.667 107.667 80 197s32.333 208 39 356c-79.333 -94 -151 -164 -215 -210s-121.333 -69 -172 -69
c-48.667 0 -84.834 15.833 -108.501 47.5s-35.5 80.167 -35.5 145.5c0 30 7.83301 133.333 23.5 310s28.5 336.667 38.5 480l256 8c-16.667 -152 -30.167 -287.333 -40.5 -406s-15.5 -197 -15.5 -235c0 -44.667 7.33301 -78 22 -100s36.667 -33 66 -33
c22 0 48.667 23.333 80 70s66.333 115 105 205c9.33301 55.333 17.833 122.666 25.5 201.999s14.834 175.666 21.501 288.999l256 8c-15.333 -137.333 -31.666 -316.333 -48.999 -537c-26 -321.333 -55.333 -513.666 -88 -576.999c-13.333 -26 -36 -53.667 -68 -83
s-81.667 -67 -149 -113c-64.667 -43.333 -121.334 -75 -170.001 -95s-92.667 -30 -132 -30c-37.333 0 -72.833 9 -106.5 27s-65.5 45 -95.5 81zM768 1407c18 -25.333 38.166 -51.166 60.499 -77.499s48.5 -55.166 78.5 -86.499c-32.667 -24.667 -62.5 -48.334 -89.5 -71.001
s-52.5 -45.334 -76.5 -68.001c-22 31.333 -44.5 60.5 -67.5 87.5s-46.167 52.5 -69.5 76.5c32.667 23.333 62.334 46.333 89.001 69s51.667 46 75 70zM361.999 1407c16.667 -22.667 35.668 -46.665 57.001 -71.998s49.666 -56 84.999 -92
c-33.333 -24.667 -63.5 -48.334 -90.5 -71.001s-52.167 -45.334 -75.5 -68.001c-20.667 28.667 -42.667 56.667 -66 84s-48 54 -74 80c32.667 23.333 62.5 46.333 89.5 69s51.833 46 74.5 70z" />
    <glyph glyph-name="Cacute" unicode="&#x106;" horiz-adv-x="1241" 
d="M1147 360l39.001 -40.999c-118 -119.333 -226 -208.833 -324 -268.5s-186.667 -89.5 -266 -89.5c-161.333 0 -290.5 58.833 -387.5 176.5s-145.5 275.167 -145.5 472.5c0 126 19.5 242.167 58.5 348.5s96.833 201.833 173.5 286.5
c87.333 77.333 175.166 135.666 263.499 174.999s175.166 59 260.499 59c92.667 0 173.334 -16 242.001 -48s126.667 -80.333 174 -145l-201 -188c-56 54.667 -115.333 95.667 -178 123s-129.667 41 -201 41c-47.333 0 -91.5 -5.16699 -132.5 -15.5
s-69.167 -22.5 -84.5 -36.5c-6.66699 -5.33301 -15.5 -18.5 -26.5 -39.5s-22.5 -46.5 -34.5 -76.5c-24.667 -64 -43.167 -128 -55.5 -192s-18.5 -127 -18.5 -189c0 -162 39.667 -287.167 119 -375.5s191.333 -132.5 336 -132.5c72 0 139.333 12.5 202 37.5
s125 64.167 187 117.5zM891.001 1940h213l-303 -350h-131z" />
    <glyph glyph-name="cacute" unicode="&#x107;" horiz-adv-x="883" 
d="M766 264l31 -25.999l-185 -215c-41.333 -20.667 -82.666 -36.167 -123.999 -46.5s-81.666 -15.5 -120.999 -15.5c-107.333 0 -193 35.333 -257 106s-96 165.667 -96 285c0 65.333 7.66699 129.666 23 192.999s37.666 123.333 66.999 180c76 90 149.333 155.167 220 195.5
s145.667 60.5 225 60.5c78.667 0 144.5 -19.5 197.5 -58.5s86.833 -92.5 101.5 -160.5l-221 -133c-25.333 60.667 -60 107.834 -104 141.501s-93.333 50.5 -148 50.5c-10.667 0 -21.667 -0.666992 -33 -2s-23 -3.33301 -35 -6
c-20.667 -40.667 -36.334 -87.834 -47.001 -141.501s-16 -112.167 -16 -175.5c0 -110 24.667 -194.5 74 -253.5s119.333 -88.5 210 -88.5c44 0 85.667 9 125 27s77 45.667 113 83zM580 1442h213l-303 -350h-131z" />
    <glyph glyph-name="Ccaron" unicode="&#x10c;" horiz-adv-x="1241" 
d="M1147 360l39.001 -40.999c-118 -119.333 -226 -208.833 -324 -268.5s-186.667 -89.5 -266 -89.5c-161.333 0 -290.5 58.833 -387.5 176.5s-145.5 275.167 -145.5 472.5c0 126 19.5 242.167 58.5 348.5s96.833 201.833 173.5 286.5
c87.333 77.333 175.166 135.666 263.499 174.999s175.166 59 260.499 59c92.667 0 173.334 -16 242.001 -48s126.667 -80.333 174 -145l-201 -188c-56 54.667 -115.333 95.667 -178 123s-129.667 41 -201 41c-47.333 0 -91.5 -5.16699 -132.5 -15.5
s-69.167 -22.5 -84.5 -36.5c-6.66699 -5.33301 -15.5 -18.5 -26.5 -39.5s-22.5 -46.5 -34.5 -76.5c-24.667 -64 -43.167 -128 -55.5 -192s-18.5 -127 -18.5 -189c0 -162 39.667 -287.167 119 -375.5s191.333 -132.5 336 -132.5c72 0 139.333 12.5 202 37.5
s125 64.167 187 117.5zM760.001 1590l-189 313l162 33l113 -205l166 205l161 -33l-264 -313h-149z" />
    <glyph glyph-name="ccaron" unicode="&#x10d;" horiz-adv-x="883" 
d="M766 264l31 -25.999l-185 -215c-41.333 -20.667 -82.666 -36.167 -123.999 -46.5s-81.666 -15.5 -120.999 -15.5c-107.333 0 -193 35.333 -257 106s-96 165.667 -96 285c0 65.333 7.66699 129.666 23 192.999s37.666 123.333 66.999 180c76 90 149.333 155.167 220 195.5
s145.667 60.5 225 60.5c78.667 0 144.5 -19.5 197.5 -58.5s86.833 -92.5 101.5 -160.5l-221 -133c-25.333 60.667 -60 107.834 -104 141.501s-93.333 50.5 -148 50.5c-10.667 0 -21.667 -0.666992 -33 -2s-23 -3.33301 -35 -6
c-20.667 -40.667 -36.334 -87.834 -47.001 -141.501s-16 -112.167 -16 -175.5c0 -110 24.667 -194.5 74 -253.5s119.333 -88.5 210 -88.5c44 0 85.667 9 125 27s77 45.667 113 83zM449 1092l-189 313l162 33l113 -205l166 205l161 -33l-264 -313h-149z" />
    <glyph glyph-name="dcroat" unicode="&#x111;" horiz-adv-x="1006" 
d="M677 787c-34 17.333 -68.834 30.499 -104.501 39.499s-71.5 13.5 -107.5 13.5c-20.667 0 -38 -1.16699 -52 -3.5s-27.333 -6.16602 -40 -11.499c-33.333 -42 -59.833 -99.5 -79.5 -172.5s-29.5 -151.833 -29.5 -236.5c0 -82 13.5 -147.667 40.5 -197s61.5 -74 103.5 -74
c23.333 0 55.833 25.5 97.5 76.5s77.834 113.167 108.501 186.5c23.333 52.667 43 160.667 59 324c2 24 3.33301 42.333 4 55zM597.999 -10.001c1.33301 13.333 3.66699 34.666 7 63.999c9.33301 78 16 137.667 20 179c-72 -78.667 -144.333 -143.667 -217 -195
s-124.667 -77 -156 -77c-63.333 0 -119.166 34.167 -167.499 102.5s-72.5 151.5 -72.5 249.5c0 100 19.5 199.5 58.5 298.5s82.5 168.167 130.5 207.5c9.33301 8 26.5 18.5 51.5 31.5s71.833 35.5 140.5 67.5c45.333 20.667 86 36.334 122 47.001s67 16 93 16
c13.333 0 26.666 -1 39.999 -3s26.666 -5 39.999 -9l17 170h-203l10 94h196c1.33301 12 3 30.333 5 55c6 71.333 10 122.333 12 153l260 9l-24 -217h153l-8 -94h-152c-23.333 -244 -42.666 -458.667 -57.999 -644s-27.333 -350.333 -36 -495z" />
    <glyph glyph-name="Gbreve" unicode="&#x11e;" horiz-adv-x="1337" 
d="M705 643l184.002 170.005h366c-12 -110.667 -22.333 -217.5 -31 -320.5s-16 -202.833 -22 -299.5c-133.333 -88.667 -238.833 -149.5 -316.5 -182.5s-148.834 -49.5 -213.501 -49.5c-195.333 0 -346.666 55.667 -453.999 167s-161 268.666 -161 471.999
c0 152 26.667 288.167 80 408.5s129.333 216.166 228 287.499c82.667 61.333 169.667 107.166 261 137.499s187 45.5 287 45.5c91.333 0 174.166 -16.833 248.499 -50.5s135.833 -81.834 184.5 -144.501l-195 -182c-57.333 66 -122.833 115.5 -196.5 148.5
s-155.5 49.5 -245.5 49.5c-65.333 0 -125.833 -7.83301 -181.5 -23.5s-92.834 -34.167 -111.501 -55.5c-6.66699 -8 -15.167 -23.333 -25.5 -46s-21.833 -51 -34.5 -85c-23.333 -64.667 -41 -127.667 -53 -189s-18 -120 -18 -176c0 -158.667 45.833 -287.834 137.5 -387.501
s210.167 -149.5 355.5 -149.5c30.667 0 60 2.66699 88 8s54.667 13 80 23c8 80 15.167 155.333 21.5 226s11.5 136.667 15.5 198h-278zM476.002 1909l112.002 -0.000976562v-6c0 -48.667 11.667 -83.667 35 -105s61.666 -32 114.999 -32c55.333 0 101.166 11.667 137.499 35
s64.833 59.333 85.5 108h119c-28 -97.333 -72.167 -170.166 -132.5 -218.499s-138.5 -72.5 -234.5 -72.5c-79.333 0 -139.166 20.833 -179.499 62.5s-60.5 103.5 -60.5 185.5c0 12 0.166992 20.833 0.5 26.5s1.16602 11.167 2.49902 16.5z" />
    <glyph glyph-name="gbreve" unicode="&#x11f;" horiz-adv-x="981" 
d="M631 766c-28.667 18.667 -58.498 32.501 -89.498 41.501s-63.5 13.5 -97.5 13.5c-22.667 0 -42.5 -2.5 -59.5 -7.5s-29.167 -12.167 -36.5 -21.5c-25.333 -34.667 -45.666 -85.167 -60.999 -151.5s-23 -139.833 -23 -220.5c0 -76 10.5 -136.667 31.5 -182
s48.167 -68 81.5 -68c17.333 0 48.666 28.167 93.999 84.5s83.666 121.166 114.999 194.499c10 24 18.167 56.667 24.5 98s13.166 114.333 20.499 219zM20.002 -374.999l195.002 187.001c42 -43.333 81.667 -75 119 -95s74.666 -30 111.999 -30h21
c32 44.667 58.167 113.667 78.5 207s35.833 217.333 46.5 372c-104 -110 -185.167 -188.333 -243.5 -235s-102.833 -70 -133.5 -70c-48 0 -91.667 36.5 -131 109.5s-59 160.167 -59 261.5c0 88 15.667 175 47 261s69.333 150.333 114 193c7.33301 8 29.5 23.333 66.5 46
s80.5 47.667 130.5 75c44.667 24.667 85.834 43.5 123.501 56.5s70.167 19.5 97.5 19.5c72.667 0 137.667 -14 195 -42s105 -69.333 143 -124l-63 -33c-8 -82.667 -18 -195.334 -30 -338.001c-27.333 -336.667 -58.333 -539.334 -93 -608.001
c-14 -26.667 -37.833 -55.5 -71.5 -86.5s-82.834 -68.167 -147.501 -111.5c-60.667 -41.333 -116.667 -72.166 -168 -92.499s-98 -30.5 -140 -30.5c-38.667 0 -75.334 9 -110.001 27s-67.667 45 -99 81zM298.004 1411l112.002 -0.000976562v-6
c0 -48.667 11.667 -83.667 35 -105s61.666 -32 114.999 -32c55.333 0 101.166 11.667 137.499 35s64.833 59.333 85.5 108h119c-28 -97.333 -72.167 -170.166 -132.5 -218.499s-138.5 -72.5 -234.5 -72.5c-79.333 0 -139.166 20.833 -179.499 62.5s-60.5 103.5 -60.5 185.5
c0 12 0.166992 20.833 0.5 26.5s1.16602 11.167 2.49902 16.5z" />
    <glyph glyph-name="Idotaccent" unicode="&#x130;" horiz-adv-x="559" 
d="M72 -10c19.333 170.667 39.834 380.832 61.501 630.499s43.5 523.5 65.5 821.5l288 8c-25.333 -233.333 -48.333 -469.666 -69 -708.999s-39.334 -486.333 -56.001 -741zM369.001 1913c22.667 -31.333 45.8359 -61.166 69.5029 -89.499s48.167 -55.833 73.5 -82.5
c-32.667 -24.667 -63.334 -49.167 -92.001 -73.5s-55.334 -48.166 -80.001 -71.499c-22.667 30.667 -45.834 60.167 -69.501 88.5s-48.167 56.166 -73.5 83.499c29.333 20.667 58.333 43.167 87 67.5s57 50.166 85 77.499z" />
    <glyph glyph-name="dotlessi" unicode="&#x131;" horiz-adv-x="473" 
d="M39 -10c11.333 101.333 23.666 229.166 36.999 383.499s28.333 344.5 45 570.5l272 8c-12 -97.333 -24.667 -221.666 -38 -372.999s-28.666 -344.333 -45.999 -579z" />
    <glyph glyph-name="Lslash" unicode="&#x141;" horiz-adv-x="915" 
d="M74 0c12 104 23 205.831 33 305.498s18.667 197.167 26 292.5l-147 -84l12 139l145 80l29 354.5l27 354.5l288 8c-10 -87.333 -19.667 -178.166 -29 -272.499s-18.666 -196.166 -27.999 -305.499l236 136l-13 -138l-233 -137
c-10.667 -107.333 -19.834 -207.333 -27.501 -300s-14.167 -181.667 -19.5 -267l516 4l-68 -170h-747z" />
    <glyph glyph-name="lslash" unicode="&#x142;" horiz-adv-x="473" 
d="M37 -10c10 88.667 19.668 181.166 29.001 277.499s18.666 198.833 27.999 307.5l-110 -67l10 115l110 69l38.5 464.5c9 113 16.167 208.167 21.5 285.5l274 8l-9 -87c-26.667 -250.667 -44 -428.667 -52 -534l115 72l-13 -123l-110 -69
c-12 -122.667 -22.5 -242.667 -31.5 -360s-17.167 -233.666 -24.5 -348.999z" />
    <glyph glyph-name="OE" unicode="&#x152;" horiz-adv-x="2030" 
d="M403 1212c-44 -67.333 -77.499 -141.667 -100.499 -223s-34.5 -166 -34.5 -254c0 -172 48 -308.167 144 -408.5s225.667 -150.5 389 -150.5c50 0 99.167 5.83301 147.5 17.5s93.166 28.5 134.499 50.5c38.667 65.333 68.167 138.833 88.5 220.5s30.5 167.167 30.5 256.5
c0 166.667 -50.5 299.5 -151.5 398.5s-236.833 148.5 -407.5 148.5c-47.333 0 -90.833 -4.66699 -130.5 -14s-76.167 -23.333 -109.5 -42zM1128 -0.000976562l22.998 179.998c-93.333 -76 -181 -131.5 -263 -166.5s-165.667 -52.5 -251 -52.5
c-189.333 0 -335 53.667 -437 161s-153 260.666 -153 459.999c0 100 13.667 197.833 41 293.5s67 184.834 119 267.501c26 42.667 68.333 86.5 127 131.5s143.334 98.167 254.001 159.5c37.333 14.667 74 25.834 110 33.501s71.667 11.5 107 11.5c92 0 176 -19.667 252 -59
s139.333 -95.666 190 -168.999l8 191c40.667 0 106.334 0.333008 197.001 1c244 2 440.667 4.33301 590 7l-82 -170c-76.667 1.33301 -151.5 2.33301 -224.5 3s-146.167 1 -219.5 1c-10 -70 -19 -144 -27 -222s-15 -159.667 -21 -245l496 6l-90 -166h-420
c-12.667 -144 -21.5 -249.333 -26.5 -316s-8.83301 -125 -11.5 -175h298c63.333 0 111.166 0.333008 143.499 1s62.5 1.66699 90.5 3l-72 -180c-160.667 4 -275.167 6.66699 -343.5 8s-121.166 2 -158.499 2h-246z" />
    <glyph glyph-name="oe" unicode="&#x153;" horiz-adv-x="1622" 
d="M672 172c16.667 36.667 29.332 75.5 37.999 116.5s13 82.833 13 125.5c0 123.333 -27.833 219.333 -83.5 288s-133.5 103 -233.5 103c-15.333 0 -30.333 -1.5 -45 -4.5s-30 -7.83301 -46 -14.5c-27.333 -43.333 -48.166 -89.5 -62.499 -138.5
s-21.5 -100.167 -21.5 -153.5c0 -110.667 26 -197.167 78 -259.5s123.667 -93.5 215 -93.5c28 0 54.333 2.66699 79 8s47.667 13 69 23zM964.998 516c38.667 -3.33301 67.5 -5.50098 86.5 -6.50098s36.5 -1.5 52.5 -1.5c38.667 0 77.667 1.83301 117 5.5
s80 9.16699 122 16.5c2 7.33301 3.33301 15.333 4 24s1 22 1 40c0 65.333 -20.833 118.833 -62.5 160.5s-95.5 62.5 -161.5 62.5c-18 0 -36.333 -1.83301 -55 -5.5s-38.334 -9.16699 -59.001 -16.5c-15.333 -39.333 -26.666 -82.166 -33.999 -128.499s-11 -96.5 -11 -150.5z
M1524 275.999l26.002 -30.002l-161 -199c-45.333 -28 -94.333 -49.333 -147 -64s-107 -22 -163 -22c-72.667 0 -134.334 16.167 -185.001 48.5s-90 80.5 -118 144.5c-32 -26.667 -68.833 -53.167 -110.5 -79.5s-88.167 -53.166 -139.5 -80.499
c-19.333 -11.333 -40.833 -19.666 -64.5 -24.999s-53.167 -8 -88.5 -8c-116.667 0 -206 32.5 -268 97.5s-93 158.833 -93 281.5c0 153.333 34.167 277 102.5 371s186.166 179 353.499 255c15.333 5.33301 32.833 9.16602 52.5 11.499s41.5 3.5 65.5 3.5
c75.333 0 138.333 -15.333 189 -46s90.667 -77.334 120 -140.001c68 70 129.5 118.5 184.5 145.5s117.167 40.5 186.5 40.5c85.333 0 158.5 -26.5 219.5 -79.5s91.5 -115.833 91.5 -188.5c0 -20.667 -3.16699 -41.167 -9.5 -61.5s-15.5 -40.166 -27.5 -59.499
c-48 -41.333 -92.667 -77.666 -134 -108.999s-79.333 -58 -114 -80c-30.667 -5.33301 -64.334 -9.33301 -101.001 -12s-78.667 -4 -126 -4c-26 0 -45.5 0.166992 -58.5 0.5s-24.833 0.833008 -35.5 1.5c6 -69.333 33.167 -123.833 81.5 -163.5s111.833 -59.5 190.5 -59.5
c50.667 0 99.334 9.16699 146.001 27.5s91.667 45.833 135 82.5z" />
    <glyph glyph-name="Scedilla" unicode="&#x15e;" horiz-adv-x="985" 
d="M63 195l246.002 142.999c37.333 -64 78 -112 122 -144s93 -49.333 147 -52c21.333 22 37.5 48.167 48.5 78.5s16.5 64.166 16.5 101.499c0 60.667 -14 112 -42 154s-90.333 92.333 -187 151h-1c-174 106.667 -261 223.334 -261 350.001
c0 62.667 9.33301 119.334 28 170.001s44 89 76 115c101.333 80 181.666 136.167 240.999 168.5s111.333 48.5 156 48.5s94.5 -17.667 149.5 -53s103.5 -82 145.5 -140l-217 -143c-44.667 46.667 -89.167 81.834 -133.5 105.501s-87.833 35.5 -130.5 35.5
c-5.33301 0 -11 -0.333008 -17 -1l-26 -3c-17.333 -20.667 -30.5 -45.5 -39.5 -74.5s-13.5 -60.833 -13.5 -95.5c0 -52 14.833 -98 44.5 -138s93.167 -89.667 190.5 -149c106.667 -64 179.5 -121.667 218.5 -173s58.5 -110.333 58.5 -177c0 -56 -13.333 -112.167 -40 -168.5
s-64.667 -107.833 -114 -154.5c-58.667 -56.667 -120.834 -102.334 -186.501 -137.001s-119.5 -52 -161.5 -52c-54.667 0 -108.5 19.5 -161.5 58.5s-105.167 97.5 -156.5 175.5zM410.002 -0.000976562l90 0.000976562l-33 -94h9c74 0 130.333 -14.5 169 -43.5
s58 -71.167 58 -126.5c0 -68 -22 -120.833 -66 -158.5s-105.333 -56.5 -184 -56.5c-35.333 0 -76.166 4.16699 -122.499 12.5s-103.833 21.833 -172.5 40.5l43 111c44.667 -15.333 86 -27 124 -35s71 -12 99 -12c36.667 0 65.667 8 87 24s32 38 32 66
c0 27.333 -11.833 46.666 -35.5 57.999s-65.834 17 -126.501 17h-39z" />
    <glyph glyph-name="scedilla" unicode="&#x15f;" horiz-adv-x="786" 
d="M6 76l186.999 184.003c42 -41.333 82.833 -71.833 122.5 -91.5s79.834 -29.5 120.501 -29.5c17.333 0 32.666 1.66699 45.999 5s25.333 8.66602 36 15.999v14c0 60 -62 118 -186 174c-8.66699 4 -14.667 6.66699 -18 8c-2.66699 1.33301 -5.66699 2.66602 -9 3.99902
c-166.667 74 -250 148.667 -250 224c0 40 11 83 33 129s54 93 96 141c38.667 43.333 79 75.333 121 96s87.667 31 137 31s97.833 -9.16699 145.5 -27.5s92.834 -45.5 135.501 -81.5l-186 -180c-44 33.333 -87 58.5 -129 75.5s-83 25.5 -123 25.5
c-12.667 0 -24.5 -1.16699 -35.5 -3.5s-21.167 -5.5 -30.5 -9.5c0 -2 -0.333008 -4.66699 -1 -8s-1 -6 -1 -8c0 -29.333 11.667 -55.333 35 -78s72.333 -51.334 147 -86.001l53 -25c154.667 -73.333 232 -149 232 -227c0 -40 -11.667 -83.833 -35 -131.5
s-56 -93.834 -98 -138.501c-35.333 -37.333 -75 -66.166 -119 -86.499s-89 -30.5 -135 -30.5c-50.667 0 -99.667 9.33301 -147 28s-95.333 47.667 -144 87zM308.999 0.00292969l90 0.000976562l-33 -94h9c74 0 130.333 -14.5 169 -43.5s58 -71.167 58 -126.5
c0 -68 -22 -120.833 -66 -158.5s-105.333 -56.5 -184 -56.5c-35.333 0 -76.166 4.16699 -122.499 12.5s-103.833 21.833 -172.5 40.5l43 111c44.667 -15.333 86 -27 124 -35s71 -12 99 -12c36.667 0 65.667 8 87 24s32 38 32 66c0 27.333 -11.833 46.666 -35.5 57.999
s-65.834 17 -126.501 17h-39z" />
    <glyph glyph-name="Scaron" unicode="&#x160;" horiz-adv-x="985" 
d="M63 195l246.002 142.999c37.333 -64 78 -112 122 -144s93 -49.333 147 -52c21.333 22 37.5 48.167 48.5 78.5s16.5 64.166 16.5 101.499c0 60.667 -14 112 -42 154s-90.333 92.333 -187 151h-1c-174 106.667 -261 223.334 -261 350.001
c0 62.667 9.33301 119.334 28 170.001s44 89 76 115c101.333 80 181.666 136.167 240.999 168.5s111.333 48.5 156 48.5s94.5 -17.667 149.5 -53s103.5 -82 145.5 -140l-217 -143c-44.667 46.667 -89.167 81.834 -133.5 105.501s-87.833 35.5 -130.5 35.5
c-5.33301 0 -11 -0.333008 -17 -1l-26 -3c-17.333 -20.667 -30.5 -45.5 -39.5 -74.5s-13.5 -60.833 -13.5 -95.5c0 -52 14.833 -98 44.5 -138s93.167 -89.667 190.5 -149c106.667 -64 179.5 -121.667 218.5 -173s58.5 -110.333 58.5 -177c0 -56 -13.333 -112.167 -40 -168.5
s-64.667 -107.833 -114 -154.5c-58.667 -56.667 -120.834 -102.334 -186.501 -137.001s-119.5 -52 -161.5 -52c-54.667 0 -108.5 19.5 -161.5 58.5s-105.167 97.5 -156.5 175.5zM584.002 1590l-189 313l162 33l113 -205l166 205l161 -33l-264 -313h-149z" />
    <glyph glyph-name="scaron" unicode="&#x161;" horiz-adv-x="786" 
d="M6 76l186.999 184.003c42 -41.333 82.833 -71.833 122.5 -91.5s79.834 -29.5 120.501 -29.5c17.333 0 32.666 1.66699 45.999 5s25.333 8.66602 36 15.999v14c0 60 -62 118 -186 174c-8.66699 4 -14.667 6.66699 -18 8c-2.66699 1.33301 -5.66699 2.66602 -9 3.99902
c-166.667 74 -250 148.667 -250 224c0 40 11 83 33 129s54 93 96 141c38.667 43.333 79 75.333 121 96s87.667 31 137 31s97.833 -9.16699 145.5 -27.5s92.834 -45.5 135.501 -81.5l-186 -180c-44 33.333 -87 58.5 -129 75.5s-83 25.5 -123 25.5
c-12.667 0 -24.5 -1.16699 -35.5 -3.5s-21.167 -5.5 -30.5 -9.5c0 -2 -0.333008 -4.66699 -1 -8s-1 -6 -1 -8c0 -29.333 11.667 -55.333 35 -78s72.333 -51.334 147 -86.001l53 -25c154.667 -73.333 232 -149 232 -227c0 -40 -11.667 -83.833 -35 -131.5
s-56 -93.834 -98 -138.501c-35.333 -37.333 -75 -66.166 -119 -86.499s-89 -30.5 -135 -30.5c-50.667 0 -99.667 9.33301 -147 28s-95.333 47.667 -144 87zM382.999 1092l-189 313l162 33l113 -205l166 205l161 -33l-264 -313h-149z" />
    <glyph glyph-name="Ydieresis" unicode="&#x178;" horiz-adv-x="1071" 
d="M328 -10l32.5 339.001c9.66699 103.333 18.5 202.666 26.5 297.999l-111 317c-12.667 38 -36.667 102.333 -72 193l-122 305l283 22l92 -278l30 -92l97 -287l172 317l48 89l124 229l219 18l-126.5 -196l-133.5 -222l-225 -385c-10.667 -61.333 -21 -142 -31 -242
s-21 -238.333 -33 -415zM826 1905c18 -25.333 38.166 -51.166 60.499 -77.499s48.5 -55.166 78.5 -86.499c-32.667 -24.667 -62.5 -48.334 -89.5 -71.001s-52.5 -45.334 -76.5 -68.001c-22 31.333 -44.5 60.5 -67.5 87.5s-46.167 52.5 -69.5 76.5
c32.667 23.333 62.334 46.333 89.001 69s51.667 46 75 70zM419.999 1905c16.667 -22.667 35.668 -46.665 57.001 -71.998s49.666 -56 84.999 -92c-33.333 -24.667 -63.5 -48.334 -90.5 -71.001s-52.167 -45.334 -75.5 -68.001c-20.667 28.667 -42.667 56.667 -66 84
s-48 54 -74 80c32.667 23.333 62.5 46.333 89.5 69s51.833 46 74.5 70z" />
    <glyph glyph-name="Zcaron" unicode="&#x17d;" horiz-adv-x="1081" 
d="M-12 0c56.667 79.333 136.667 201.333 240 366l79 126l459 722l-641 -6l68 242c70 -2.66699 141 -4.66699 213 -6s145.667 -2 221 -2c78 0 156.833 0.666992 236.5 2s160.5 3.33301 242.5 6l-774 -1223h661l-59 -237c-94.667 3.33301 -198.5 5.83301 -311.5 7.5
s-244.167 2.5 -393.5 2.5h-241zM531 1590l-189 313l162 33l113 -205l166 205l161 -33l-264 -313h-149z" />
    <glyph glyph-name="zcaron" unicode="&#x17e;" horiz-adv-x="807" 
d="M-12 0l142 213.5l77 116.5l278 420l-413 -2l102 204l259 -5.5c76 -1.66699 129 -2.5 159 -2.5h186l-116.5 -163l-139.5 -206l-241 -364l487 -2l-145 -219c-107.333 4 -190 6.66699 -248 8s-106 2 -144 2h-243zM393 1092l-189 313l162 33l113 -205l166 205l161 -33
l-264 -313h-149z" />
    <glyph glyph-name="florin" unicode="&#x192;" horiz-adv-x="1118" 
d="M1004 1450l-135.998 -236.001c-26 19.333 -48.333 33.5 -67 42.5s-34.334 13.5 -47.001 13.5c-29.333 0 -55 -100 -77 -300l-17 -155h208l-82 -123h-145l-27 -212c-42.667 -344.667 -85.667 -547 -129 -607c-37.333 -52 -120.333 -119.667 -249 -203l-43 -28
c-22.667 -14.667 -41.5 -25.167 -56.5 -31.5s-28.5 -9.5 -40.5 -9.5c-13.333 0 -27.166 2.33301 -41.499 7s-29.166 11.667 -44.499 21l135 238c24 -18.667 44.667 -32.5 62 -41.5s31.666 -13.5 42.999 -13.5c36 0 77.333 200 124 600l34 280h-172l71 123h117
c13.333 116.667 25.666 197.834 36.999 243.501s26.333 82.5 45 110.5c20.667 32 44.5 62.833 71.5 92.5s57.167 58.5 90.5 86.5c49.333 40.667 95.666 72.667 138.999 96s78 35 104 35c16.667 0 32.667 -2.5 48 -7.5s30.333 -12.167 45 -21.5z" />
    <glyph glyph-name="circumflex" unicode="&#x2c6;" 
d="M657 1438l189 -312l-162 -34l-111 204l-167 -204l-162 34l264 312h149z" />
    <glyph glyph-name="caron" unicode="&#x2c7;" 
d="M502 1092l-189 313l162 33l113 -205l166 205l161 -33l-264 -313h-149z" />
    <glyph glyph-name="breve" unicode="&#x2d8;" 
d="M318 1411l112.002 -0.000976562v-6c0 -48.667 11.667 -83.667 35 -105s61.666 -32 114.999 -32c55.333 0 101.166 11.667 137.499 35s64.833 59.333 85.5 108h119c-28 -97.333 -72.167 -170.166 -132.5 -218.499s-138.5 -72.5 -234.5 -72.5
c-79.333 0 -139.166 20.833 -179.499 62.5s-60.5 103.5 -60.5 185.5c0 12 0.166992 20.833 0.5 26.5s1.16602 11.167 2.49902 16.5z" />
    <glyph glyph-name="dotaccent" unicode="&#x2d9;" 
d="M600 1415c22.667 -31.333 45.8359 -61.166 69.5029 -89.499s48.167 -55.833 73.5 -82.5c-32.667 -24.667 -63.334 -49.167 -92.001 -73.5s-55.334 -48.166 -80.001 -71.499c-22.667 30.667 -45.834 60.167 -69.501 88.5s-48.167 56.166 -73.5 83.499
c29.333 20.667 58.333 43.167 87 67.5s57 50.166 85 77.499z" />
    <glyph glyph-name="ring" unicode="&#x2da;" 
d="M606 1466c-38.667 0 -70.833 -13 -96.5 -39s-38.5 -58.667 -38.5 -98c0 -37.333 13 -68.833 39 -94.5s58 -38.5 96 -38.5s69.667 12.667 95 38s38 57 38 95c0 38.667 -12.833 71.167 -38.5 97.5s-57.167 39.5 -94.5 39.5zM606.001 1589c72 0 133.003 -25 183.003 -75
s75 -111 75 -183c0 -72.667 -24.833 -133.834 -74.5 -183.501s-110.834 -74.5 -183.501 -74.5s-133.834 24.833 -183.501 74.5s-74.5 110.834 -74.5 183.501c0 72 25.167 133 75.5 183s111.166 75 182.499 75z" />
    <glyph glyph-name="ogonek" unicode="&#x2db;" 
d="M442 0h86.001c-44.667 -38.667 -77.334 -75 -98.001 -109s-31 -68.667 -31 -104c0 -28.667 6.83301 -49.167 20.5 -61.5s36.167 -18.5 67.5 -18.5h109l-33 -156h-80c-76 0 -133.167 14.667 -171.5 44s-57.5 73 -57.5 131c0 45.333 14.5 89.333 43.5 132
s77.167 90 144.5 142z" />
    <glyph glyph-name="tilde" unicode="&#x2dc;" 
d="M782 1386h106.999c-20 -73.333 -47.167 -127.5 -81.5 -162.5s-77.5 -52.5 -129.5 -52.5c-13.333 0 -26.666 1.16699 -39.999 3.5s-26.666 5.5 -39.999 9.5l-57 18c-14 4 -25.333 6.66699 -34 8s-16.667 2 -24 2c-21.333 0 -40 -6.5 -56 -19.5s-28 -32.167 -36 -57.5h-106
c18.667 72 45.5 125.833 80.5 161.5s79.167 53.5 132.5 53.5c12 0 25.167 -1.16699 39.5 -3.5s29.166 -5.5 44.499 -9.5l57 -16l17 -5c16.667 -4.66699 28 -7 34 -7c22 0 40.833 6.66699 56.5 20s27.5 32.333 35.5 57z" />
    <glyph glyph-name="hungarumlaut" unicode="&#x2dd;" 
d="M807 1442h188l-270 -350h-104zM518 1442h187l-232 -350h-104z" />
    <glyph glyph-name="Omega" unicode="&#x3a9;" horiz-adv-x="1569" 
d="M1194 213l305 0.00195312v-213h-602v229c106.667 62.667 187.334 144.167 242.001 244.5s82 217.5 82 351.5c0 140 -40.333 253.833 -121 341.5s-186 131.5 -316 131.5c-131.333 0 -236.833 -44.167 -316.5 -132.5s-119.5 -205.833 -119.5 -352.5
c0 -127.333 28 -241.333 84 -342s136 -181.334 240 -242.001v-229h-602v213h305c-96 86.667 -166.5 178 -211.5 274s-67.5 203.333 -67.5 322c0 209.333 63.5 378.666 190.5 507.999s292.833 194 497.5 194c202 0 367.333 -64.167 496 -192.5s193 -292.833 193 -493.5
c0 -126.667 -21.833 -237.667 -65.5 -333s-114.834 -188.333 -213.501 -279z" />
    <glyph glyph-name="pi" unicode="&#x3c0;" horiz-adv-x="1368" 
d="M360 889l-44.999 0.000976562c-36 0 -63.833 -10.5 -83.5 -31.5s-32.834 -54.167 -39.501 -99.5h-174c18.667 124.667 52 209.667 100 255s128.667 68 242 68h953l-39 -192h-193l-84 -437c-1.33301 -8.66699 -4 -22.334 -8 -41.001
c-14.667 -75.333 -22 -124.333 -22 -147c0 -38.667 7.66699 -66 23 -82s41 -24 77 -24c12 0 26.167 0.833008 42.5 2.5s36.166 4.16699 59.499 7.5l-34 -168c-19.333 -5.33301 -39.666 -9.33301 -60.999 -12s-46.333 -4 -75 -4c-92.667 0 -160.167 16 -202.5 48
s-63.5 83.333 -63.5 154c0 51.333 17.333 166 52 344l1 6l70 353h-268l-174 -889h-226z" />
    <glyph glyph-name="endash" unicode="&#x2013;" 
d="M-4 403l8 142h1024l-8 -142h-1024z" />
    <glyph glyph-name="emdash" unicode="&#x2014;" horiz-adv-x="2048" 
d="M4 545h2048l-8 -142h-2048z" />
    <glyph glyph-name="quoteleft" unicode="&#x2018;" horiz-adv-x="559" 
d="M453 1126l-155.999 -155.003c-42.667 32 -73.834 62.333 -93.501 91s-29.5 58.334 -29.5 89.001c0 43.333 19 92.166 57 146.499s95.333 114.833 172 181.5l31 -33c-33.333 -31.333 -57.333 -59.166 -72 -83.499s-22 -48.5 -22 -72.5
c0 -23.333 7.83301 -46.666 23.5 -69.999s45.5 -54.666 89.5 -93.999z" />
    <glyph glyph-name="quoteright" unicode="&#x2019;" horiz-adv-x="559" 
d="M190 1325l156 154.001c42.667 -33.333 73.834 -64.333 93.501 -93s29.5 -58 29.5 -88c0 -42 -18.833 -90 -56.5 -144s-95.167 -115 -172.5 -183l-33 33c32.667 28.667 56.5 55.667 71.5 81s22.5 50 22.5 74c0 24.667 -7.83301 49.167 -23.5 73.5
s-44.834 55.166 -87.501 92.499z" />
    <glyph glyph-name="quotesinglbase" unicode="&#x201a;" horiz-adv-x="559" 
d="M88 131l156 156.002c42.667 -33.333 73.834 -64.333 93.501 -93s29.5 -58 29.5 -88c0 -42.667 -19 -91.334 -57 -146.001s-95.667 -115.667 -173 -183l-33 35c35.333 32.667 60 60.5 74 83.5s21 46.167 21 69.5c0 24.667 -7.83301 49.167 -23.5 73.5
s-44.834 55.166 -87.501 92.499z" />
    <glyph glyph-name="quotedblleft" unicode="&#x201c;" horiz-adv-x="934" 
d="M827 1126l-154.999 -155.003c-42.667 32 -73.834 62.333 -93.501 91s-29.5 58.334 -29.5 89.001c0 43.333 19 92.166 57 146.499s95.333 114.833 172 181.5l31 -33c-33.333 -31.333 -57.333 -59.166 -72 -83.499s-22 -48.5 -22 -72.5
c0 -23.333 7.83301 -46.666 23.5 -69.999s45.167 -54.666 88.5 -93.999zM453.001 1126l-155.999 -155.003c-42.667 32 -73.834 62.333 -93.501 91s-29.5 58.334 -29.5 89.001c0 43.333 19 92.166 57 146.499s95.333 114.833 172 181.5l31 -33
c-33.333 -31.333 -57.333 -59.166 -72 -83.499s-22 -48.5 -22 -72.5c0 -23.333 7.83301 -46.666 23.5 -69.999s45.5 -54.666 89.5 -93.999z" />
    <glyph glyph-name="quotedblright" unicode="&#x201d;" horiz-adv-x="934" 
d="M563 1323l156 156.001c43.333 -34 75 -65.333 95 -94s30 -57.667 30 -87c0 -42.667 -19 -91.334 -57 -146.001s-95.667 -115.667 -173 -183l-32 35c32 28.667 55.667 55.667 71 81s23 50 23 74c0 23.333 -7.5 46.5 -22.5 69.5s-45.167 54.5 -90.5 94.5zM190 1323
l155.999 156.001c42.667 -33.333 73.834 -64.333 93.501 -93s29.5 -58 29.5 -88c0 -42.667 -19 -91.334 -57 -146.001s-95.333 -115.667 -172 -183l-33 35c32.667 28.667 56.5 55.667 71.5 81s22.5 50 22.5 74c0 24.667 -7.5 48.5 -22.5 71.5s-44.5 53.833 -88.5 92.5z" />
    <glyph glyph-name="quotedblbase" unicode="&#x201e;" horiz-adv-x="934" 
d="M463 131l155.001 156.002c43.333 -33.333 74.666 -64.333 93.999 -93s29 -58 29 -88c0 -42.667 -19 -91.334 -57 -146.001s-95.333 -115.667 -172 -183l-33 35c35.333 32.667 59.833 60.5 73.5 83.5s20.5 46.167 20.5 69.5c0 24.667 -7.66699 49.167 -23 73.5
s-44.333 55.166 -87 92.499zM88.001 131.002l156 156.002c42.667 -33.333 73.834 -64.333 93.501 -93s29.5 -58 29.5 -88c0 -42.667 -19 -91.334 -57 -146.001s-95.667 -115.667 -173 -183l-33 35c35.333 32.667 60 60.5 74 83.5s21 46.167 21 69.5
c0 24.667 -7.83301 49.167 -23.5 73.5s-44.834 55.166 -87.501 92.499z" />
    <glyph glyph-name="dagger" unicode="&#x2020;" 
d="M391 -285c10.667 81.333 18.502 178.168 23.502 290.501s7.5 240.166 7.5 383.499c0 66 -0.833008 123.167 -2.5 171.5s-4.16699 93.833 -7.5 136.5c21.333 44 39.166 86.5 53.499 127.5s24.833 80.833 31.5 119.5c-64.667 -7.33301 -124 -15.666 -178 -24.999
s-103.667 -20 -149 -32l18 209c67.333 -18 126.833 -31.667 178.5 -41s97.5 -14.666 137.5 -15.999c0 8 0.333008 20.167 1 36.5s1 28.5 1 36.5c0 56.667 -2.33301 115.667 -7 177s-11.334 124.666 -20.001 189.999h228c-29.333 -94 -52.166 -177.5 -68.499 -250.5
s-26.5 -136.167 -30.5 -189.5c39.333 1.33301 85.666 6.66602 138.999 15.999s115 23 185 41l-19 -209c-42.667 11.333 -90.167 21.833 -142.5 31.5s-110.5 18.167 -174.5 25.5c0 -40 3.66699 -80.833 11 -122.5s18 -83.5 32 -125.5
c-40 -166.667 -72.667 -332.167 -98 -496.5s-43.333 -325.833 -54 -484.5h-96z" />
    <glyph glyph-name="daggerdbl" unicode="&#x2021;" 
d="M319 -285c23.333 73.333 43.833 149.329 61.5 227.996s32.834 160.334 45.501 245.001c-42 -2 -90 -7.66699 -144 -17s-115.333 -22.666 -184 -39.999l21 211c42.667 -12 89.834 -22.667 141.501 -32s109.5 -17.666 173.5 -24.999c2.66699 17.333 4.66699 35.5 6 54.5
s2 39.5 2 61.5c0 43.333 -3.33301 85 -10 125s-17 79 -31 117c28.667 56 50.5 108.667 65.5 158s23.833 97 26.5 143c-64.667 -7.33301 -124 -15.666 -178 -24.999s-103.667 -20 -149 -32l18 209c67.333 -18 126.833 -31.667 178.5 -41s97.5 -14.666 137.5 -15.999v40
c0 68 -2.16699 135.167 -6.5 201.5s-11.166 132.5 -20.499 198.5h232c-22.667 -70.667 -42.667 -142.834 -60 -216.501s-32.333 -148.167 -45 -223.5c41.333 1.33301 88.666 6.66602 141.999 15.999s114.666 23 183.999 41l-19 -209c-43.333 12 -91 22.667 -143 32
s-109.333 17.666 -172 24.999c-1.33301 -14.667 -2.33301 -27 -3 -37s-1 -19.333 -1 -28c0 -36.667 3.33301 -74.667 10 -114s17 -80 31 -122c-30.667 -59.333 -53.834 -118.666 -69.501 -177.999s-24.5 -119.333 -26.5 -180c66 7.33301 126.167 15.833 180.5 25.5
s103.166 20.167 146.499 31.5l-18 -211c-61.333 16 -118.5 28.833 -171.5 38.5s-101.833 15.834 -146.5 18.501v-82c0 -70 2.33301 -137.5 7 -202.5s11.334 -127.833 20.001 -188.5h-232z" />
    <glyph glyph-name="bullet" unicode="&#x2022;" horiz-adv-x="1208" 
d="M307 762c0 82 28.999 151.666 86.999 208.999s128 86 210 86c81.333 0 150.833 -28.833 208.5 -86.5s86.5 -127.167 86.5 -208.5s-29.167 -151.166 -87.5 -209.499s-128.166 -87.5 -209.499 -87.5c-82 0 -151.667 29 -209 87s-86 128 -86 210z" />
    <glyph glyph-name="ellipsis" unicode="&#x2026;" horiz-adv-x="2048" 
d="M305 287l74.999 -90.9971c25.333 -29.333 50.666 -57 75.999 -83l-79 -66c-28 -24 -59.667 -52.667 -95 -86c-27.333 36 -53.166 68.167 -77.499 96.5s-48.166 54.166 -71.499 77.499c27.333 19.333 54.833 41.166 82.5 65.499s57.5 53.166 89.5 86.499zM986.999 287.003
l74.999 -90.9971c25.333 -29.333 50.666 -57 75.999 -83l-79 -66c-28 -24 -59.667 -52.667 -95 -86c-27.333 36 -53.166 68.167 -77.499 96.5s-48.166 54.166 -71.499 77.499c27.333 19.333 54.833 41.166 82.5 65.499s57.5 53.166 89.5 86.499zM1671 287.006
l74.999 -90.9971c25.333 -29.333 50.666 -57 75.999 -83l-79 -66c-28 -24 -59.667 -52.667 -95 -86c-27.333 36 -53.166 68.167 -77.499 96.5s-48.166 54.166 -71.499 77.499c27.333 19.333 54.833 41.166 82.5 65.499s57.5 53.166 89.5 86.499z" />
    <glyph glyph-name="perthousand" unicode="&#x2030;" horiz-adv-x="2509" 
d="M2212 121c21.333 50.667 37.501 102.167 48.501 154.5s16.5 103.166 16.5 152.499c0 104.667 -21.833 185.834 -65.5 243.501s-106.5 88.5 -188.5 92.5c-26.667 -52.667 -46.834 -108.167 -60.501 -166.5s-20.5 -117.5 -20.5 -177.5c0 -97.333 22.5 -171.5 67.5 -222.5
s111.167 -76.5 198.5 -76.5h4zM2093 -33c-5.33301 -2 -10.333 -3.50098 -15 -4.50098s-8.66699 -1.5 -12 -1.5c-74 0 -138.833 37 -194.5 111s-83.5 165.333 -83.5 274c0 69.333 10 137.333 30 204s51.667 137.334 95 212.001c8 14.667 26 31.5 54 50.5
s81.667 49.167 161 90.5c96 -7.33301 171.5 -44.666 226.5 -111.999s82.5 -157 82.5 -269c0 -144 -29 -262.833 -87 -356.5s-143.667 -159.834 -257 -198.501zM1421 120.999c21.333 50.667 37.666 102.167 48.999 154.5s17 103.166 17 152.499
c0 104.667 -21.833 185.834 -65.5 243.501s-106.5 88.5 -188.5 92.5c-27.333 -54 -48.166 -110.167 -62.499 -168.5s-21.5 -116.833 -21.5 -175.5c0 -98 22.833 -172.333 68.5 -223s112.167 -76 199.5 -76h4zM1300 -33.001c-5.33301 -2 -10.001 -3.5 -14.001 -4.5
s-7.33301 -1.5 -10 -1.5c-74.667 0 -140.167 37 -196.5 111s-84.5 165.333 -84.5 274c0 69.333 10 137.333 30 204s51.667 137.334 95 212.001c8 14 25.5 30.167 52.5 48.5s81.833 49.166 164.5 92.499c96 -7.33301 171.333 -44.666 226 -111.999s82 -157 82 -269
c0 -144 -29.167 -262.833 -87.5 -356.5s-144.166 -159.834 -257.499 -198.501zM498 697.999c21.333 51.333 37.501 103.169 48.501 155.502s16.5 103.166 16.5 152.499c0 104 -21.667 184.5 -65 241.5s-106.333 87.5 -189 91.5c-26.667 -52.667 -47 -107.834 -61 -165.501
s-21 -116.5 -21 -176.5c0 -97.333 22.667 -171.5 68 -222.5s111.666 -76.5 198.999 -76.5h4zM1323 1479l-831 -1518h-97l830 1518h98zM377.001 545.002c-4 -2 -8.00098 -3.49805 -12.001 -4.49805s-8.33301 -1.5 -13 -1.5c-74 0 -138.833 36.667 -194.5 110
s-83.5 164.333 -83.5 273c0 68.667 9.83301 136.667 29.5 204s50.834 137.666 93.501 210.999c8 14.667 24.667 30.667 50 48s81 48.666 167 93.999c96 -7.33301 171.5 -44.5 226.5 -111.5s82.5 -156.167 82.5 -267.5c0 -143.333 -29.333 -262 -88 -356
s-144.667 -160.333 -258 -199z" />
    <glyph glyph-name="guilsinglleft" unicode="&#x2039;" horiz-adv-x="569" 
d="M494 791l-269 -291l219 -291l-163 -96l-254 336l391 382z" />
    <glyph glyph-name="guilsinglright" unicode="&#x203a;" horiz-adv-x="569" 
d="M35 154l268 288l-221 293l166 96l252 -335l-391 -383z" />
    <glyph glyph-name="franc" unicode="&#x20a3;" horiz-adv-x="1665" 
d="M63 -10c18 156.667 37.667 358.832 59 606.499s43.333 529.5 66 845.5c40 0 104.333 0.333008 193 1c242.667 2 436.667 4.33301 582 7l-95 -170c-48 1.33301 -100.667 2.33301 -158 3s-144.333 1 -261 1c-10 -70 -19 -144 -27 -222s-15 -159.667 -21 -245l496 6
l-90 -166h-420c-11.333 -132 -21 -252.667 -29 -362s-14.667 -207.666 -20 -294.999zM983 -10.002c11.333 101.333 23.667 229.167 37 383.5s28.333 344.5 45 570.5l254 8c-6.66699 -48.667 -12.667 -98 -18 -148s-11.666 -115.333 -18.999 -196l37 79
c92 196 158 294 198 294c18 0 42 -7.5 72 -22.5s62.667 -36.167 98 -63.5l-141 -268c-22.667 16.667 -45.667 30 -69 40s-43.333 15 -60 15c-36.667 0 -74.834 -66.667 -114.501 -200s-61.5 -294 -65.5 -482z" />
    <glyph glyph-name="trademark" unicode="&#x2122;" horiz-adv-x="1706" 
d="M809 1460h170l141 -360l133 360h170v-542h-114v428l-160 -428h-59l-166 428v-428h-115v542zM225 1460h467v-94h-168v-448h-129v448h-170v94z" />
    <glyph glyph-name="partialdiff" unicode="&#x2202;" horiz-adv-x="1075" 
d="M758 639c11.333 68.667 20.0029 130.832 26.0029 186.499s9 104.834 9 147.501c0 80 -9.66699 138.167 -29 174.5s-50 54.5 -92 54.5c-41.333 0 -90.333 -19.5 -147 -58.5s-97.334 -58.5 -122.001 -58.5s-46.167 8.66699 -64.5 26s-27.5 37.333 -27.5 60
c0 44 26.333 82.333 79 115s119.334 49 200.001 49c117.333 0 213.166 -53 287.499 -159s111.5 -246.667 111.5 -422c0 -225.333 -50 -411.5 -150 -558.5s-225.333 -220.5 -376 -220.5c-107.333 0 -196 37.333 -266 112s-105 170 -105 286
c0 128.667 37.667 236.167 113 322.5s168 129.5 278 129.5c67.333 0 123.166 -15 167.499 -45s80.166 -77 107.499 -141zM705.003 503.998c0 77.333 -13.667 136.833 -41 178.5s-66.333 62.5 -117 62.5c-70 0 -128.167 -43.833 -174.5 -131.5s-69.5 -200.167 -69.5 -337.5
c0 -77.333 13.5 -136.5 40.5 -177.5s66.167 -61.5 117.5 -61.5c70 0 128.167 44.167 174.5 132.5s69.5 199.833 69.5 334.5z" />
    <glyph glyph-name="Delta" unicode="&#x2206;" horiz-adv-x="1395" 
d="M698 1196l-379 -983h756zM569 1473h256l574 -1473h-1403z" />
    <glyph glyph-name="product" unicode="&#x220f;" horiz-adv-x="1579" 
d="M154 1473h1267v-1866h-286v1622h-695v-1622h-286v1866z" />
    <glyph glyph-name="summation" unicode="&#x2211;" horiz-adv-x="1421" 
d="M61 1473h1280v-226h-921l647 -684l-661 -729h974v-227h-1347v160l712 786l-684 719v201z" />
    <glyph glyph-name="minus" unicode="&#x2212;" horiz-adv-x="1706" 
d="M254 696h1198v-170h-1198v170z" />
    <glyph glyph-name="fraction" unicode="&#x2215;" horiz-adv-x="342" 
d="M-342 -39l930 1518h94l-930 -1518h-94z" />
    <glyph glyph-name="periodcentered" unicode="&#x2219;" horiz-adv-x="559" 
d="M166 735c0 31.333 11.167 57.999 33.5 79.999s49.5 33 81.5 33c31.333 0 57.833 -10.833 79.5 -32.5s32.5 -48.5 32.5 -80.5c0 -31.333 -11 -58.166 -33 -80.499s-48.333 -33.5 -79 -33.5s-57.5 11.5 -80.5 34.5s-34.5 49.5 -34.5 79.5z" />
    <glyph glyph-name="radical" unicode="&#x221a;" horiz-adv-x="1323" 
d="M1128 1675h197v-110h-108l-594 -1606h-82l-316 872l-131 -49l-28 95l305 108l247 -688z" />
    <glyph glyph-name="infinity" unicode="&#x221e;" horiz-adv-x="1706" 
d="M928 559c30 -54 66.5 -94.832 109.5 -122.499s91.833 -41.5 146.5 -41.5c64.667 0 117.667 20.5 159 61.5s62 93.5 62 157.5c0 63.333 -19 116.166 -57 158.499s-85.333 63.5 -142 63.5c-52 0 -99.333 -21.167 -142 -63.5s-88 -113.5 -136 -213.5zM780 662.001
c-30.667 54 -67.668 95.001 -111.001 123.001s-91.666 42 -144.999 42c-65.333 0 -118.5 -20.667 -159.5 -62s-61.5 -94.333 -61.5 -159c0 -62.667 18.833 -114.834 56.5 -156.501s84.5 -62.5 140.5 -62.5c53.333 0 101.5 20.833 144.5 62.5s88.167 112.5 135.5 212.5z
M861.999 471.002c-47.333 -90 -96.832 -155.83 -148.499 -197.497s-109.167 -62.5 -172.5 -62.5c-91.333 0 -168.833 38.167 -232.5 114.5s-95.5 171.166 -95.5 284.499c0 119.333 28.333 215.833 85 289.5s130 110.5 220 110.5c62 0 118.167 -20 168.5 -60
s102.833 -106.667 157.5 -200c47.333 92.667 97.166 159.5 149.499 200.5s113.833 61.5 184.5 61.5c84.667 0 158.667 -38.667 222 -116s95 -172 95 -284c0 -118.667 -28.167 -214.834 -84.5 -288.501s-129.833 -110.5 -220.5 -110.5c-61.333 0 -116.833 19.167 -166.5 57.5
s-103.5 105.166 -161.5 200.499z" />
    <glyph glyph-name="integral" unicode="&#x222b;" horiz-adv-x="1120" 
d="M324 -258c70.667 0 111.332 230.669 121.999 692.002l3 123c8.66699 358.667 46.334 614.167 113.001 766.5s170.667 228.5 312 228.5c58 0 105.667 -15.167 143 -45.5s56 -67.5 56 -111.5c0 -40.667 -11.333 -72.334 -34 -95.001s-54.334 -34 -95.001 -34
c-30 0 -54.833 7.5 -74.5 22.5s-33.167 36.833 -40.5 65.5c-2.66699 11.333 -4.66699 26.333 -6 45c-2 26.667 -10.667 40.334 -26 41.001c-67.333 0 -107 -205 -119 -615c-3.33301 -107.333 -6 -190.333 -8 -249c-6.66699 -186.667 -16.834 -329 -30.501 -427
s-33.5 -179.667 -59.5 -245c-36.667 -90.667 -83.167 -159.167 -139.5 -205.5s-121.166 -69.5 -194.499 -69.5c-58 0 -105.333 14.667 -142 44s-55 66.666 -55 111.999c0 42 11.833 74.333 35.5 97s56.834 34 99.501 34c26 0 48 -6 66 -18s31.667 -30 41 -54
c4 -10.667 7 -30.334 9 -59.001s10 -43 24 -43z" />
    <glyph glyph-name="approxequal" unicode="&#x2248;" horiz-adv-x="1706" 
d="M1530 592l0.00195312 -185.999c-71.333 -48.667 -138 -84.167 -200 -106.5s-125 -33.5 -189 -33.5c-59.333 0 -152.5 22.167 -279.5 66.5s-226.5 66.5 -298.5 66.5c-56 0 -113.833 -12 -173.5 -36s-130.167 -64.333 -211.5 -121v184c74.667 50 143.5 86.667 206.5 110
s123.167 35 180.5 35c78.667 0 181.667 -22.5 309 -67.5s219.666 -67.5 276.999 -67.5c55.333 0 112.666 12.167 171.999 36.5s128.333 64.166 207 119.499zM1530 979.001l0.00390625 -184c-72.667 -50 -139.834 -86.167 -201.501 -108.5s-124.167 -33.5 -187.5 -33.5
c-58.667 0 -151.5 22.5 -278.5 67.5s-226.833 67.5 -299.5 67.5c-54.667 0 -111.334 -11.667 -170.001 -35s-130.334 -64 -215.001 -122v184c72.667 48.667 141 85.167 205 109.5s124.667 36.5 182 36.5c80 0 183.333 -22.667 310 -68s216 -68 268 -68
c61.333 0 121.666 11.667 180.999 35s128 63 206 119z" />
    <glyph glyph-name="notequal" unicode="&#x2260;" horiz-adv-x="1706" 
d="M1204 1212l123 -100l-170 -215h295v-162h-403l-197 -250h600v-161h-707l-249 -314l-123 99l170 215h-289v161h393l199 250h-592v162h700z" />
    <glyph glyph-name="lessequal" unicode="&#x2264;" horiz-adv-x="1706" 
d="M260 178h1186v-166h-1186v166zM1446 1223v-176l-889 -287l889 -287v-176l-1186 389v145z" />
    <glyph glyph-name="greaterequal" unicode="&#x2265;" horiz-adv-x="1706" 
d="M260 178h1188v-166h-1188v166zM260 1223l1186 -392v-145l-1186 -389v176l891 287l-891 287v176z" />
    <glyph glyph-name="lozenge" unicode="&#x25ca;" horiz-adv-x="1012" 
d="M506 1409l-385 -817l385 -825l385 825zM506 1653l500 -1061l-500 -1069l-500 1069z" />
    <glyph glyph-name="apple" unicode="&#xf000;" horiz-adv-x="1618" 
d="M836 1216c-0.666992 4 -1.16699 8.66895 -1.5 14.002s-0.5 13 -0.5 23c0 82.667 31.667 159.167 95 229.5s142 114.166 236 131.499c0.666992 -6.66699 1.16699 -14.334 1.5 -23.001s0.5 -21.667 0.5 -39c0 -87.333 -34.5 -165.5 -103.5 -234.5
s-136.833 -103.5 -203.5 -103.5h-8c-2 0 -4.5 0.333008 -7.5 1s-5.83301 1 -8.5 1zM1505 403.002c-76 -164.667 -144.336 -278.834 -205.003 -342.501s-128.667 -95.5 -204 -95.5c-33.333 0 -77.166 11 -131.499 33s-95.166 33 -122.499 33c-30 0 -73.667 -11 -131 -33
s-99.666 -33 -126.999 -33c-42.667 0 -85.5 14.667 -128.5 44s-86.167 73.333 -129.5 132c-68 93.333 -120.5 191.833 -157.5 295.5s-55.5 203.834 -55.5 300.501c0 146 41.667 264.833 125 356.5s191 137.5 323 137.5c45.333 0 97 -11.333 155 -34s99.333 -34 124 -34
c22.667 0 63.167 11.667 121.5 35s109.166 35 152.499 35c73.333 0 139.333 -13.333 198 -40s112.334 -68 161.001 -124c-68 -43.333 -118.5 -91.833 -151.5 -145.5s-49.5 -114.5 -49.5 -182.5c0 -75.333 20 -142 60 -200s97.667 -104 173 -138z" />
    <glyph glyph-name="fi" unicode="&#xf001;" horiz-adv-x="1090" 
d="M725 1094l123 282l254 66l-164 -281zM655 -10c12 103.333 24.668 232.666 38.001 387.999s28 344 44 566l273 8c-12 -96.667 -24.833 -220.667 -38.5 -372s-28.834 -344.666 -45.501 -579.999zM-30.999 -436c72 32.667 127.669 314.667 167.002 846
c12.667 172.667 23.334 309 32.001 409h-158l84 125h86c1.33301 63.333 8.16602 113.333 20.499 150s34.166 73.334 65.499 110.001c75.333 86.667 141.666 154.167 198.999 202.5s99.666 72.5 126.999 72.5c22 0 46.5 -6.66699 73.5 -20s57.167 -33.333 90.5 -60l-148 -205
c-26 34.667 -49.667 61.5 -71 80.5s-38.666 28.5 -51.999 28.5c-9.33301 0 -18.333 -31.333 -27 -94s-16 -151 -22 -265h203l-98 -125h-113c-5.33301 -64.667 -12.333 -155.667 -21 -273c-29.333 -396 -63.333 -637.333 -102 -724
c-22 -50.667 -56.333 -100.334 -103 -149.001s-110 -100.667 -190 -156z" />
    <glyph glyph-name="fl" unicode="&#xf002;" horiz-adv-x="1090" 
d="M653 -10c19.333 170.667 40 380.835 62 630.502s43.667 523.5 65 821.5l275 8c-28.667 -272.667 -53.5 -529.334 -74.5 -770.001s-38.5 -467.334 -52.5 -680.001zM-31 -435.999c72 32.667 127.668 314.667 167.001 846c12.667 172.667 23.334 309 32.001 409h-158l84 125
h86c1.33301 63.333 8.16602 113.333 20.499 150s34.166 73.334 65.499 110.001c75.333 86.667 141.666 154.167 198.999 202.5s99.666 72.5 126.999 72.5c16.667 0 34.834 -4.16699 54.501 -12.5s42.5 -21.5 68.5 -39.5l-107 -233c-26 34.667 -49.667 61.5 -71 80.5
s-38.666 28.5 -51.999 28.5c-9.33301 0 -18.333 -31.333 -27 -94s-16 -151 -22 -265h203l-98 -125h-113c-5.33301 -64.667 -12.333 -155.667 -21 -273c-29.333 -396 -63.333 -637.333 -102 -724c-22 -50.667 -56.333 -100.334 -103 -149.001s-110 -100.667 -190 -156z" />
    <glyph glyph-name=".null" horiz-adv-x="0" 
 />
    <glyph glyph-name="nonmarkingreturn" horiz-adv-x="559" 
 />
    </font>
</defs>
</svg>
